{"glyphs":{"0":{"ha":903,"x_min":78,"x_max":825,"o":"m 451 -19 q 173 113 268 -19 q 78 497 78 244 q 174 878 78 749 q 453 1008 269 1008 q 730 878 635 1008 q 825 497 825 749 q 729 113 825 244 q 451 -19 633 -19 m 299 213 q 324 168 299 213 q 453 124 349 124 q 606 213 557 124 q 654 496 654 303 q 605 776 654 688 q 451 865 556 865 q 298 776 347 865 q 249 496 249 688 q 299 213 249 303 z "},"1":{"ha":631,"x_min":53,"x_max":474,"o":"m 306 0 l 306 694 l 53 694 l 53 813 l 108 813 q 264 857 211 813 q 326 975 313 899 l 329 989 l 474 989 l 474 0 l 306 0 z "},"2":{"ha":903,"x_min":103,"x_max":797,"o":"m 103 0 q 157 215 107 125 q 321 381 207 304 l 501 504 q 622 694 622 585 q 577 819 622 775 q 454 863 532 863 q 328 813 374 863 q 283 668 283 764 l 283 646 l 118 646 l 118 665 q 210 915 118 824 q 457 1006 301 1006 q 702 923 608 1006 q 796 703 796 840 q 601 388 796 514 l 454 293 q 349 213 376 243 q 317 144 321 182 l 797 144 l 797 0 l 103 0 z "},"3":{"ha":903,"x_min":71,"x_max":833,"o":"m 457 -22 q 174 72 274 -22 q 71 325 75 165 l 238 325 q 298 174 242 226 q 456 121 354 121 q 606 167 554 121 q 657 290 657 214 q 607 408 657 365 q 461 450 557 450 l 372 450 l 372 583 l 439 583 q 563 619 519 583 q 607 722 607 656 q 563 828 607 790 q 436 865 518 865 q 310 824 353 865 q 263 688 267 782 l 100 688 q 194 926 106 844 q 443 1007 282 1007 q 688 935 597 1007 q 778 746 778 864 q 629 536 778 594 l 629 533 q 781 449 728 513 q 833 289 833 386 q 732 64 833 150 q 457 -22 631 -22 z "},"4":{"ha":903,"x_min":65,"x_max":839,"o":"m 685 360 l 839 360 l 839 221 l 685 221 l 685 0 l 518 0 l 518 221 l 65 221 l 65 388 l 526 989 l 685 989 l 685 360 m 518 360 l 518 747 l 515 747 l 218 360 l 518 360 z "},"5":{"ha":903,"x_min":88,"x_max":814,"o":"m 444 -22 q 201 53 296 -22 q 88 263 106 129 l 253 271 q 319 158 267 197 q 447 119 371 119 q 592 174 539 119 q 644 321 644 229 q 592 466 644 411 q 444 521 539 521 q 275 447 344 521 l 114 463 l 210 989 l 754 989 l 754 840 l 332 840 l 289 603 l 292 601 q 489 661 381 661 q 724 568 635 661 q 814 326 814 475 q 714 75 814 172 q 444 -22 614 -22 z "},"6":{"ha":903,"x_min":81,"x_max":822,"o":"m 493 660 q 732 567 642 660 q 822 326 822 475 q 723 75 822 171 q 464 -21 624 -21 q 185 100 285 -21 q 81 476 81 228 q 179 872 81 733 q 464 1011 278 1011 q 691 939 603 1011 q 792 744 779 867 l 631 744 q 574 840 619 804 q 463 875 529 875 q 242 535 251 875 q 493 660 328 660 m 464 119 q 603 176 553 119 q 654 324 654 233 q 601 470 654 415 q 463 525 549 525 q 322 470 376 525 q 268 326 268 415 q 322 176 268 233 q 464 119 376 119 z "},"7":{"ha":903,"x_min":93,"x_max":808,"o":"m 239 0 q 613 836 269 485 l 93 836 l 93 989 l 808 989 l 808 853 q 533 472 624 671 q 424 0 443 274 l 239 0 z "},"8":{"ha":903,"x_min":63,"x_max":840,"o":"m 733 60 q 680 19 733 60 q 451 -22 626 -22 q 169 60 276 -22 q 63 285 63 142 q 113 444 63 378 q 251 538 164 510 l 251 540 q 149 626 188 569 q 111 754 111 682 q 203 940 111 872 q 451 1008 294 1008 q 700 940 608 1008 q 792 754 792 872 q 753 623 792 679 q 651 540 715 567 l 651 538 q 790 444 739 510 q 840 285 840 378 q 733 60 840 142 m 317 630 q 341 611 317 630 q 451 592 365 592 q 586 630 538 592 q 635 736 635 668 q 587 839 635 803 q 451 875 539 875 q 316 839 364 875 q 268 736 268 803 q 317 630 268 668 m 291 159 q 320 135 291 159 q 451 111 350 111 q 612 159 553 111 q 671 289 671 207 q 613 416 671 369 q 451 463 554 463 q 290 416 349 463 q 232 289 232 369 q 291 159 232 207 z "},"9":{"ha":903,"x_min":81,"x_max":824,"o":"m 718 885 q 824 508 824 756 q 724 113 824 251 q 439 -26 625 -26 q 212 46 300 -26 q 113 240 124 118 l 272 240 q 328 145 283 181 q 440 110 374 110 q 661 450 651 110 q 410 325 575 325 q 171 417 261 325 q 81 658 81 510 q 180 910 81 814 q 439 1006 279 1006 q 718 885 618 1006 m 301 515 q 328 487 301 515 q 440 460 354 460 q 581 515 526 460 q 635 658 635 569 q 581 808 635 751 q 439 865 526 865 q 300 808 351 865 q 249 661 249 751 q 301 515 249 569 z "},"Ɛ":{"ha":997,"x_min":104,"x_max":893,"o":"m 104 0 l 104 989 l 893 989 l 893 0 l 104 0 m 272 149 l 725 149 l 725 840 l 272 840 l 272 149 z "},"\u0000":{"ha":0,"x_min":0,"x_max":0,"o":""},"\r":{"ha":361,"x_min":0,"x_max":0,"o":""}," ":{"ha":361,"x_min":0,"x_max":0,"o":""},"!":{"ha":386,"x_min":104,"x_max":282,"o":"m 154 281 l 108 721 l 108 989 l 276 989 l 276 721 l 232 281 l 154 281 m 104 0 l 104 175 l 282 175 l 282 0 l 104 0 z "},"\"":{"ha":639,"x_min":97,"x_max":543,"o":"m 97 596 l 97 990 l 244 990 l 244 596 l 97 596 m 396 596 l 396 990 l 543 990 l 543 596 l 396 596 z "},"#":{"ha":971,"x_min":53,"x_max":918,"o":"m 918 619 l 746 624 l 711 372 l 865 376 l 865 244 l 693 249 l 658 0 l 525 0 l 560 250 l 339 250 l 304 0 l 172 0 l 207 249 l 53 244 l 53 376 l 225 372 l 260 624 l 106 619 l 106 753 l 278 749 l 311 989 l 443 989 l 410 747 l 631 747 l 664 989 l 797 989 l 764 749 l 918 753 l 918 619 m 357 371 l 578 371 l 613 625 l 392 625 l 357 371 z "},"$":{"ha":903,"x_min":86,"x_max":846,"o":"m 846 294 q 765 95 846 172 q 540 3 685 18 l 540 -200 l 410 -200 l 410 3 q 183 97 265 17 q 86 315 100 178 l 244 315 q 307 181 253 225 q 476 138 361 138 q 685 278 685 138 q 652 362 685 332 q 547 408 619 392 l 357 450 q 113 711 113 507 q 188 898 113 822 q 410 986 263 974 l 410 1176 l 540 1176 l 540 985 q 746 894 674 968 q 829 701 818 819 l 672 701 q 612 815 661 779 q 463 851 563 851 q 274 724 274 851 q 303 644 274 675 q 406 596 332 613 l 590 556 q 846 294 846 496 z "},"%":{"ha":1657,"x_min":104,"x_max":1553,"o":"m 552 485 q 519 444 552 485 q 361 403 486 403 q 170 485 236 403 q 104 719 104 567 q 169 951 104 869 q 361 1032 235 1032 q 553 951 488 1032 q 618 719 618 869 q 552 485 618 567 m 440 -21 l 1063 1010 l 1199 1010 l 579 -21 l 440 -21 m 268 563 q 283 539 268 563 q 361 515 299 515 q 454 563 424 515 q 485 718 485 611 q 454 872 485 825 q 361 919 424 919 q 268 872 299 919 q 238 718 238 825 q 268 563 238 611 m 1487 60 q 1454 19 1487 60 q 1296 -22 1421 -22 q 1105 60 1171 -22 q 1039 294 1039 142 q 1104 526 1039 444 q 1296 607 1169 607 q 1488 526 1422 607 q 1553 294 1553 444 q 1487 60 1553 142 m 1203 138 q 1218 114 1203 138 q 1296 90 1233 90 q 1389 138 1358 90 q 1419 293 1419 186 q 1389 446 1419 399 q 1296 493 1358 493 q 1203 446 1233 493 q 1172 293 1172 399 q 1203 138 1172 186 z "},"&":{"ha":1051,"x_min":97,"x_max":1024,"o":"m 1024 -1 l 821 -1 l 732 100 q 433 -21 604 -21 q 190 57 283 -21 q 97 264 97 135 q 328 561 97 468 q 221 783 221 682 q 295 949 221 885 q 485 1013 369 1013 q 678 947 603 1013 q 753 781 753 882 q 557 521 753 619 l 735 322 q 779 490 768 397 l 935 490 q 832 214 914 332 l 1024 -1 m 567 849 q 551 864 567 849 q 488 878 535 878 q 409 851 440 878 q 378 776 378 824 q 433 660 378 719 l 465 624 q 567 690 535 656 q 600 772 600 725 q 567 849 600 821 m 446 117 q 642 203 560 117 l 419 458 q 260 272 260 392 q 309 160 260 204 q 446 117 358 117 z "},"'":{"ha":342,"x_min":97,"x_max":244,"o":"m 97 596 l 97 990 l 244 990 l 244 596 l 97 596 z "},"(":{"ha":481,"x_min":68,"x_max":428,"o":"m 276 -283 q 68 371 68 10 q 276 1038 68 746 l 428 1038 q 232 371 232 743 q 428 -283 232 14 l 276 -283 z "},")":{"ha":481,"x_min":53,"x_max":411,"o":"m 53 -283 q 249 371 249 17 q 53 1038 249 739 l 203 1038 q 411 371 411 749 q 203 -283 411 7 l 53 -283 z "},"*":{"ha":750,"x_min":97,"x_max":653,"o":"m 260 468 l 156 539 l 290 696 l 97 751 l 139 867 l 324 792 l 314 989 l 436 989 l 426 792 l 611 867 l 653 751 l 461 696 l 594 539 l 493 468 l 375 640 l 260 468 z "},"+":{"ha":903,"x_min":85,"x_max":847,"o":"m 847 501 l 847 361 l 539 361 l 539 50 l 393 50 l 393 361 l 85 361 l 85 501 l 393 501 l 393 813 l 539 813 l 539 501 l 847 501 z "},",":{"ha":404,"x_min":107,"x_max":297,"o":"m 108 -210 l 108 -131 l 129 -131 q 207 -51 207 -131 l 207 3 l 107 0 l 107 175 l 297 175 l 297 -44 q 129 -210 297 -210 l 108 -210 z "},"-":{"ha":528,"x_min":69,"x_max":458,"o":"m 69 299 l 69 442 l 458 442 l 458 299 l 69 299 z "},".":{"ha":394,"x_min":100,"x_max":294,"o":"m 100 0 l 100 175 l 294 175 l 294 0 l 100 0 z "},"/":{"ha":672,"x_min":49,"x_max":624,"o":"m 49 0 l 460 989 l 624 989 l 213 0 l 49 0 z "},":":{"ha":394,"x_min":100,"x_max":294,"o":"m 100 531 l 100 706 l 294 706 l 294 531 l 100 531 m 100 0 l 100 175 l 294 175 l 294 0 l 100 0 z "},";":{"ha":408,"x_min":107,"x_max":301,"o":"m 107 531 l 107 706 l 301 706 l 301 531 l 107 531 m 111 -210 l 111 -131 l 131 -131 q 210 -51 210 -131 l 210 3 l 110 0 l 110 175 l 300 175 l 300 -44 q 131 -210 300 -210 l 111 -210 z "},"<":{"ha":903,"x_min":83,"x_max":850,"o":"m 850 778 l 850 617 l 261 421 l 850 226 l 850 65 l 83 342 l 83 500 l 850 778 z "},"=":{"ha":903,"x_min":94,"x_max":838,"o":"m 94 519 l 94 658 l 838 658 l 838 519 l 94 519 m 94 201 l 94 340 l 838 340 l 838 201 l 94 201 z "},">":{"ha":903,"x_min":83,"x_max":850,"o":"m 83 778 l 850 500 l 850 342 l 83 65 l 83 226 l 672 421 l 83 617 l 83 778 z "},"?":{"ha":832,"x_min":54,"x_max":764,"o":"m 329 286 l 329 326 q 362 459 329 407 q 481 565 394 511 q 569 642 543 604 q 594 725 594 679 q 542 835 594 799 q 407 871 489 871 q 217 683 224 871 l 54 683 q 151 924 61 839 q 410 1010 242 1010 q 668 933 572 1010 q 764 726 764 857 q 631 496 764 585 l 564 453 q 499 391 515 421 q 483 301 483 361 l 483 286 l 329 286 m 318 0 l 318 175 l 496 175 l 496 0 l 318 0 z "},"@":{"ha":1497,"x_min":104,"x_max":1393,"o":"m 760 1013 q 1225 855 1057 1013 q 1393 457 1393 697 q 1311 177 1393 288 q 1090 67 1229 67 q 910 169 957 67 q 708 67 840 67 q 514 154 586 67 q 442 386 442 242 q 515 615 442 529 q 708 700 589 700 q 899 611 831 700 l 910 679 l 1036 679 l 1036 258 q 1110 178 1036 178 q 1223 247 1178 178 q 1268 442 1268 315 q 1131 767 1268 642 q 756 892 994 892 q 381 757 515 892 q 246 385 246 622 q 380 15 246 149 q 754 -119 514 -119 q 1036 -68 900 -119 l 1036 -193 q 760 -237 907 -237 q 280 -72 456 -237 q 104 385 104 94 q 281 842 104 671 q 760 1013 458 1013 m 738 181 q 837 222 797 181 q 889 331 876 263 l 889 443 q 836 547 876 508 q 738 585 796 585 q 630 532 668 585 q 592 386 592 479 q 630 236 592 292 q 738 181 668 181 z "},"A":{"ha":997,"x_min":38,"x_max":958,"o":"m 776 0 l 690 247 l 304 247 l 217 0 l 38 0 l 404 989 l 597 989 l 958 0 l 776 0 m 354 389 l 642 389 l 557 635 l 499 829 l 440 635 l 354 389 z "},"B":{"ha":972,"x_min":104,"x_max":888,"o":"m 697 535 q 888 289 888 479 q 802 80 888 160 q 563 0 717 0 l 104 0 l 104 989 l 557 989 q 771 924 692 989 q 850 747 850 860 q 697 535 850 588 m 531 849 l 272 849 l 272 589 l 521 589 q 642 624 601 589 q 682 722 682 660 q 531 849 682 849 m 540 143 q 675 184 629 143 q 721 299 721 225 q 676 411 721 372 q 544 450 631 450 l 272 450 l 272 143 l 540 143 z "},"C":{"ha":989,"x_min":68,"x_max":940,"o":"m 522 -28 q 194 117 319 -28 q 68 494 68 261 q 194 868 68 726 q 522 1010 319 1010 q 804 919 692 1010 q 935 675 917 828 l 771 675 q 689 813 751 764 q 531 863 626 863 q 315 763 393 863 q 238 494 238 664 q 315 221 238 322 q 531 119 393 119 q 699 178 636 119 q 778 342 763 238 l 940 342 q 811 70 922 168 q 522 -28 700 -28 z "},"D":{"ha":979,"x_min":104,"x_max":917,"o":"m 464 989 q 804 860 692 989 q 917 494 917 731 q 803 131 917 261 q 465 0 690 0 l 104 0 l 104 989 l 464 989 m 449 143 q 677 228 607 143 q 747 494 747 313 q 675 764 747 679 q 438 849 603 849 l 272 849 l 272 143 l 449 143 z "},"E":{"ha":900,"x_min":104,"x_max":826,"o":"m 272 143 l 826 143 l 826 0 l 104 0 l 104 989 l 814 989 l 814 846 l 272 846 l 272 583 l 765 583 l 765 439 l 272 439 l 272 143 z "},"F":{"ha":813,"x_min":104,"x_max":792,"o":"m 792 840 l 272 840 l 272 579 l 714 579 l 714 431 l 272 431 l 272 0 l 104 0 l 104 989 l 792 989 l 792 840 z "},"G":{"ha":1075,"x_min":68,"x_max":971,"o":"m 971 532 l 971 0 l 857 0 l 825 122 q 528 -22 731 -22 q 198 119 328 -22 q 68 496 68 260 q 197 870 68 731 q 538 1010 325 1010 q 824 925 713 1010 q 958 690 935 840 l 794 679 q 711 817 778 769 q 546 864 644 864 q 318 765 399 864 q 238 494 238 665 q 318 222 238 324 q 540 119 399 119 q 727 186 653 119 q 819 372 801 253 l 819 389 l 551 389 l 551 532 l 971 532 z "},"H":{"ha":997,"x_min":104,"x_max":893,"o":"m 725 989 l 893 989 l 893 0 l 725 0 l 725 446 l 272 446 l 272 0 l 104 0 l 104 989 l 272 989 l 272 594 l 725 594 l 725 989 z "},"I":{"ha":376,"x_min":104,"x_max":272,"o":"m 104 0 l 104 989 l 272 989 l 272 0 l 104 0 z "},"J":{"ha":779,"x_min":69,"x_max":675,"o":"m 597 57 q 558 19 597 57 q 375 -19 519 -19 q 150 58 231 -19 q 69 274 69 136 l 69 354 l 232 354 l 232 276 q 374 128 232 128 q 507 276 507 128 l 507 989 l 675 989 l 675 275 q 597 57 675 133 z "},"K":{"ha":976,"x_min":104,"x_max":953,"o":"m 743 0 l 400 481 l 272 354 l 272 0 l 104 0 l 104 989 l 272 989 l 272 557 l 697 989 l 915 989 l 519 592 l 953 0 l 743 0 z "},"L":{"ha":811,"x_min":104,"x_max":771,"o":"m 272 149 l 771 149 l 771 0 l 104 0 l 104 989 l 272 989 l 272 149 z "},"M":{"ha":1183,"x_min":104,"x_max":1079,"o":"m 842 989 l 1079 989 l 1079 0 l 924 0 l 924 510 l 938 840 l 868 606 l 679 0 l 511 0 l 311 621 l 244 846 l 258 510 l 258 0 l 104 0 l 104 989 l 340 989 l 557 322 l 594 174 l 632 322 l 842 989 z "},"N":{"ha":1000,"x_min":104,"x_max":896,"o":"m 732 989 l 896 989 l 896 0 l 721 0 l 268 719 l 268 0 l 104 0 l 104 989 l 276 989 l 732 267 l 732 989 z "},"O":{"ha":1074,"x_min":68,"x_max":1006,"o":"m 535 -28 q 199 117 331 -28 q 68 496 68 263 q 199 868 68 726 q 535 1010 331 1010 q 873 867 740 1010 q 1006 496 1006 725 q 873 117 1006 263 q 535 -28 740 -28 m 536 119 q 753 222 671 119 q 836 496 836 325 q 753 762 836 661 q 536 863 671 863 q 319 762 401 863 q 238 496 238 661 q 319 222 238 325 q 536 119 400 119 z "},"P":{"ha":875,"x_min":104,"x_max":835,"o":"m 504 989 q 747 910 658 989 q 835 688 835 832 q 745 458 835 539 q 493 378 656 378 l 272 378 l 272 0 l 104 0 l 104 989 l 504 989 m 485 521 q 622 564 574 521 q 671 686 671 607 q 623 805 671 764 q 493 846 575 846 l 272 846 l 272 521 l 485 521 z "},"Q":{"ha":1069,"x_min":68,"x_max":1006,"o":"m 1006 494 q 878 124 1006 267 l 1004 24 l 915 -81 l 783 43 q 535 -28 674 -28 q 199 117 331 -28 q 68 494 68 263 q 199 867 68 725 q 535 1010 331 1010 q 873 867 740 1010 q 1006 494 1006 725 m 238 494 q 319 222 238 325 q 536 119 401 119 q 660 147 601 119 l 558 225 l 649 331 l 757 226 q 836 494 836 329 q 753 761 836 660 q 536 863 669 863 q 319 762 401 863 q 238 494 238 661 z "},"R":{"ha":967,"x_min":104,"x_max":876,"o":"m 838 314 l 876 0 l 704 0 l 678 258 q 633 370 671 336 q 514 404 596 404 l 272 404 l 272 0 l 104 0 l 104 989 l 564 989 q 794 915 717 989 q 871 722 871 840 q 824 565 871 628 q 689 478 776 501 q 838 314 821 450 m 513 544 q 656 587 607 544 q 704 701 704 629 q 662 808 704 769 q 538 846 619 846 l 272 846 l 272 544 l 513 544 z "},"S":{"ha":924,"x_min":63,"x_max":863,"o":"m 474 -26 q 179 61 286 -26 q 63 314 72 149 l 226 314 q 475 111 240 111 q 636 151 581 111 q 692 263 692 190 q 649 356 692 322 q 513 411 607 390 l 351 449 q 92 715 92 508 q 185 927 92 843 q 451 1011 279 1011 q 725 928 622 1011 q 839 699 828 844 l 676 699 q 608 828 667 782 q 450 874 549 874 q 308 835 360 874 q 257 732 257 797 q 400 603 257 635 l 586 560 q 863 276 863 496 q 763 57 863 140 q 474 -26 663 -26 z "},"T":{"ha":871,"x_min":38,"x_max":832,"o":"m 832 989 l 832 840 l 519 840 l 519 0 l 351 0 l 351 840 l 38 840 l 38 989 l 832 989 z "},"U":{"ha":974,"x_min":104,"x_max":869,"o":"m 769 60 q 718 16 769 60 q 486 -28 668 -28 q 204 60 304 -28 q 104 308 104 147 l 104 989 l 272 989 l 272 304 q 488 119 272 119 q 701 304 701 119 l 701 989 l 869 989 l 869 308 q 769 60 869 147 z "},"V":{"ha":939,"x_min":38,"x_max":900,"o":"m 722 989 l 900 989 l 556 0 l 383 0 l 38 989 l 219 989 l 406 425 l 472 186 l 539 425 l 722 989 z "},"W":{"ha":1338,"x_min":38,"x_max":1300,"o":"m 1128 989 l 1300 989 l 1018 0 l 857 0 l 667 772 l 478 0 l 315 0 l 38 989 l 214 989 l 351 447 l 399 238 l 446 447 l 581 989 l 756 989 l 889 447 l 935 238 l 985 447 l 1128 989 z "},"X":{"ha":947,"x_min":38,"x_max":910,"o":"m 568 519 l 910 0 l 711 0 l 515 326 l 478 403 l 436 325 l 236 0 l 38 0 l 389 521 l 75 989 l 271 989 l 439 715 l 481 636 l 521 714 l 696 989 l 886 989 l 568 519 z "},"Y":{"ha":931,"x_min":26,"x_max":903,"o":"m 718 989 l 903 989 l 553 394 l 553 0 l 385 0 l 385 394 l 26 989 l 218 989 l 419 633 l 469 526 l 518 633 l 718 989 z "},"Z":{"ha":942,"x_min":72,"x_max":868,"o":"m 285 146 l 868 146 l 868 0 l 72 0 l 72 143 l 638 843 l 108 843 l 108 989 l 858 989 l 858 857 l 285 146 z "},"[":{"ha":471,"x_min":104,"x_max":418,"o":"m 104 -283 l 104 1038 l 418 1038 l 418 906 l 260 906 l 260 -151 l 418 -151 l 418 -283 l 104 -283 z "},"\\":{"ha":672,"x_min":49,"x_max":624,"o":"m 460 0 l 49 989 l 213 989 l 624 0 l 460 0 z "},"]":{"ha":471,"x_min":53,"x_max":367,"o":"m 53 -283 l 53 -151 l 211 -151 l 211 906 l 53 906 l 53 1038 l 367 1038 l 367 -283 l 53 -283 z "},"^":{"ha":903,"x_min":132,"x_max":800,"o":"m 544 989 l 800 272 l 632 272 l 528 585 q 464 831 494 693 q 397 585 426 685 l 300 272 l 132 272 l 381 989 l 544 989 z "},"_":{"ha":694,"x_min":0,"x_max":694,"o":"m 0 -214 l 0 -104 l 694 -104 l 694 -214 l 0 -214 z "},"`":{"ha":694,"x_min":197,"x_max":499,"o":"m 376 800 l 197 1006 l 404 1006 l 499 800 l 376 800 z "},"a":{"ha":781,"x_min":53,"x_max":714,"o":"m 714 0 l 550 0 q 532 83 543 28 q 297 -19 451 -19 q 119 38 185 -19 q 53 194 53 96 q 283 414 53 375 l 507 451 q 526 457 521 454 l 526 519 q 385 614 526 614 q 282 588 317 614 q 240 503 247 563 l 88 504 q 389 735 108 735 q 685 488 685 735 l 685 165 q 714 0 685 86 m 338 103 q 472 149 417 103 q 526 268 526 196 l 526 343 l 328 308 q 213 203 213 288 q 246 129 213 156 q 338 103 279 103 z "},"b":{"ha":829,"x_min":97,"x_max":774,"o":"m 472 733 q 689 634 604 733 q 774 368 774 535 q 688 89 774 197 q 463 -19 603 -19 q 243 100 318 -19 l 240 0 l 97 0 l 97 989 l 260 989 l 260 638 q 472 733 333 733 m 435 122 q 565 190 515 122 q 614 368 614 257 q 565 537 614 476 q 435 597 517 597 q 302 535 353 597 q 251 364 251 474 q 302 188 251 254 q 435 122 353 122 z "},"c":{"ha":767,"x_min":57,"x_max":717,"o":"m 396 -21 q 148 78 239 -21 q 57 354 57 178 q 149 633 57 531 q 399 735 240 735 q 614 667 531 735 q 717 474 697 599 l 560 474 q 401 604 529 604 q 264 540 311 604 q 217 357 217 476 q 265 174 217 239 q 400 110 313 110 q 560 249 529 110 l 717 249 q 613 50 696 121 q 396 -21 531 -21 z "},"d":{"ha":831,"x_min":57,"x_max":733,"o":"m 571 989 l 733 989 l 733 0 l 590 0 l 588 101 q 368 -19 513 -19 q 142 88 228 -19 q 57 365 57 194 q 142 633 57 532 q 358 733 226 733 q 571 638 497 733 l 571 989 m 396 122 q 528 188 476 122 q 579 364 579 254 q 528 535 579 474 q 396 597 478 597 q 265 536 314 597 q 217 365 217 475 q 265 188 217 254 q 396 122 314 122 z "},"e":{"ha":807,"x_min":57,"x_max":751,"o":"m 751 354 l 751 314 l 222 314 q 278 162 228 215 q 415 108 329 108 q 582 225 539 108 l 738 211 q 620 39 704 99 q 415 -21 536 -21 q 153 86 249 -21 q 57 361 57 193 q 150 630 57 525 q 403 735 243 735 q 656 633 560 735 q 751 354 751 531 m 532 563 q 508 586 532 563 q 407 610 485 610 q 280 562 329 610 q 224 426 231 514 l 589 426 q 532 563 579 515 z "},"f":{"ha":482,"x_min":38,"x_max":457,"o":"m 394 857 q 328 837 347 857 q 308 771 308 817 l 308 713 l 457 717 l 457 594 l 308 600 l 308 0 l 146 0 l 146 599 l 38 594 l 38 717 l 146 713 l 146 767 q 368 989 146 989 l 457 989 l 457 857 l 394 857 z "},"g":{"ha":833,"x_min":57,"x_max":738,"o":"m 590 717 l 738 717 l 738 7 q 648 -223 738 -146 q 399 -300 558 -300 q 176 -242 258 -300 q 82 -74 94 -185 l 235 -74 q 397 -176 256 -176 q 535 -134 493 -176 q 576 0 576 -92 l 576 94 q 367 -7 501 -7 q 142 98 228 -7 q 57 371 57 203 q 143 635 57 536 q 365 733 229 733 q 588 615 517 733 l 590 717 m 396 132 q 528 197 476 132 q 579 369 579 261 q 528 539 579 478 q 396 600 478 600 q 265 539 314 600 q 217 371 217 478 q 265 197 217 261 q 396 132 314 132 z "},"h":{"ha":814,"x_min":97,"x_max":717,"o":"m 478 735 q 653 669 590 735 q 717 489 717 604 l 717 0 l 554 0 l 554 454 q 431 590 554 590 q 308 540 357 590 q 260 390 260 489 l 260 0 l 97 0 l 97 989 l 260 989 l 260 624 q 478 735 335 735 z "},"i":{"ha":357,"x_min":97,"x_max":260,"o":"m 97 831 l 97 989 l 260 989 l 260 831 l 97 831 m 97 0 l 97 717 l 260 717 l 260 0 l 97 0 z "},"j":{"ha":357,"x_min":-25,"x_max":260,"o":"m 97 831 l 97 989 l 260 989 l 260 831 l 97 831 m -25 -283 l -25 -143 l 17 -143 q 80 -127 63 -143 q 97 -69 97 -111 l 97 717 l 260 717 l 260 -75 q 212 -234 260 -185 q 57 -283 164 -283 l -25 -283 z "},"k":{"ha":789,"x_min":97,"x_max":756,"o":"m 564 0 l 347 343 l 260 258 l 260 0 l 97 0 l 97 989 l 260 989 l 260 431 l 539 717 l 743 717 l 460 443 l 756 0 l 564 0 z "},"l":{"ha":357,"x_min":97,"x_max":260,"o":"m 97 0 l 97 989 l 260 989 l 260 0 l 97 0 z "},"m":{"ha":1201,"x_min":97,"x_max":1106,"o":"m 881 735 q 1047 669 989 735 q 1106 485 1106 604 l 1106 0 l 943 0 l 943 465 q 915 556 943 522 q 833 590 886 590 q 725 540 768 590 q 682 386 682 489 l 682 0 l 519 0 l 519 465 q 491 556 519 522 q 410 590 463 590 q 303 538 346 590 q 260 383 260 486 l 260 0 l 97 0 l 97 717 l 254 717 l 253 617 q 460 735 322 735 q 661 607 611 735 q 881 735 729 735 z "},"n":{"ha":814,"x_min":97,"x_max":717,"o":"m 478 735 q 653 669 590 735 q 717 489 717 604 l 717 0 l 554 0 l 554 454 q 431 590 554 590 q 308 540 357 590 q 260 390 260 489 l 260 0 l 97 0 l 97 717 l 253 717 l 256 617 q 478 735 331 735 z "},"o":{"ha":825,"x_min":57,"x_max":769,"o":"m 669 86 q 619 33 669 86 q 413 -21 569 -21 q 156 85 256 -21 q 57 357 57 190 q 157 630 57 525 q 415 735 257 735 q 671 631 572 735 q 769 360 769 526 q 669 86 769 193 m 413 110 q 558 178 506 110 q 611 360 611 246 q 558 539 611 474 q 413 604 506 604 q 269 538 321 604 q 217 357 217 471 q 269 177 217 244 q 413 110 322 110 z "},"p":{"ha":829,"x_min":97,"x_max":774,"o":"m 472 733 q 689 634 604 733 q 774 368 774 535 q 688 89 774 197 q 463 -19 603 -19 q 260 76 333 -19 l 260 -283 l 97 -283 l 97 717 l 240 717 l 243 614 q 472 733 317 733 m 435 122 q 565 190 515 122 q 614 368 614 257 q 565 537 614 476 q 435 597 517 597 q 302 535 353 597 q 251 364 251 474 q 302 188 251 254 q 435 122 353 122 z "},"q":{"ha":831,"x_min":57,"x_max":733,"o":"m 590 717 l 733 717 l 733 -278 l 571 -278 l 571 78 q 368 -19 496 -19 q 142 88 228 -19 q 57 365 57 194 q 142 633 57 532 q 358 733 226 733 q 588 614 514 733 l 590 717 m 396 122 q 528 188 476 122 q 579 364 579 254 q 528 535 579 474 q 396 597 478 597 q 265 536 314 597 q 217 365 217 475 q 265 188 217 254 q 396 122 314 122 z "},"r":{"ha":518,"x_min":97,"x_max":494,"o":"m 449 739 q 494 735 472 739 l 494 581 q 451 583 464 583 q 314 528 367 583 q 260 369 261 474 l 260 0 l 97 0 l 97 717 l 253 717 l 250 586 q 449 739 307 739 z "},"s":{"ha":726,"x_min":57,"x_max":678,"o":"m 369 -22 q 149 40 228 -22 q 57 219 69 101 l 208 224 q 375 97 225 97 q 485 122 446 97 q 525 193 525 147 q 422 281 525 260 l 279 310 q 75 513 75 353 q 149 674 75 614 q 354 735 224 735 q 562 676 482 735 q 656 507 642 617 l 504 503 q 351 615 485 615 q 258 593 292 615 q 225 529 225 571 q 321 446 225 467 l 468 415 q 627 342 576 392 q 678 211 678 292 q 595 40 678 101 q 369 -22 513 -22 z "},"t":{"ha":485,"x_min":38,"x_max":450,"o":"m 303 600 l 303 201 q 318 147 303 163 q 371 132 333 132 l 450 132 l 450 0 l 321 0 q 183 42 225 0 q 140 181 140 85 l 140 599 l 38 594 l 38 717 l 140 713 l 140 938 l 303 938 l 303 713 l 450 717 l 450 594 l 303 600 z "},"u":{"ha":814,"x_min":97,"x_max":717,"o":"m 554 717 l 717 717 l 717 0 l 561 0 l 558 100 q 336 -18 483 -18 q 160 47 224 -18 q 97 228 97 113 l 97 717 l 260 717 l 260 263 q 383 126 260 126 q 506 177 457 126 q 554 326 554 228 l 554 717 z "},"v":{"ha":724,"x_min":28,"x_max":696,"o":"m 532 717 l 696 717 l 447 0 l 283 0 l 28 717 l 200 717 l 301 404 l 368 144 l 432 404 l 532 717 z "},"w":{"ha":1076,"x_min":28,"x_max":1049,"o":"m 879 717 l 1049 717 l 825 0 l 668 0 l 565 413 l 539 551 l 511 413 l 406 0 l 247 0 l 28 717 l 200 717 l 296 351 l 333 171 l 369 351 l 461 717 l 618 717 l 708 353 l 744 172 l 781 351 l 879 717 z "},"x":{"ha":772,"x_min":28,"x_max":744,"o":"m 744 0 l 551 0 l 389 264 l 215 0 l 28 0 l 307 379 l 63 717 l 253 717 l 392 493 l 535 717 l 717 717 l 474 381 l 744 0 z "},"y":{"ha":761,"x_min":28,"x_max":733,"o":"m 563 717 l 733 717 l 424 -133 q 348 -251 393 -219 q 224 -283 303 -283 l 100 -283 l 100 -146 l 182 -146 q 251 -129 228 -146 q 292 -68 275 -112 l 311 -15 l 28 717 l 206 717 l 364 269 l 383 172 l 563 717 z "},"z":{"ha":706,"x_min":49,"x_max":657,"o":"m 246 132 l 657 132 l 657 0 l 49 0 l 49 124 l 440 585 l 79 585 l 79 717 l 638 717 l 638 597 l 246 132 z "},"{":{"ha":543,"x_min":51,"x_max":490,"o":"m 356 -283 q 192 -115 192 -283 l 192 183 q 51 317 192 315 l 51 442 q 192 578 192 443 l 192 868 q 235 993 192 949 q 356 1038 278 1038 l 490 1038 l 490 906 l 419 906 q 347 829 347 906 l 347 567 q 199 381 347 401 l 199 378 q 347 192 347 354 l 347 -76 q 419 -153 347 -153 l 490 -153 l 490 -283 l 356 -283 z "},"|":{"ha":371,"x_min":104,"x_max":267,"o":"m 104 -283 l 104 1038 l 267 1038 l 267 -283 l 104 -283 z "},"}":{"ha":543,"x_min":51,"x_max":490,"o":"m 51 -283 l 51 -153 l 122 -153 q 196 -76 196 -153 l 196 192 q 344 378 196 354 l 344 381 q 196 567 196 401 l 196 829 q 124 906 196 906 l 51 906 l 51 1038 l 186 1038 q 308 993 264 1038 q 351 868 351 949 l 351 578 q 385 476 351 508 q 490 442 418 443 l 490 317 q 385 283 418 315 q 351 183 351 251 l 351 -115 q 186 -283 351 -283 l 51 -283 z "},"~":{"ha":903,"x_min":104,"x_max":828,"o":"m 104 335 q 158 530 104 467 q 306 593 211 593 q 425 566 367 593 q 531 512 483 539 q 615 485 579 485 q 688 593 688 485 l 828 593 q 774 399 828 463 q 625 335 721 335 q 530 352 576 335 q 453 390 483 369 q 385 427 422 410 q 317 444 349 444 q 261 419 279 444 q 243 335 243 393 l 104 335 z "}," ":{"ha":361,"x_min":0,"x_max":0,"o":""},"¡":{"ha":386,"x_min":104,"x_max":282,"o":"m 104 542 l 104 717 l 282 717 l 282 542 l 104 542 m 108 -278 l 108 -8 l 154 436 l 232 436 l 276 -8 l 276 -278 l 108 -278 z "},"¢":{"ha":903,"x_min":136,"x_max":796,"o":"m 479 110 q 639 249 608 110 l 796 249 q 713 69 778 138 q 543 -15 649 1 l 543 -200 l 411 -200 l 411 -17 q 209 100 282 3 q 136 354 136 197 q 209 610 136 511 q 411 729 282 708 l 411 925 l 543 925 l 543 731 q 713 649 647 715 q 796 474 778 582 l 639 474 q 481 604 608 604 q 343 540 390 604 q 296 357 296 476 q 344 174 296 239 q 479 110 392 110 z "},"£":{"ha":903,"x_min":79,"x_max":853,"o":"m 450 143 l 853 143 l 853 0 l 79 0 l 79 143 l 128 143 q 324 194 254 143 q 393 317 393 244 q 365 397 393 361 l 79 390 l 79 531 l 264 525 q 147 738 147 615 q 233 931 147 853 q 479 1010 318 1010 q 734 926 640 1010 q 836 710 828 842 l 672 710 q 615 827 665 786 q 488 868 565 868 q 362 829 408 868 q 315 722 315 790 q 453 524 315 629 l 756 531 l 756 390 l 542 397 q 560 321 560 361 q 450 143 560 213 z "},"¤":{"ha":903,"x_min":38,"x_max":894,"o":"m 761 697 q 817 499 817 611 q 761 300 817 386 l 894 172 l 792 71 l 664 204 q 465 149 578 149 q 267 204 356 149 l 139 71 l 38 172 l 171 300 q 114 499 114 388 q 171 697 114 610 l 38 825 l 139 926 l 267 793 q 465 849 356 849 q 664 793 578 849 l 792 926 l 894 825 l 761 697 m 313 340 q 341 310 313 340 q 465 281 369 281 q 619 340 561 281 q 676 499 676 400 q 619 657 676 597 q 465 717 561 717 q 313 657 369 717 q 256 499 256 597 q 313 340 256 400 z "},"¥":{"ha":903,"x_min":28,"x_max":904,"o":"m 904 989 l 628 521 l 835 521 l 835 389 l 553 389 l 553 275 l 835 275 l 835 143 l 553 143 l 553 0 l 385 0 l 385 143 l 103 143 l 103 275 l 385 275 l 385 389 l 103 389 l 103 521 l 308 521 l 28 989 l 219 989 l 421 633 l 469 526 l 519 633 l 719 989 l 904 989 z "},"¦":{"ha":371,"x_min":104,"x_max":267,"o":"m 104 571 l 104 1038 l 267 1038 l 267 571 l 104 571 m 104 -283 l 104 183 l 267 183 l 267 -283 l 104 -283 z "},"§":{"ha":858,"x_min":68,"x_max":790,"o":"m 790 410 q 660 206 790 272 q 713 60 713 144 q 635 -108 713 -46 q 425 -169 557 -169 q 219 -108 296 -169 q 131 64 143 -47 l 281 69 q 431 -49 297 -49 q 527 -23 492 -49 q 563 51 563 3 q 451 163 563 132 l 285 207 q 68 450 68 267 q 199 654 68 588 q 146 799 146 715 q 224 967 146 904 q 433 1029 303 1029 q 640 968 564 1029 q 729 796 717 907 l 578 790 q 429 908 561 908 q 331 883 367 908 q 296 808 296 857 q 407 697 296 728 l 574 651 q 790 410 790 593 m 338 336 l 518 286 q 549 276 538 282 q 644 396 644 311 q 521 524 644 490 l 340 574 q 310 583 321 578 q 214 464 214 549 q 338 336 214 369 z "},"¨":{"ha":694,"x_min":118,"x_max":576,"o":"m 118 831 l 118 989 l 281 989 l 281 831 l 118 831 m 414 831 l 414 989 l 576 989 l 576 831 l 414 831 z "},"©":{"ha":1182,"x_min":68,"x_max":1114,"o":"m 590 -22 q 216 124 364 -22 q 68 494 68 271 q 215 867 68 721 q 590 1013 363 1013 q 966 867 818 1013 q 1114 494 1114 721 q 966 124 1114 271 q 590 -22 818 -22 m 590 83 q 883 199 769 83 q 997 496 997 315 q 883 791 997 675 q 590 907 769 907 q 298 791 413 907 q 183 496 183 675 q 298 199 183 315 q 590 83 413 83 m 593 235 q 423 303 486 235 q 360 496 360 372 q 422 689 360 621 q 593 757 485 757 q 807 604 767 757 l 699 583 q 594 654 675 654 q 476 496 476 654 q 594 339 476 339 q 700 413 678 339 l 807 390 q 593 235 765 235 z "},"ª":{"ha":688,"x_min":97,"x_max":590,"o":"m 350 1007 q 534 960 478 1007 q 590 819 590 914 l 590 517 l 471 517 l 461 571 q 279 506 393 506 q 145 547 193 506 q 97 656 97 588 q 138 753 97 715 q 263 797 179 790 l 456 814 l 456 835 q 350 911 456 911 q 239 861 260 911 l 113 892 q 350 1007 158 1007 m 314 603 q 415 632 375 603 q 456 699 456 661 l 456 735 l 313 722 q 233 660 233 715 q 314 603 233 603 z "},"«":{"ha":971,"x_min":97,"x_max":874,"o":"m 460 -14 l 97 282 l 97 432 l 460 728 l 460 542 l 229 357 l 460 172 l 460 -14 m 874 -14 l 511 282 l 511 432 l 874 728 l 874 542 l 643 357 l 874 172 l 874 -14 z "},"¬":{"ha":903,"x_min":104,"x_max":828,"o":"m 682 163 l 682 431 l 104 431 l 104 569 l 828 569 l 828 163 l 682 163 z "},"­":{"ha":528,"x_min":69,"x_max":458,"o":"m 69 299 l 69 442 l 458 442 l 458 299 l 69 299 z "},"®":{"ha":850,"x_min":68,"x_max":782,"o":"m 172 909 q 223 959 172 909 q 425 1010 275 1010 q 678 910 575 1010 q 782 664 782 810 q 678 418 782 518 q 425 318 575 318 q 172 419 275 318 q 68 664 68 519 q 172 909 68 808 m 228 471 q 267 432 228 471 q 425 393 307 393 q 622 471 543 393 q 701 664 701 549 q 622 857 701 779 q 425 935 543 935 q 228 857 307 935 q 149 664 149 779 q 228 471 149 549 m 571 586 l 574 536 q 589 489 575 510 l 501 489 q 489 536 492 504 l 486 574 q 475 610 485 600 q 442 619 465 619 l 371 619 l 371 489 l 286 489 l 286 844 l 450 844 q 544 817 510 844 q 579 742 579 790 q 528 660 579 685 q 571 586 567 643 m 371 689 l 444 689 q 490 731 490 689 q 442 774 490 774 l 371 774 l 371 689 z "},"¯":{"ha":694,"x_min":110,"x_max":585,"o":"m 110 846 l 110 968 l 585 968 l 585 846 l 110 846 z "},"°":{"ha":611,"x_min":57,"x_max":556,"o":"m 306 526 q 128 597 199 526 q 57 776 57 668 q 128 954 57 883 q 306 1025 199 1025 q 485 954 414 1025 q 556 776 556 883 q 485 597 556 668 q 306 526 415 526 m 306 640 q 402 678 365 640 q 439 776 439 717 q 402 874 439 836 q 306 911 365 911 q 211 874 249 911 q 174 776 174 836 q 211 678 174 717 q 306 640 249 640 z "},"±":{"ha":903,"x_min":88,"x_max":844,"o":"m 539 606 l 844 606 l 844 467 l 539 467 l 539 238 l 393 238 l 393 467 l 88 467 l 88 606 l 393 606 l 393 835 l 539 835 l 539 606 m 94 -17 l 94 124 l 838 124 l 838 -17 l 94 -17 z "},"²":{"ha":600,"x_min":71,"x_max":531,"o":"m 71 517 q 102 676 71 615 q 204 776 133 738 l 331 842 q 406 935 406 881 q 378 994 406 972 q 301 1017 351 1017 q 223 992 246 1017 q 197 918 200 968 l 75 918 q 135 1069 78 1015 q 301 1122 193 1122 q 469 1072 407 1122 q 531 936 531 1022 q 400 760 531 826 l 293 704 q 238 668 256 685 q 217 626 221 651 l 529 626 l 529 517 l 71 517 z "},"³":{"ha":619,"x_min":68,"x_max":551,"o":"m 311 494 q 135 547 199 494 q 68 696 71 600 l 192 696 q 311 599 196 599 q 425 682 425 599 q 308 763 425 763 l 257 763 l 257 869 l 311 869 q 408 942 408 869 q 303 1018 408 1018 q 194 936 201 1018 l 72 936 q 135 1074 74 1025 q 303 1122 197 1122 q 471 1076 410 1122 q 532 954 532 1031 q 506 873 532 907 q 435 826 481 839 l 435 824 q 519 772 488 810 q 551 678 551 733 q 487 546 551 597 q 311 494 422 494 z "},"´":{"ha":694,"x_min":197,"x_max":499,"o":"m 197 800 l 290 1006 l 499 1006 l 319 800 l 197 800 z "},"µ":{"ha":814,"x_min":97,"x_max":717,"o":"m 97 -283 l 97 717 l 260 717 l 260 268 q 383 126 260 126 q 506 177 457 126 q 554 326 554 228 l 554 717 l 717 717 l 717 0 l 560 0 l 560 101 q 357 -17 500 -17 q 231 24 281 -17 l 228 21 l 260 -153 l 260 -283 l 97 -283 z "},"¶":{"ha":878,"x_min":40,"x_max":774,"o":"m 343 -143 l 343 476 q 119 544 197 476 q 40 731 40 611 q 120 924 40 858 q 354 989 200 989 l 774 989 l 774 -143 l 635 -143 l 635 850 l 482 850 l 482 -143 l 343 -143 z "},"·":{"ha":479,"x_min":151,"x_max":329,"o":"m 151 407 l 151 582 l 329 582 l 329 407 l 151 407 z "},"¸":{"ha":694,"x_min":211,"x_max":476,"o":"m 226 -346 l 226 -262 l 268 -262 q 349 -215 349 -262 q 300 -175 349 -175 l 256 -175 l 211 -107 l 279 0 l 369 0 l 315 -82 l 338 -82 q 439 -114 401 -82 q 476 -204 476 -146 q 424 -308 476 -271 q 282 -346 372 -346 l 226 -346 z "},"¹":{"ha":414,"x_min":49,"x_max":317,"o":"m 193 517 l 193 914 l 49 914 l 49 1007 l 93 1007 q 172 1030 142 1007 q 206 1092 203 1053 l 207 1110 l 317 1110 l 317 517 l 193 517 z "},"º":{"ha":643,"x_min":57,"x_max":588,"o":"m 324 506 q 129 574 201 506 q 57 757 57 642 q 129 939 57 871 q 324 1007 201 1007 q 516 939 444 1007 q 588 757 588 871 q 516 574 588 642 q 324 506 444 506 m 324 610 q 417 647 383 610 q 450 757 450 685 q 417 865 450 828 q 324 903 383 903 q 228 865 263 903 q 193 757 193 828 q 228 647 193 685 q 324 610 263 610 z "},"»":{"ha":969,"x_min":97,"x_max":872,"o":"m 97 -14 l 97 172 l 326 357 l 97 542 l 97 728 l 458 432 l 458 282 l 97 -14 m 511 -14 l 511 172 l 740 357 l 511 542 l 511 728 l 872 432 l 872 282 l 511 -14 z "},"¼":{"ha":1464,"x_min":104,"x_max":1360,"o":"m 249 425 l 249 822 l 104 822 l 104 915 l 149 915 q 228 938 197 915 q 261 1000 258 961 l 263 1018 l 372 1018 l 372 425 l 249 425 m 293 -21 l 915 1010 l 1053 1010 l 433 -21 l 293 -21 m 1139 0 l 1139 122 l 846 118 l 846 221 l 1124 593 l 1258 593 l 1258 221 l 1360 225 l 1360 118 l 1258 122 l 1258 0 l 1139 0 m 969 224 l 1139 221 l 1139 447 l 1135 447 l 969 224 z "},"½":{"ha":1469,"x_min":104,"x_max":1367,"o":"m 249 425 l 249 822 l 104 822 l 104 915 l 149 915 q 228 938 197 915 q 261 1000 258 961 l 263 1018 l 372 1018 l 372 425 l 249 425 m 293 -21 l 915 1010 l 1053 1010 l 433 -21 l 293 -21 m 907 0 q 938 160 907 99 q 1040 260 969 221 l 1167 325 q 1240 418 1240 363 q 1214 478 1240 456 q 1138 500 1188 500 q 1058 476 1082 500 q 1032 401 1035 451 l 910 401 q 971 552 913 499 q 1138 606 1029 606 q 1305 556 1243 606 q 1367 419 1367 506 q 1235 243 1367 308 l 1129 188 q 1074 152 1092 168 q 1053 110 1057 136 l 1365 110 l 1365 0 l 907 0 z "},"¾":{"ha":1594,"x_min":97,"x_max":1497,"o":"m 515 454 q 482 428 515 454 q 339 403 450 403 q 163 456 228 403 q 97 604 99 508 l 219 604 q 339 507 224 507 q 454 590 454 507 q 338 672 454 672 l 286 672 l 286 778 l 339 778 q 436 850 436 778 q 331 928 436 928 q 222 844 229 928 l 100 844 q 163 982 101 933 q 331 1031 225 1031 q 499 985 438 1031 q 560 864 560 940 q 534 782 560 817 q 463 735 508 747 l 463 732 q 547 680 515 718 q 579 586 579 642 q 515 454 579 506 m 431 -21 l 1053 1010 l 1190 1010 l 571 -21 l 431 -21 m 1276 0 l 1276 122 l 983 118 l 983 221 l 1260 593 l 1396 593 l 1396 221 l 1497 225 l 1497 118 l 1396 122 l 1396 0 l 1276 0 m 1107 224 l 1276 221 l 1276 447 l 1272 447 l 1107 224 z "},"¿":{"ha":832,"x_min":68,"x_max":778,"o":"m 336 542 l 336 717 l 514 717 l 514 542 l 336 542 m 422 -293 q 164 -217 260 -293 q 68 -10 68 -140 q 201 221 68 132 l 268 264 q 333 326 317 296 q 349 415 349 357 l 349 431 l 503 431 l 503 390 q 470 258 503 310 q 351 151 438 206 q 263 75 288 113 q 238 -8 238 38 q 290 -118 238 -82 q 424 -154 342 -154 q 562 -108 515 -154 q 615 33 608 -61 l 778 33 q 681 -208 771 -122 q 422 -293 590 -293 z "},"À":{"ha":997,"x_min":38,"x_max":958,"o":"m 596 1072 l 475 1072 l 296 1278 l 503 1278 l 596 1072 m 776 0 l 690 247 l 304 247 l 217 0 l 38 0 l 404 989 l 597 989 l 958 0 l 776 0 m 354 389 l 642 389 l 557 635 l 499 829 l 440 635 l 354 389 z "},"Á":{"ha":997,"x_min":38,"x_max":958,"o":"m 710 1278 l 531 1072 l 408 1072 l 501 1278 l 710 1278 m 776 0 l 690 247 l 304 247 l 217 0 l 38 0 l 404 989 l 597 989 l 958 0 l 776 0 m 354 389 l 642 389 l 557 635 l 499 829 l 440 635 l 354 389 z "},"Â":{"ha":997,"x_min":38,"x_max":958,"o":"m 506 1206 l 415 1079 l 261 1079 l 426 1289 l 585 1289 l 750 1079 l 596 1079 l 506 1206 m 776 0 l 690 247 l 304 247 l 217 0 l 38 0 l 404 989 l 597 989 l 958 0 l 776 0 m 354 389 l 642 389 l 557 635 l 499 829 l 440 635 l 354 389 z "},"Ã":{"ha":997,"x_min":38,"x_max":958,"o":"m 410 1188 q 349 1093 351 1188 l 225 1093 q 271 1267 225 1211 q 393 1324 317 1324 q 479 1300 442 1324 q 546 1253 517 1276 q 601 1229 575 1229 q 663 1324 661 1229 l 786 1324 q 741 1149 786 1204 q 618 1093 696 1093 q 533 1117 569 1093 q 467 1164 496 1140 q 410 1188 438 1188 m 776 0 l 690 247 l 304 247 l 217 0 l 38 0 l 404 989 l 597 989 l 958 0 l 776 0 m 354 389 l 642 389 l 557 635 l 499 829 l 440 635 l 354 389 z "},"Ä":{"ha":997,"x_min":38,"x_max":958,"o":"m 439 1256 l 439 1097 l 276 1097 l 276 1256 l 439 1256 m 735 1256 l 735 1097 l 572 1097 l 572 1256 l 735 1256 m 776 0 l 690 247 l 304 247 l 217 0 l 38 0 l 404 989 l 597 989 l 958 0 l 776 0 m 354 389 l 642 389 l 557 635 l 499 829 l 440 635 l 354 389 z "},"Å":{"ha":997,"x_min":38,"x_max":958,"o":"m 776 0 l 690 247 l 304 247 l 217 0 l 38 0 l 382 931 q 307 1089 307 988 q 363 1232 307 1175 q 506 1289 419 1289 q 648 1232 592 1289 q 704 1089 704 1175 q 621 925 704 982 l 958 0 l 776 0 m 506 1192 q 433 1164 461 1192 q 406 1089 406 1136 q 433 1016 406 1043 q 506 989 461 989 q 577 1017 549 989 q 606 1089 606 1044 q 577 1164 606 1136 q 506 1192 549 1192 m 354 389 l 642 389 l 557 635 l 499 829 l 440 635 l 354 389 z "},"Æ":{"ha":1581,"x_min":38,"x_max":1508,"o":"m 953 143 l 1508 143 l 1508 0 l 785 0 l 785 254 l 374 254 l 221 0 l 38 0 l 633 989 l 1494 989 l 1494 846 l 953 846 l 953 583 l 1447 583 l 1447 439 l 953 439 l 953 143 m 458 394 l 785 394 l 785 846 l 729 846 l 458 394 z "},"Ç":{"ha":989,"x_min":68,"x_max":940,"o":"m 940 342 q 819 78 922 175 q 550 -28 717 -19 l 506 -94 l 528 -94 q 629 -126 592 -94 q 667 -217 667 -158 q 615 -321 667 -283 q 472 -358 563 -358 l 417 -358 l 417 -275 l 458 -275 q 539 -228 539 -275 q 490 -187 539 -187 l 446 -187 l 401 -119 l 463 -24 q 176 139 283 -1 q 68 494 68 279 q 194 868 68 726 q 522 1010 319 1010 q 804 919 692 1010 q 935 675 917 828 l 771 675 q 689 813 751 764 q 531 863 626 863 q 315 763 393 863 q 238 494 238 664 q 315 221 238 322 q 531 119 393 119 q 699 178 636 119 q 778 342 763 238 l 940 342 z "},"È":{"ha":900,"x_min":104,"x_max":826,"o":"m 554 1072 l 433 1072 l 254 1278 l 461 1278 l 554 1072 m 272 143 l 826 143 l 826 0 l 104 0 l 104 989 l 814 989 l 814 846 l 272 846 l 272 583 l 765 583 l 765 439 l 272 439 l 272 143 z "},"É":{"ha":900,"x_min":104,"x_max":826,"o":"m 667 1278 l 488 1072 l 365 1072 l 458 1278 l 667 1278 m 272 143 l 826 143 l 826 0 l 104 0 l 104 989 l 814 989 l 814 846 l 272 846 l 272 583 l 765 583 l 765 439 l 272 439 l 272 143 z "},"Ê":{"ha":900,"x_min":104,"x_max":826,"o":"m 463 1206 l 372 1079 l 218 1079 l 383 1289 l 542 1289 l 707 1079 l 553 1079 l 463 1206 m 272 143 l 826 143 l 826 0 l 104 0 l 104 989 l 814 989 l 814 846 l 272 846 l 272 583 l 765 583 l 765 439 l 272 439 l 272 143 z "},"Ë":{"ha":900,"x_min":104,"x_max":826,"o":"m 396 1256 l 396 1097 l 233 1097 l 233 1256 l 396 1256 m 692 1256 l 692 1097 l 529 1097 l 529 1256 l 692 1256 m 272 143 l 826 143 l 826 0 l 104 0 l 104 989 l 814 989 l 814 846 l 272 846 l 272 583 l 765 583 l 765 439 l 272 439 l 272 143 z "},"Ì":{"ha":376,"x_min":-21,"x_max":279,"o":"m 158 1072 l -21 1278 l 186 1278 l 279 1072 l 158 1072 m 104 0 l 104 989 l 272 989 l 272 0 l 104 0 z "},"Í":{"ha":376,"x_min":92,"x_max":393,"o":"m 92 1072 l 185 1278 l 393 1278 l 214 1072 l 92 1072 m 104 0 l 104 989 l 272 989 l 272 0 l 104 0 z "},"Î":{"ha":376,"x_min":-56,"x_max":433,"o":"m -56 1079 l 110 1289 l 268 1289 l 433 1079 l 279 1079 l 189 1206 l 99 1079 l -56 1079 m 104 0 l 104 989 l 272 989 l 272 0 l 104 0 z "},"Ï":{"ha":376,"x_min":-40,"x_max":417,"o":"m -40 1097 l -40 1256 l 122 1256 l 122 1097 l -40 1097 m 254 1097 l 254 1256 l 417 1256 l 417 1097 l 254 1097 m 104 0 l 104 989 l 272 989 l 272 0 l 104 0 z "},"Ð":{"ha":1079,"x_min":38,"x_max":1018,"o":"m 565 989 q 906 860 793 989 q 1018 494 1018 731 q 904 131 1018 261 q 565 0 790 0 l 204 0 l 204 436 l 38 429 l 38 571 l 204 564 l 204 989 l 565 989 m 550 143 q 778 228 708 143 q 849 494 849 313 q 776 764 849 679 q 539 849 704 849 l 374 849 l 374 564 l 621 571 l 621 429 l 374 436 l 374 143 l 550 143 z "},"Ñ":{"ha":1000,"x_min":104,"x_max":896,"o":"m 404 1188 q 343 1093 346 1188 l 219 1093 q 265 1267 219 1211 q 388 1324 311 1324 q 474 1300 436 1324 q 540 1253 511 1276 q 596 1229 569 1229 q 657 1324 656 1229 l 781 1324 q 735 1149 781 1204 q 613 1093 690 1093 q 527 1117 564 1093 q 461 1164 490 1140 q 404 1188 432 1188 m 732 989 l 896 989 l 896 0 l 721 0 l 268 719 l 268 0 l 104 0 l 104 989 l 276 989 l 732 267 l 732 989 z "},"Ò":{"ha":1074,"x_min":68,"x_max":1006,"o":"m 507 1072 l 328 1278 l 535 1278 l 628 1072 l 507 1072 m 535 -28 q 199 117 331 -28 q 68 496 68 263 q 199 868 68 726 q 535 1010 331 1010 q 873 867 740 1010 q 1006 496 1006 725 q 873 117 1006 263 q 535 -28 740 -28 m 536 119 q 753 222 671 119 q 836 496 836 325 q 753 762 836 661 q 536 863 671 863 q 319 762 401 863 q 238 496 238 661 q 319 222 238 325 q 536 119 400 119 z "},"Ó":{"ha":1074,"x_min":68,"x_max":1006,"o":"m 439 1072 l 532 1278 l 740 1278 l 561 1072 l 439 1072 m 535 -28 q 199 117 331 -28 q 68 496 68 263 q 199 868 68 726 q 535 1010 331 1010 q 873 867 740 1010 q 1006 496 1006 725 q 873 117 1006 263 q 535 -28 740 -28 m 536 119 q 753 222 671 119 q 836 496 836 325 q 753 762 836 661 q 536 863 671 863 q 319 762 401 863 q 238 496 238 661 q 319 222 238 325 q 536 119 400 119 z "},"Ô":{"ha":1074,"x_min":68,"x_max":1006,"o":"m 292 1079 l 457 1289 l 615 1289 l 781 1079 l 626 1079 l 536 1206 l 446 1079 l 292 1079 m 535 -28 q 199 117 331 -28 q 68 496 68 263 q 199 868 68 726 q 535 1010 331 1010 q 873 867 740 1010 q 1006 496 1006 725 q 873 117 1006 263 q 535 -28 740 -28 m 536 119 q 753 222 671 119 q 836 496 836 325 q 753 762 836 661 q 536 863 671 863 q 319 762 401 863 q 238 496 238 661 q 319 222 238 325 q 536 119 400 119 z "},"Õ":{"ha":1074,"x_min":68,"x_max":1006,"o":"m 256 1093 q 301 1267 256 1211 q 424 1324 347 1324 q 510 1300 472 1324 q 576 1253 547 1276 q 632 1229 606 1229 q 693 1324 692 1229 l 817 1324 q 772 1149 817 1204 q 649 1093 726 1093 q 563 1117 600 1093 q 497 1164 526 1140 q 440 1188 468 1188 q 379 1093 382 1188 l 256 1093 m 535 -28 q 199 117 331 -28 q 68 496 68 263 q 199 868 68 726 q 535 1010 331 1010 q 873 867 740 1010 q 1006 496 1006 725 q 873 117 1006 263 q 535 -28 740 -28 m 536 119 q 753 222 671 119 q 836 496 836 325 q 753 762 836 661 q 536 863 671 863 q 319 762 401 863 q 238 496 238 661 q 319 222 238 325 q 536 119 400 119 z "},"Ö":{"ha":1074,"x_min":68,"x_max":1006,"o":"m 307 1097 l 307 1256 l 469 1256 l 469 1097 l 307 1097 m 603 1097 l 603 1256 l 765 1256 l 765 1097 l 603 1097 m 535 -28 q 199 117 331 -28 q 68 496 68 263 q 199 868 68 726 q 535 1010 331 1010 q 873 867 740 1010 q 1006 496 1006 725 q 873 117 1006 263 q 535 -28 740 -28 m 536 119 q 753 222 671 119 q 836 496 836 325 q 753 762 836 661 q 536 863 671 863 q 319 762 401 863 q 238 496 238 661 q 319 222 238 325 q 536 119 400 119 z "},"×":{"ha":903,"x_min":96,"x_max":838,"o":"m 192 60 l 96 157 l 369 432 l 96 706 l 190 801 l 465 526 l 742 801 l 838 706 l 563 432 l 838 156 l 740 60 l 465 335 l 192 60 z "},"Ø":{"ha":1074,"x_min":68,"x_max":1006,"o":"m 897 840 q 1006 496 1006 701 q 873 117 1006 263 q 535 -28 740 -28 q 267 57 383 -28 l 186 -44 l 100 22 l 188 131 q 68 496 68 276 q 199 868 68 726 q 535 1010 331 1010 q 819 917 699 1010 l 901 1019 l 988 953 l 897 840 m 238 496 q 293 261 238 357 l 721 796 q 536 863 646 863 q 319 762 401 863 q 238 496 238 661 m 536 119 q 753 222 671 119 q 836 496 836 325 q 790 707 836 615 l 364 176 q 536 119 439 119 z "},"Ù":{"ha":974,"x_min":104,"x_max":869,"o":"m 457 1072 l 278 1278 l 485 1278 l 578 1072 l 457 1072 m 769 60 q 718 16 769 60 q 486 -28 668 -28 q 204 60 304 -28 q 104 308 104 147 l 104 989 l 272 989 l 272 304 q 488 119 272 119 q 701 304 701 119 l 701 989 l 869 989 l 869 308 q 769 60 869 147 z "},"Ú":{"ha":974,"x_min":104,"x_max":869,"o":"m 390 1072 l 483 1278 l 692 1278 l 513 1072 l 390 1072 m 769 60 q 718 16 769 60 q 486 -28 668 -28 q 204 60 304 -28 q 104 308 104 147 l 104 989 l 272 989 l 272 304 q 488 119 272 119 q 701 304 701 119 l 701 989 l 869 989 l 869 308 q 769 60 869 147 z "},"Û":{"ha":974,"x_min":104,"x_max":869,"o":"m 243 1079 l 408 1289 l 567 1289 l 732 1079 l 578 1079 l 488 1206 l 397 1079 l 243 1079 m 769 60 q 718 16 769 60 q 486 -28 668 -28 q 204 60 304 -28 q 104 308 104 147 l 104 989 l 272 989 l 272 304 q 488 119 272 119 q 701 304 701 119 l 701 989 l 869 989 l 869 308 q 769 60 869 147 z "},"Ü":{"ha":974,"x_min":104,"x_max":869,"o":"m 258 1097 l 258 1256 l 421 1256 l 421 1097 l 258 1097 m 554 1097 l 554 1256 l 717 1256 l 717 1097 l 554 1097 m 769 60 q 718 16 769 60 q 486 -28 668 -28 q 204 60 304 -28 q 104 308 104 147 l 104 989 l 272 989 l 272 304 q 488 119 272 119 q 701 304 701 119 l 701 989 l 869 989 l 869 308 q 769 60 869 147 z "},"Ý":{"ha":931,"x_min":26,"x_max":903,"o":"m 669 1278 l 490 1072 l 368 1072 l 461 1278 l 669 1278 m 718 989 l 903 989 l 553 394 l 553 0 l 385 0 l 385 394 l 26 989 l 218 989 l 419 633 l 469 526 l 518 633 l 718 989 z "},"Þ":{"ha":875,"x_min":104,"x_max":835,"o":"m 504 821 q 747 742 660 821 q 835 519 835 663 q 746 292 835 375 q 493 210 657 210 l 272 210 l 272 0 l 104 0 l 104 989 l 272 989 l 272 821 l 504 821 m 485 353 q 623 396 575 353 q 671 517 671 439 q 625 635 671 593 q 493 676 579 676 l 272 676 l 272 353 l 485 353 z "},"ß":{"ha":829,"x_min":97,"x_max":774,"o":"m 97 0 l 97 710 q 175 933 97 861 q 407 1006 253 1006 q 648 937 568 1006 q 728 757 728 868 q 586 551 728 601 l 586 549 q 774 296 774 496 q 684 78 774 156 q 438 0 594 0 l 371 0 l 371 131 l 432 131 q 608 299 608 131 q 431 465 608 465 l 371 465 l 371 596 l 411 596 q 525 632 485 596 q 565 736 565 668 q 526 839 565 801 q 410 876 488 876 q 260 732 260 876 l 260 0 l 97 0 z "},"à":{"ha":781,"x_min":53,"x_max":714,"o":"m 481 800 l 360 800 l 181 1006 l 388 1006 l 481 800 m 714 0 l 550 0 q 532 83 543 28 q 297 -19 451 -19 q 119 38 185 -19 q 53 194 53 96 q 283 414 53 375 l 507 451 q 526 457 521 454 l 526 519 q 385 614 526 614 q 282 588 317 614 q 240 503 247 563 l 88 504 q 389 735 108 735 q 685 488 685 735 l 685 165 q 714 0 685 86 m 338 103 q 472 149 417 103 q 526 268 526 196 l 526 343 l 328 308 q 213 203 213 288 q 246 129 213 156 q 338 103 279 103 z "},"á":{"ha":781,"x_min":53,"x_max":714,"o":"m 594 1006 l 415 800 l 293 800 l 386 1006 l 594 1006 m 714 0 l 550 0 q 532 83 543 28 q 297 -19 451 -19 q 119 38 185 -19 q 53 194 53 96 q 283 414 53 375 l 507 451 q 526 457 521 454 l 526 519 q 385 614 526 614 q 282 588 317 614 q 240 503 247 563 l 88 504 q 389 735 108 735 q 685 488 685 735 l 685 165 q 714 0 685 86 m 338 103 q 472 149 417 103 q 526 268 526 196 l 526 343 l 328 308 q 213 203 213 288 q 246 129 213 156 q 338 103 279 103 z "},"â":{"ha":781,"x_min":53,"x_max":714,"o":"m 390 933 l 300 807 l 146 807 l 311 1017 l 469 1017 l 635 807 l 481 807 l 390 933 m 714 0 l 550 0 q 532 83 543 28 q 297 -19 451 -19 q 119 38 185 -19 q 53 194 53 96 q 283 414 53 375 l 507 451 q 526 457 521 454 l 526 519 q 385 614 526 614 q 282 588 317 614 q 240 503 247 563 l 88 504 q 389 735 108 735 q 685 488 685 735 l 685 165 q 714 0 685 86 m 338 103 q 472 149 417 103 q 526 268 526 196 l 526 343 l 328 308 q 213 203 213 288 q 246 129 213 156 q 338 103 279 103 z "},"ã":{"ha":781,"x_min":53,"x_max":714,"o":"m 294 915 q 233 821 236 915 l 110 821 q 156 995 110 939 q 278 1051 201 1051 q 364 1028 326 1051 q 431 981 401 1004 q 486 957 460 957 q 547 1051 546 957 l 671 1051 q 626 876 671 932 q 503 821 581 821 q 417 844 454 821 q 351 892 381 868 q 294 915 322 915 m 714 0 l 550 0 q 532 83 543 28 q 297 -19 451 -19 q 119 38 185 -19 q 53 194 53 96 q 283 414 53 375 l 507 451 q 526 457 521 454 l 526 519 q 385 614 526 614 q 282 588 317 614 q 240 503 247 563 l 88 504 q 389 735 108 735 q 685 488 685 735 l 685 165 q 714 0 685 86 m 338 103 q 472 149 417 103 q 526 268 526 196 l 526 343 l 328 308 q 213 203 213 288 q 246 129 213 156 q 338 103 279 103 z "},"ä":{"ha":781,"x_min":53,"x_max":714,"o":"m 324 989 l 324 831 l 161 831 l 161 989 l 324 989 m 619 989 l 619 831 l 457 831 l 457 989 l 619 989 m 714 0 l 550 0 q 532 83 543 28 q 297 -19 451 -19 q 119 38 185 -19 q 53 194 53 96 q 283 414 53 375 l 507 451 q 526 457 521 454 l 526 519 q 385 614 526 614 q 282 588 317 614 q 240 503 247 563 l 88 504 q 389 735 108 735 q 685 488 685 735 l 685 165 q 714 0 685 86 m 338 103 q 472 149 417 103 q 526 268 526 196 l 526 343 l 328 308 q 213 203 213 288 q 246 129 213 156 q 338 103 279 103 z "},"å":{"ha":781,"x_min":53,"x_max":714,"o":"m 533 858 q 505 831 533 858 q 390 803 476 803 q 248 858 304 803 q 192 1000 192 914 q 248 1143 192 1086 q 390 1200 304 1200 q 533 1143 476 1200 q 589 1000 589 1086 q 533 858 589 914 m 462 1075 q 448 1089 462 1075 q 390 1103 433 1103 q 319 1075 347 1103 q 290 1000 290 1047 q 319 928 290 956 q 390 900 347 900 q 462 928 433 900 q 490 1000 490 956 q 462 1075 490 1047 m 714 0 l 550 0 q 532 83 543 28 q 297 -19 451 -19 q 119 38 185 -19 q 53 194 53 96 q 283 414 53 375 l 507 451 q 526 457 521 454 l 526 519 q 385 614 526 614 q 282 588 317 614 q 240 503 247 563 l 88 504 q 389 735 108 735 q 685 488 685 735 l 685 165 q 714 0 685 86 m 338 103 q 472 149 417 103 q 526 268 526 196 l 526 343 l 328 308 q 213 203 213 288 q 246 129 213 156 q 338 103 279 103 z "},"æ":{"ha":1271,"x_min":53,"x_max":1215,"o":"m 1215 354 l 1215 313 l 686 313 q 743 161 692 214 q 879 108 794 108 q 1046 224 1003 108 l 1201 206 q 1082 38 1167 96 q 879 -21 997 -21 q 597 129 683 -21 q 317 -19 511 -19 q 123 41 193 -19 q 53 201 53 101 q 118 357 53 296 q 319 418 183 418 l 526 418 l 526 494 q 381 614 526 614 q 281 588 315 614 q 240 503 247 563 l 88 504 q 382 735 108 735 q 629 628 565 735 q 881 735 718 735 q 1126 633 1038 735 q 1215 354 1215 532 m 871 610 q 744 560 793 610 q 688 418 694 511 l 1053 418 q 997 560 1043 511 q 871 610 950 610 m 339 103 q 472 152 418 103 q 526 282 526 201 l 526 313 l 340 308 q 243 278 274 307 q 213 206 213 250 q 247 131 213 158 q 339 103 281 103 z "},"ç":{"ha":767,"x_min":57,"x_max":717,"o":"m 400 110 q 560 249 529 110 l 717 249 q 624 60 697 129 q 431 -19 550 -10 l 383 -92 l 406 -92 q 507 -124 469 -92 q 544 -214 544 -156 q 492 -318 544 -281 q 350 -356 440 -356 l 294 -356 l 294 -272 l 336 -272 q 417 -225 417 -272 q 368 -185 417 -185 l 324 -185 l 279 -117 l 342 -18 q 133 97 210 -1 q 57 354 57 194 q 149 633 57 531 q 399 735 240 735 q 614 667 531 735 q 717 474 697 599 l 560 474 q 401 604 529 604 q 264 540 311 604 q 217 357 217 476 q 265 174 217 239 q 400 110 313 110 z "},"è":{"ha":807,"x_min":57,"x_max":751,"o":"m 497 800 l 376 800 l 197 1006 l 404 1006 l 497 800 m 751 354 l 751 314 l 222 314 q 278 162 228 215 q 415 108 329 108 q 582 225 539 108 l 738 211 q 620 39 704 99 q 415 -21 536 -21 q 153 86 249 -21 q 57 361 57 193 q 150 630 57 525 q 403 735 243 735 q 656 633 560 735 q 751 354 751 531 m 532 563 q 508 586 532 563 q 407 610 485 610 q 280 562 329 610 q 224 426 231 514 l 589 426 q 532 563 579 515 z "},"é":{"ha":807,"x_min":57,"x_max":751,"o":"m 610 1006 l 431 800 l 308 800 l 401 1006 l 610 1006 m 751 354 l 751 314 l 222 314 q 278 162 228 215 q 415 108 329 108 q 582 225 539 108 l 738 211 q 620 39 704 99 q 415 -21 536 -21 q 153 86 249 -21 q 57 361 57 193 q 150 630 57 525 q 403 735 243 735 q 656 633 560 735 q 751 354 751 531 m 532 563 q 508 586 532 563 q 407 610 485 610 q 280 562 329 610 q 224 426 231 514 l 589 426 q 532 563 579 515 z "},"ê":{"ha":807,"x_min":57,"x_max":751,"o":"m 406 933 l 315 807 l 161 807 l 326 1017 l 485 1017 l 650 807 l 496 807 l 406 933 m 751 354 l 751 314 l 222 314 q 278 162 228 215 q 415 108 329 108 q 582 225 539 108 l 738 211 q 620 39 704 99 q 415 -21 536 -21 q 153 86 249 -21 q 57 361 57 193 q 150 630 57 525 q 403 735 243 735 q 656 633 560 735 q 751 354 751 531 m 532 563 q 508 586 532 563 q 407 610 485 610 q 280 562 329 610 q 224 426 231 514 l 589 426 q 532 563 579 515 z "},"ë":{"ha":807,"x_min":57,"x_max":751,"o":"m 339 989 l 339 831 l 176 831 l 176 989 l 339 989 m 635 989 l 635 831 l 472 831 l 472 989 l 635 989 m 751 354 l 751 314 l 222 314 q 278 162 228 215 q 415 108 329 108 q 582 225 539 108 l 738 211 q 620 39 704 99 q 415 -21 536 -21 q 153 86 249 -21 q 57 361 57 193 q 150 630 57 525 q 403 735 243 735 q 656 633 560 735 q 751 354 751 531 m 532 563 q 508 586 532 563 q 407 610 485 610 q 280 562 329 610 q 224 426 231 514 l 589 426 q 532 563 579 515 z "},"ì":{"ha":357,"x_min":-31,"x_max":269,"o":"m 149 800 l -31 1006 l 176 1006 l 269 800 l 149 800 m 97 0 l 97 717 l 260 717 l 260 0 l 97 0 z "},"í":{"ha":357,"x_min":82,"x_max":383,"o":"m 82 800 l 175 1006 l 383 1006 l 204 800 l 82 800 m 97 0 l 97 717 l 260 717 l 260 0 l 97 0 z "},"î":{"ha":357,"x_min":-65,"x_max":424,"o":"m -65 807 l 100 1017 l 258 1017 l 424 807 l 269 807 l 179 933 l 89 807 l -65 807 m 97 0 l 97 717 l 260 717 l 260 0 l 97 0 z "},"ï":{"ha":357,"x_min":-28,"x_max":385,"o":"m -28 831 l -28 989 l 118 989 l 118 831 l -28 831 m 232 831 l 232 989 l 385 989 l 385 831 l 232 831 m 97 0 l 97 717 l 260 717 l 260 0 l 97 0 z "},"ð":{"ha":793,"x_min":57,"x_max":738,"o":"m 504 858 q 738 360 738 650 q 644 78 738 178 q 390 -22 551 -22 q 147 69 236 -22 q 57 310 57 161 q 140 542 57 450 q 358 635 224 635 q 556 561 482 635 q 390 786 514 682 l 261 692 l 196 779 l 307 847 q 186 913 247 885 l 249 1022 q 421 925 339 982 l 583 1046 l 654 946 l 504 858 m 579 346 l 579 364 q 515 465 568 425 q 390 504 461 504 q 262 450 307 504 q 217 310 217 396 q 265 165 217 221 q 396 108 313 108 q 529 168 479 108 q 579 346 579 228 z "},"ñ":{"ha":814,"x_min":97,"x_max":717,"o":"m 318 915 q 257 821 260 915 l 133 821 q 179 995 133 939 q 301 1051 225 1051 q 388 1028 350 1051 q 454 981 425 1004 q 510 957 483 957 q 571 1051 569 957 l 694 1051 q 649 876 694 932 q 526 821 604 821 q 441 844 478 821 q 375 892 404 868 q 318 915 346 915 m 478 735 q 653 669 590 735 q 717 489 717 604 l 717 0 l 554 0 l 554 454 q 431 590 554 590 q 308 540 357 590 q 260 390 260 489 l 260 0 l 97 0 l 97 717 l 253 717 l 256 617 q 478 735 331 735 z "},"ò":{"ha":825,"x_min":57,"x_max":769,"o":"m 385 800 l 206 1006 l 413 1006 l 506 800 l 385 800 m 669 86 q 619 33 669 86 q 413 -21 569 -21 q 156 85 256 -21 q 57 357 57 190 q 157 630 57 525 q 415 735 257 735 q 671 631 572 735 q 769 360 769 526 q 669 86 769 193 m 413 110 q 558 178 506 110 q 611 360 611 246 q 558 539 611 474 q 413 604 506 604 q 269 538 321 604 q 217 357 217 471 q 269 177 217 244 q 413 110 322 110 z "},"ó":{"ha":825,"x_min":57,"x_max":769,"o":"m 318 800 l 411 1006 l 619 1006 l 440 800 l 318 800 m 669 86 q 619 33 669 86 q 413 -21 569 -21 q 156 85 256 -21 q 57 357 57 190 q 157 630 57 525 q 415 735 257 735 q 671 631 572 735 q 769 360 769 526 q 669 86 769 193 m 413 110 q 558 178 506 110 q 611 360 611 246 q 558 539 611 474 q 413 604 506 604 q 269 538 321 604 q 217 357 217 471 q 269 177 217 244 q 413 110 322 110 z "},"ô":{"ha":825,"x_min":57,"x_max":769,"o":"m 171 807 l 336 1017 l 494 1017 l 660 807 l 506 807 l 415 933 l 325 807 l 171 807 m 669 86 q 619 33 669 86 q 413 -21 569 -21 q 156 85 256 -21 q 57 357 57 190 q 157 630 57 525 q 415 735 257 735 q 671 631 572 735 q 769 360 769 526 q 669 86 769 193 m 413 110 q 558 178 506 110 q 611 360 611 246 q 558 539 611 474 q 413 604 506 604 q 269 538 321 604 q 217 357 217 471 q 269 177 217 244 q 413 110 322 110 z "},"õ":{"ha":825,"x_min":57,"x_max":769,"o":"m 135 821 q 181 995 135 939 q 303 1051 226 1051 q 389 1028 351 1051 q 456 981 426 1004 q 511 957 485 957 q 572 1051 571 957 l 696 1051 q 651 876 696 932 q 528 821 606 821 q 442 844 479 821 q 376 892 406 868 q 319 915 347 915 q 258 821 261 915 l 135 821 m 669 86 q 619 33 669 86 q 413 -21 569 -21 q 156 85 256 -21 q 57 357 57 190 q 157 630 57 525 q 415 735 257 735 q 671 631 572 735 q 769 360 769 526 q 669 86 769 193 m 413 110 q 558 178 506 110 q 611 360 611 246 q 558 539 611 474 q 413 604 506 604 q 269 538 321 604 q 217 357 217 471 q 269 177 217 244 q 413 110 322 110 z "},"ö":{"ha":825,"x_min":57,"x_max":769,"o":"m 186 831 l 186 989 l 349 989 l 349 831 l 186 831 m 482 831 l 482 989 l 644 989 l 644 831 l 482 831 m 669 86 q 619 33 669 86 q 413 -21 569 -21 q 156 85 256 -21 q 57 357 57 190 q 157 630 57 525 q 415 735 257 735 q 671 631 572 735 q 769 360 769 526 q 669 86 769 193 m 413 110 q 558 178 506 110 q 611 360 611 246 q 558 539 611 474 q 413 604 506 604 q 269 538 321 604 q 217 357 217 471 q 269 177 217 244 q 413 110 322 110 z "},"÷":{"ha":903,"x_min":67,"x_max":865,"o":"m 379 617 l 379 794 l 554 794 l 554 617 l 379 617 m 67 354 l 67 501 l 865 501 l 865 354 l 67 354 m 379 61 l 379 239 l 554 239 l 554 61 l 379 61 z "},"ø":{"ha":825,"x_min":57,"x_max":769,"o":"m 694 603 q 769 360 769 501 q 669 86 769 193 q 413 -21 569 -21 q 207 42 293 -21 l 149 -25 l 69 40 l 133 113 q 57 357 57 215 q 157 630 57 525 q 415 735 257 735 q 619 674 532 735 l 676 739 l 756 674 l 694 603 m 217 357 q 238 233 217 288 l 528 568 q 413 604 481 604 q 269 538 321 604 q 217 357 217 471 m 413 110 q 558 178 506 110 q 611 360 611 246 q 590 483 611 431 l 299 147 q 413 110 347 110 z "},"ù":{"ha":814,"x_min":97,"x_max":717,"o":"m 497 800 l 376 800 l 197 1006 l 404 1006 l 497 800 m 554 717 l 717 717 l 717 0 l 561 0 l 558 100 q 336 -18 483 -18 q 160 47 224 -18 q 97 228 97 113 l 97 717 l 260 717 l 260 263 q 383 126 260 126 q 506 177 457 126 q 554 326 554 228 l 554 717 z "},"ú":{"ha":814,"x_min":97,"x_max":717,"o":"m 611 1006 l 432 800 l 310 800 l 403 1006 l 611 1006 m 554 717 l 717 717 l 717 0 l 561 0 l 558 100 q 336 -18 483 -18 q 160 47 224 -18 q 97 228 97 113 l 97 717 l 260 717 l 260 263 q 383 126 260 126 q 506 177 457 126 q 554 326 554 228 l 554 717 z "},"û":{"ha":814,"x_min":97,"x_max":717,"o":"m 407 933 l 317 807 l 163 807 l 328 1017 l 486 1017 l 651 807 l 497 807 l 407 933 m 554 717 l 717 717 l 717 0 l 561 0 l 558 100 q 336 -18 483 -18 q 160 47 224 -18 q 97 228 97 113 l 97 717 l 260 717 l 260 263 q 383 126 260 126 q 506 177 457 126 q 554 326 554 228 l 554 717 z "},"ü":{"ha":814,"x_min":97,"x_max":717,"o":"m 340 989 l 340 831 l 178 831 l 178 989 l 340 989 m 636 989 l 636 831 l 474 831 l 474 989 l 636 989 m 554 717 l 717 717 l 717 0 l 561 0 l 558 100 q 336 -18 483 -18 q 160 47 224 -18 q 97 228 97 113 l 97 717 l 260 717 l 260 263 q 383 126 260 126 q 506 177 457 126 q 554 326 554 228 l 554 717 z "},"ý":{"ha":761,"x_min":28,"x_max":733,"o":"m 588 1006 l 408 800 l 286 800 l 379 1006 l 588 1006 m 563 717 l 733 717 l 424 -133 q 348 -251 393 -219 q 224 -283 303 -283 l 100 -283 l 100 -146 l 182 -146 q 251 -129 228 -146 q 292 -68 275 -112 l 311 -15 l 28 717 l 206 717 l 364 269 l 383 172 l 563 717 z "},"þ":{"ha":829,"x_min":97,"x_max":774,"o":"m 472 733 q 689 634 604 733 q 774 368 774 535 q 688 89 774 197 q 463 -19 603 -19 q 260 76 333 -19 l 260 -283 l 97 -283 l 97 989 l 260 989 l 260 638 q 472 733 333 733 m 435 122 q 565 190 515 122 q 614 368 614 257 q 565 537 614 476 q 435 597 517 597 q 302 535 353 597 q 251 364 251 474 q 302 188 251 254 q 435 122 353 122 z "},"ÿ":{"ha":761,"x_min":28,"x_max":733,"o":"m 317 989 l 317 831 l 154 831 l 154 989 l 317 989 m 613 989 l 613 831 l 450 831 l 450 989 l 613 989 m 563 717 l 733 717 l 424 -133 q 348 -251 393 -219 q 224 -283 303 -283 l 100 -283 l 100 -146 l 182 -146 q 251 -129 228 -146 q 292 -68 275 -112 l 311 -15 l 28 717 l 206 717 l 364 269 l 383 172 l 563 717 z "},"Ā":{"ha":997,"x_min":38,"x_max":958,"o":"m 743 1240 l 743 1118 l 268 1118 l 268 1240 l 743 1240 m 776 0 l 690 247 l 304 247 l 217 0 l 38 0 l 404 989 l 597 989 l 958 0 l 776 0 m 354 389 l 642 389 l 557 635 l 499 829 l 440 635 l 354 389 z "},"ā":{"ha":781,"x_min":53,"x_max":714,"o":"m 628 968 l 628 846 l 153 846 l 153 968 l 628 968 m 714 0 l 550 0 q 532 83 543 28 q 297 -19 451 -19 q 119 38 185 -19 q 53 194 53 96 q 283 414 53 375 l 507 451 q 526 457 521 454 l 526 519 q 385 614 526 614 q 282 588 317 614 q 240 503 247 563 l 88 504 q 389 735 108 735 q 685 488 685 735 l 685 165 q 714 0 685 86 m 338 103 q 472 149 417 103 q 526 268 526 196 l 526 343 l 328 308 q 213 203 213 288 q 246 129 213 156 q 338 103 279 103 z "},"Ă":{"ha":997,"x_min":38,"x_max":958,"o":"m 504 1074 q 329 1127 383 1074 q 271 1282 275 1181 l 374 1282 q 506 1181 378 1181 q 638 1282 633 1181 l 740 1282 q 504 1074 731 1074 m 776 0 l 690 247 l 304 247 l 217 0 l 38 0 l 404 989 l 597 989 l 958 0 l 776 0 m 354 389 l 642 389 l 557 635 l 499 829 l 440 635 l 354 389 z "},"ă":{"ha":781,"x_min":53,"x_max":714,"o":"m 389 801 q 214 855 268 801 q 156 1010 160 908 l 258 1010 q 390 907 263 907 q 522 1010 518 907 l 625 1010 q 389 801 615 801 m 714 0 l 550 0 q 532 83 543 28 q 297 -19 451 -19 q 119 38 185 -19 q 53 194 53 96 q 283 414 53 375 l 507 451 q 526 457 521 454 l 526 519 q 385 614 526 614 q 282 588 317 614 q 240 503 247 563 l 88 504 q 389 735 108 735 q 685 488 685 735 l 685 165 q 714 0 685 86 m 338 103 q 472 149 417 103 q 526 268 526 196 l 526 343 l 328 308 q 213 203 213 288 q 246 129 213 156 q 338 103 279 103 z "},"Ą":{"ha":997,"x_min":38,"x_max":958,"o":"m 826 -135 q 903 -187 826 -187 l 950 -187 l 950 -293 l 853 -293 q 679 -168 679 -293 q 706 -88 679 -124 q 796 -12 732 -53 l 817 0 l 776 0 l 690 247 l 304 247 l 217 0 l 38 0 l 404 989 l 597 989 l 958 0 l 876 -61 q 826 -135 826 -99 m 354 389 l 642 389 l 557 635 l 499 829 l 440 635 l 354 389 z "},"ą":{"ha":781,"x_min":53,"x_max":714,"o":"m 582 -135 q 658 -187 582 -187 l 706 -187 l 706 -293 l 608 -293 q 435 -168 435 -293 q 461 -89 435 -125 q 551 -12 488 -53 l 554 -11 q 532 83 538 54 q 297 -19 451 -19 q 119 38 185 -19 q 53 194 53 96 q 283 414 53 375 l 507 451 q 526 457 521 454 l 526 519 q 385 614 526 614 q 282 588 317 614 q 240 503 247 563 l 88 504 q 389 735 108 735 q 685 488 685 735 l 685 165 q 714 0 685 86 l 632 -61 q 582 -135 582 -99 m 338 103 q 472 149 417 103 q 526 268 526 196 l 526 343 l 328 308 q 213 203 213 288 q 246 129 213 156 q 338 103 279 103 z "},"Ć":{"ha":989,"x_min":68,"x_max":940,"o":"m 422 1072 l 515 1278 l 724 1278 l 544 1072 l 422 1072 m 522 -28 q 194 117 319 -28 q 68 494 68 261 q 194 868 68 726 q 522 1010 319 1010 q 804 919 692 1010 q 935 675 917 828 l 771 675 q 689 813 751 764 q 531 863 626 863 q 315 763 393 863 q 238 494 238 664 q 315 221 238 322 q 531 119 393 119 q 699 178 636 119 q 778 342 763 238 l 940 342 q 811 70 922 168 q 522 -28 700 -28 z "},"ć":{"ha":767,"x_min":57,"x_max":717,"o":"m 306 800 l 399 1006 l 607 1006 l 428 800 l 306 800 m 396 -21 q 148 78 239 -21 q 57 354 57 178 q 149 633 57 531 q 399 735 240 735 q 614 667 531 735 q 717 474 697 599 l 560 474 q 401 604 529 604 q 264 540 311 604 q 217 357 217 476 q 265 174 217 239 q 400 110 313 110 q 560 249 529 110 l 717 249 q 613 50 696 121 q 396 -21 531 -21 z "},"Ĉ":{"ha":989,"x_min":68,"x_max":940,"o":"m 275 1079 l 440 1289 l 599 1289 l 764 1079 l 610 1079 l 519 1206 l 429 1079 l 275 1079 m 522 -28 q 194 117 319 -28 q 68 494 68 261 q 194 868 68 726 q 522 1010 319 1010 q 804 919 692 1010 q 935 675 917 828 l 771 675 q 689 813 751 764 q 531 863 626 863 q 315 763 393 863 q 238 494 238 664 q 315 221 238 322 q 531 119 393 119 q 699 178 636 119 q 778 342 763 238 l 940 342 q 811 70 922 168 q 522 -28 700 -28 z "},"ĉ":{"ha":767,"x_min":57,"x_max":717,"o":"m 158 807 l 324 1017 l 482 1017 l 647 807 l 493 807 l 403 933 l 313 807 l 158 807 m 396 -21 q 148 78 239 -21 q 57 354 57 178 q 149 633 57 531 q 399 735 240 735 q 614 667 531 735 q 717 474 697 599 l 560 474 q 401 604 529 604 q 264 540 311 604 q 217 357 217 476 q 265 174 217 239 q 400 110 313 110 q 560 249 529 110 l 717 249 q 613 50 696 121 q 396 -21 531 -21 z "},"Ċ":{"ha":989,"x_min":68,"x_max":940,"o":"m 438 1097 l 438 1256 l 600 1256 l 600 1097 l 438 1097 m 522 -28 q 194 117 319 -28 q 68 494 68 261 q 194 868 68 726 q 522 1010 319 1010 q 804 919 692 1010 q 935 675 917 828 l 771 675 q 689 813 751 764 q 531 863 626 863 q 315 763 393 863 q 238 494 238 664 q 315 221 238 322 q 531 119 393 119 q 699 178 636 119 q 778 342 763 238 l 940 342 q 811 70 922 168 q 522 -28 700 -28 z "},"ċ":{"ha":767,"x_min":57,"x_max":717,"o":"m 321 831 l 321 989 l 483 989 l 483 831 l 321 831 m 396 -21 q 148 78 239 -21 q 57 354 57 178 q 149 633 57 531 q 399 735 240 735 q 614 667 531 735 q 717 474 697 599 l 560 474 q 401 604 529 604 q 264 540 311 604 q 217 357 217 476 q 265 174 217 239 q 400 110 313 110 q 560 249 529 110 l 717 249 q 613 50 696 121 q 396 -21 531 -21 z "},"Č":{"ha":989,"x_min":68,"x_max":940,"o":"m 440 1081 l 275 1290 l 429 1290 l 519 1164 l 610 1290 l 764 1290 l 599 1081 l 440 1081 m 522 -28 q 194 117 319 -28 q 68 494 68 261 q 194 868 68 726 q 522 1010 319 1010 q 804 919 692 1010 q 935 675 917 828 l 771 675 q 689 813 751 764 q 531 863 626 863 q 315 763 393 863 q 238 494 238 664 q 315 221 238 322 q 531 119 393 119 q 699 178 636 119 q 778 342 763 238 l 940 342 q 811 70 922 168 q 522 -28 700 -28 z "},"č":{"ha":767,"x_min":57,"x_max":717,"o":"m 324 800 l 158 1010 l 313 1010 l 403 883 l 493 1010 l 647 1010 l 482 800 l 324 800 m 396 -21 q 148 78 239 -21 q 57 354 57 178 q 149 633 57 531 q 399 735 240 735 q 614 667 531 735 q 717 474 697 599 l 560 474 q 401 604 529 604 q 264 540 311 604 q 217 357 217 476 q 265 174 217 239 q 400 110 313 110 q 560 249 529 110 l 717 249 q 613 50 696 121 q 396 -21 531 -21 z "},"Ď":{"ha":979,"x_min":104,"x_max":917,"o":"m 558 1081 l 400 1081 l 235 1290 l 389 1290 l 479 1164 l 569 1290 l 724 1290 l 558 1081 m 464 989 q 804 860 692 989 q 917 494 917 731 q 803 131 917 261 q 465 0 690 0 l 104 0 l 104 989 l 464 989 m 449 143 q 677 228 607 143 q 747 494 747 313 q 675 764 747 679 q 438 849 603 849 l 272 849 l 272 143 l 449 143 z "},"ď":{"ha":1108,"x_min":57,"x_max":1108,"o":"m 571 638 l 571 989 l 733 989 l 733 0 l 590 0 l 588 101 q 368 -19 513 -19 q 142 88 228 -19 q 57 365 57 194 q 142 633 57 532 q 358 733 226 733 q 571 638 497 733 m 928 989 l 1108 989 l 985 700 l 861 700 l 928 989 m 396 122 q 528 188 476 122 q 579 364 579 254 q 528 535 579 474 q 396 597 478 597 q 265 536 314 597 q 217 365 217 475 q 265 188 217 254 q 396 122 314 122 z "},"Đ":{"ha":1079,"x_min":38,"x_max":1018,"o":"m 565 989 q 906 860 793 989 q 1018 494 1018 731 q 904 131 1018 261 q 565 0 790 0 l 204 0 l 204 436 l 38 429 l 38 571 l 204 564 l 204 989 l 565 989 m 550 143 q 778 228 708 143 q 849 494 849 313 q 776 764 849 679 q 539 849 704 849 l 374 849 l 374 564 l 621 571 l 621 429 l 374 436 l 374 143 l 550 143 z "},"đ":{"ha":888,"x_min":57,"x_max":874,"o":"m 874 929 l 874 803 l 733 807 l 733 0 l 590 0 l 588 101 q 368 -19 513 -19 q 142 88 228 -19 q 57 365 57 194 q 142 633 57 532 q 358 733 226 733 q 571 638 497 733 l 571 807 l 379 803 l 379 929 l 571 925 l 571 1003 l 733 1003 l 733 925 l 874 929 m 396 122 q 528 188 476 122 q 579 364 579 254 q 528 535 579 474 q 396 597 478 597 q 265 536 314 597 q 217 365 217 475 q 265 188 217 254 q 396 122 314 122 z "},"Ē":{"ha":900,"x_min":104,"x_max":826,"o":"m 700 1240 l 700 1118 l 225 1118 l 225 1240 l 700 1240 m 272 143 l 826 143 l 826 0 l 104 0 l 104 989 l 814 989 l 814 846 l 272 846 l 272 583 l 765 583 l 765 439 l 272 439 l 272 143 z "},"ē":{"ha":807,"x_min":57,"x_max":751,"o":"m 643 968 l 643 846 l 168 846 l 168 968 l 643 968 m 751 354 l 751 314 l 222 314 q 278 162 228 215 q 415 108 329 108 q 582 225 539 108 l 738 211 q 620 39 704 99 q 415 -21 536 -21 q 153 86 249 -21 q 57 361 57 193 q 150 630 57 525 q 403 735 243 735 q 656 633 560 735 q 751 354 751 531 m 532 563 q 508 586 532 563 q 407 610 485 610 q 280 562 329 610 q 224 426 231 514 l 589 426 q 532 563 579 515 z "},"Ĕ":{"ha":900,"x_min":104,"x_max":826,"o":"m 461 1074 q 286 1127 340 1074 q 228 1282 232 1181 l 331 1282 q 463 1181 335 1181 q 594 1282 590 1181 l 697 1282 q 461 1074 688 1074 m 272 143 l 826 143 l 826 0 l 104 0 l 104 989 l 814 989 l 814 846 l 272 846 l 272 583 l 765 583 l 765 439 l 272 439 l 272 143 z "},"ĕ":{"ha":807,"x_min":57,"x_max":751,"o":"m 404 801 q 229 855 283 801 q 171 1010 175 908 l 274 1010 q 406 907 278 907 q 538 1010 533 907 l 640 1010 q 404 801 631 801 m 751 354 l 751 314 l 222 314 q 278 162 228 215 q 415 108 329 108 q 582 225 539 108 l 738 211 q 620 39 704 99 q 415 -21 536 -21 q 153 86 249 -21 q 57 361 57 193 q 150 630 57 525 q 403 735 243 735 q 656 633 560 735 q 751 354 751 531 m 532 563 q 508 586 532 563 q 407 610 485 610 q 280 562 329 610 q 224 426 231 514 l 589 426 q 532 563 579 515 z "},"Ė":{"ha":900,"x_min":104,"x_max":826,"o":"m 543 1256 l 543 1097 l 381 1097 l 381 1256 l 543 1256 m 272 143 l 826 143 l 826 0 l 104 0 l 104 989 l 814 989 l 814 846 l 272 846 l 272 583 l 765 583 l 765 439 l 272 439 l 272 143 z "},"ė":{"ha":807,"x_min":57,"x_max":751,"o":"m 486 989 l 486 831 l 324 831 l 324 989 l 486 989 m 751 354 l 751 314 l 222 314 q 278 162 228 215 q 415 108 329 108 q 582 225 539 108 l 738 211 q 620 39 704 99 q 415 -21 536 -21 q 153 86 249 -21 q 57 361 57 193 q 150 630 57 525 q 403 735 243 735 q 656 633 560 735 q 751 354 751 531 m 532 563 q 508 586 532 563 q 407 610 485 610 q 280 562 329 610 q 224 426 231 514 l 589 426 q 532 563 579 515 z "},"Ę":{"ha":900,"x_min":104,"x_max":826,"o":"m 744 -61 q 694 -135 694 -99 q 771 -187 694 -187 l 818 -187 l 818 -293 l 721 -293 q 547 -168 547 -293 q 574 -88 547 -124 q 664 -12 600 -53 l 685 0 l 104 0 l 104 989 l 814 989 l 814 846 l 272 846 l 272 583 l 765 583 l 765 439 l 272 439 l 272 143 l 826 143 l 826 0 l 744 -61 z "},"ę":{"ha":807,"x_min":57,"x_max":751,"o":"m 751 354 l 751 314 l 222 314 q 278 162 228 215 q 415 108 329 108 q 582 225 539 108 l 738 211 q 557 6 694 60 l 482 -51 q 432 -125 432 -89 q 508 -178 432 -178 l 556 -178 l 556 -283 l 458 -283 q 285 -158 285 -283 q 376 -19 285 -83 q 142 99 226 -6 q 57 361 57 203 q 150 630 57 525 q 403 735 243 735 q 656 633 560 735 q 751 354 751 531 m 532 563 q 508 586 532 563 q 407 610 485 610 q 280 562 329 610 q 224 426 231 514 l 589 426 q 532 563 579 515 z "},"Ě":{"ha":900,"x_min":104,"x_max":826,"o":"m 542 1081 l 383 1081 l 218 1290 l 372 1290 l 463 1164 l 553 1290 l 707 1290 l 542 1081 m 272 143 l 826 143 l 826 0 l 104 0 l 104 989 l 814 989 l 814 846 l 272 846 l 272 583 l 765 583 l 765 439 l 272 439 l 272 143 z "},"ě":{"ha":807,"x_min":57,"x_max":751,"o":"m 485 800 l 326 800 l 161 1010 l 315 1010 l 406 883 l 496 1010 l 650 1010 l 485 800 m 751 354 l 751 314 l 222 314 q 278 162 228 215 q 415 108 329 108 q 582 225 539 108 l 738 211 q 620 39 704 99 q 415 -21 536 -21 q 153 86 249 -21 q 57 361 57 193 q 150 630 57 525 q 403 735 243 735 q 656 633 560 735 q 751 354 751 531 m 532 563 q 508 586 532 563 q 407 610 485 610 q 280 562 329 610 q 224 426 231 514 l 589 426 q 532 563 579 515 z "},"Ĝ":{"ha":1075,"x_min":68,"x_max":971,"o":"m 540 1206 l 450 1079 l 296 1079 l 461 1289 l 619 1289 l 785 1079 l 631 1079 l 540 1206 m 971 532 l 971 0 l 857 0 l 825 122 q 528 -22 731 -22 q 198 119 328 -22 q 68 496 68 260 q 197 870 68 731 q 538 1010 325 1010 q 824 925 713 1010 q 958 690 935 840 l 794 679 q 711 817 778 769 q 546 864 644 864 q 318 765 399 864 q 238 494 238 665 q 318 222 238 324 q 540 119 399 119 q 727 186 653 119 q 819 372 801 253 l 819 389 l 551 389 l 551 532 l 971 532 z "},"ĝ":{"ha":833,"x_min":57,"x_max":738,"o":"m 382 933 l 292 807 l 138 807 l 303 1017 l 461 1017 l 626 807 l 472 807 l 382 933 m 590 717 l 738 717 l 738 7 q 648 -223 738 -146 q 399 -300 558 -300 q 176 -242 258 -300 q 82 -74 94 -185 l 235 -74 q 397 -176 256 -176 q 535 -134 493 -176 q 576 0 576 -92 l 576 94 q 367 -7 501 -7 q 142 98 228 -7 q 57 371 57 203 q 143 635 57 536 q 365 733 229 733 q 588 615 517 733 l 590 717 m 396 132 q 528 197 476 132 q 579 369 579 261 q 528 539 579 478 q 396 600 478 600 q 265 539 314 600 q 217 371 217 478 q 265 197 217 261 q 396 132 314 132 z "},"Ğ":{"ha":1075,"x_min":68,"x_max":971,"o":"m 539 1074 q 364 1127 418 1074 q 306 1282 310 1181 l 408 1282 q 540 1181 413 1181 q 672 1282 668 1181 l 775 1282 q 539 1074 765 1074 m 971 532 l 971 0 l 857 0 l 825 122 q 528 -22 731 -22 q 198 119 328 -22 q 68 496 68 260 q 197 870 68 731 q 538 1010 325 1010 q 824 925 713 1010 q 958 690 935 840 l 794 679 q 711 817 778 769 q 546 864 644 864 q 318 765 399 864 q 238 494 238 665 q 318 222 238 324 q 540 119 399 119 q 727 186 653 119 q 819 372 801 253 l 819 389 l 551 389 l 551 532 l 971 532 z "},"ğ":{"ha":833,"x_min":57,"x_max":738,"o":"m 381 801 q 206 855 260 801 q 147 1010 151 908 l 250 1010 q 382 907 254 907 q 514 1010 510 907 l 617 1010 q 381 801 607 801 m 590 717 l 738 717 l 738 7 q 648 -223 738 -146 q 399 -300 558 -300 q 176 -242 258 -300 q 82 -74 94 -185 l 235 -74 q 397 -176 256 -176 q 535 -134 493 -176 q 576 0 576 -92 l 576 94 q 367 -7 501 -7 q 142 98 228 -7 q 57 371 57 203 q 143 635 57 536 q 365 733 229 733 q 588 615 517 733 l 590 717 m 396 132 q 528 197 476 132 q 579 369 579 261 q 528 539 579 478 q 396 600 478 600 q 265 539 314 600 q 217 371 217 478 q 265 197 217 261 q 396 132 314 132 z "},"Ġ":{"ha":1075,"x_min":68,"x_max":971,"o":"m 621 1256 l 621 1097 l 458 1097 l 458 1256 l 621 1256 m 971 532 l 971 0 l 857 0 l 825 122 q 528 -22 731 -22 q 198 119 328 -22 q 68 496 68 260 q 197 870 68 731 q 538 1010 325 1010 q 824 925 713 1010 q 958 690 935 840 l 794 679 q 711 817 778 769 q 546 864 644 864 q 318 765 399 864 q 238 494 238 665 q 318 222 238 324 q 540 119 399 119 q 727 186 653 119 q 819 372 801 253 l 819 389 l 551 389 l 551 532 l 971 532 z "},"ġ":{"ha":833,"x_min":57,"x_max":738,"o":"m 463 989 l 463 831 l 300 831 l 300 989 l 463 989 m 590 717 l 738 717 l 738 7 q 648 -223 738 -146 q 399 -300 558 -300 q 176 -242 258 -300 q 82 -74 94 -185 l 235 -74 q 397 -176 256 -176 q 535 -134 493 -176 q 576 0 576 -92 l 576 94 q 367 -7 501 -7 q 142 98 228 -7 q 57 371 57 203 q 143 635 57 536 q 365 733 229 733 q 588 615 517 733 l 590 717 m 396 132 q 528 197 476 132 q 579 369 579 261 q 528 539 579 478 q 396 600 478 600 q 265 539 314 600 q 217 371 217 478 q 265 197 217 261 q 396 132 314 132 z "},"Ģ":{"ha":1075,"x_min":68,"x_max":971,"o":"m 971 532 l 971 0 l 857 0 l 825 122 q 528 -22 731 -22 q 198 119 328 -22 q 68 496 68 260 q 197 870 68 731 q 538 1010 325 1010 q 824 925 713 1010 q 958 690 935 840 l 794 679 q 711 817 778 769 q 546 864 644 864 q 318 765 399 864 q 238 494 238 665 q 318 222 238 324 q 540 119 399 119 q 727 186 653 119 q 819 372 801 253 l 819 389 l 551 389 l 551 532 l 971 532 m 433 -222 l 433 -87 l 621 -87 l 621 -251 q 489 -381 621 -381 l 433 -381 l 433 -317 l 489 -317 q 553 -257 553 -317 l 553 -219 l 433 -222 z "},"ģ":{"ha":833,"x_min":57,"x_max":738,"o":"m 483 956 l 483 831 l 297 831 l 297 969 q 428 1097 297 1097 l 483 1097 l 483 1035 l 428 1035 q 365 975 365 1035 l 365 946 l 483 956 m 590 717 l 738 717 l 738 7 q 648 -223 738 -146 q 399 -300 558 -300 q 176 -242 258 -300 q 82 -74 94 -185 l 235 -74 q 397 -176 256 -176 q 535 -134 493 -176 q 576 0 576 -92 l 576 94 q 367 -7 501 -7 q 142 98 228 -7 q 57 371 57 203 q 143 635 57 536 q 365 733 229 733 q 588 615 517 733 l 590 717 m 396 132 q 528 197 476 132 q 579 369 579 261 q 528 539 579 478 q 396 600 478 600 q 265 539 314 600 q 217 371 217 478 q 265 197 217 261 q 396 132 314 132 z "},"Ĥ":{"ha":997,"x_min":104,"x_max":893,"o":"m 499 1206 l 408 1079 l 254 1079 l 419 1289 l 578 1289 l 743 1079 l 589 1079 l 499 1206 m 725 989 l 893 989 l 893 0 l 725 0 l 725 446 l 272 446 l 272 0 l 104 0 l 104 989 l 272 989 l 272 594 l 725 594 l 725 989 z "},"ĥ":{"ha":814,"x_min":-65,"x_max":717,"o":"m 269 1079 l 179 1206 l 89 1079 l -65 1079 l 100 1289 l 258 1289 l 424 1079 l 269 1079 m 478 735 q 653 669 590 735 q 717 489 717 604 l 717 0 l 554 0 l 554 454 q 431 590 554 590 q 308 540 357 590 q 260 390 260 489 l 260 0 l 97 0 l 97 989 l 260 989 l 260 624 q 478 735 335 735 z "},"Ħ":{"ha":997,"x_min":104,"x_max":893,"o":"m 725 989 l 893 989 l 893 0 l 725 0 l 725 415 l 272 415 l 272 0 l 104 0 l 104 989 l 272 989 l 272 851 l 725 851 l 725 989 m 272 563 l 725 563 l 725 704 l 272 704 l 272 563 z "},"ħ":{"ha":856,"x_min":14,"x_max":758,"o":"m 519 735 q 694 669 631 735 q 758 489 758 604 l 758 0 l 596 0 l 596 454 q 472 590 596 590 q 350 540 399 590 q 301 390 301 489 l 301 0 l 139 0 l 139 808 l 14 804 l 14 926 l 139 922 l 139 989 l 301 989 l 301 921 l 497 926 l 497 804 l 301 810 l 301 624 q 519 735 376 735 z "},"Ĩ":{"ha":376,"x_min":-92,"x_max":469,"o":"m -92 1093 q -46 1267 -92 1211 q 76 1324 0 1324 q 163 1300 125 1324 q 229 1253 200 1276 q 285 1229 258 1229 q 346 1324 344 1229 l 469 1324 q 424 1149 469 1204 q 301 1093 379 1093 q 216 1117 253 1093 q 150 1164 179 1140 q 93 1188 121 1188 q 32 1093 35 1188 l -92 1093 m 104 0 l 104 989 l 272 989 l 272 0 l 104 0 z "},"ĩ":{"ha":357,"x_min":-101,"x_max":460,"o":"m -101 821 q -56 995 -101 939 q 67 1051 -10 1051 q 153 1028 115 1051 q 219 981 190 1004 q 275 957 249 957 q 336 1051 335 957 l 460 1051 q 415 876 460 932 q 292 821 369 821 q 206 844 243 821 q 140 892 169 868 q 83 915 111 915 q 22 821 25 915 l -101 821 m 97 0 l 97 717 l 260 717 l 260 0 l 97 0 z "},"Ī":{"ha":376,"x_min":-49,"x_max":426,"o":"m -49 1118 l -49 1240 l 426 1240 l 426 1118 l -49 1118 m 104 0 l 104 989 l 272 989 l 272 0 l 104 0 z "},"ī":{"ha":357,"x_min":-58,"x_max":417,"o":"m -58 846 l -58 968 l 417 968 l 417 846 l -58 846 m 97 0 l 97 717 l 260 717 l 260 0 l 97 0 z "},"Ĭ":{"ha":376,"x_min":-46,"x_max":424,"o":"m 188 1074 q 13 1127 67 1074 q -46 1282 -42 1181 l 57 1282 q 189 1181 61 1181 q 321 1282 317 1181 l 424 1282 q 188 1074 414 1074 m 104 0 l 104 989 l 272 989 l 272 0 l 104 0 z "},"ĭ":{"ha":357,"x_min":-56,"x_max":414,"o":"m 178 801 q 3 855 57 801 q -56 1010 -51 908 l 47 1010 q 179 907 51 907 q 311 1010 307 907 l 414 1010 q 178 801 404 801 m 97 0 l 97 717 l 260 717 l 260 0 l 97 0 z "},"Į":{"ha":376,"x_min":17,"x_max":272,"o":"m 199 -67 q 156 -136 156 -104 q 225 -187 156 -187 l 272 -187 l 272 -293 l 190 -293 q 61 -261 106 -293 q 17 -169 17 -229 q 41 -95 17 -128 q 129 -7 65 -62 l 138 0 l 104 0 l 104 989 l 272 989 l 272 0 l 199 -67 z "},"į":{"ha":357,"x_min":3,"x_max":260,"o":"m 97 989 l 260 989 l 260 831 l 97 831 l 97 989 m 97 0 l 97 717 l 260 717 l 260 0 l 186 -67 q 143 -136 143 -104 q 213 -187 143 -187 l 260 -187 l 260 -293 l 178 -293 q 47 -260 92 -293 q 3 -169 3 -228 q 27 -95 3 -128 q 117 -7 51 -62 l 125 0 l 97 0 z "},"İ":{"ha":376,"x_min":104,"x_max":272,"o":"m 107 1097 l 107 1256 l 269 1256 l 269 1097 l 107 1097 m 104 0 l 104 989 l 272 989 l 272 0 l 104 0 z "},"ı":{"ha":357,"x_min":97,"x_max":260,"o":"m 97 0 l 97 717 l 260 717 l 260 0 l 97 0 z "},"Ĳ":{"ha":1144,"x_min":104,"x_max":1040,"o":"m 104 0 l 104 989 l 272 989 l 272 0 l 104 0 m 963 57 q 924 19 963 57 q 740 -19 885 -19 q 515 58 596 -19 q 435 274 435 136 l 435 354 l 597 354 l 597 276 q 739 128 597 128 q 872 276 872 128 l 872 989 l 1040 989 l 1040 275 q 963 57 1040 133 z "},"ĳ":{"ha":713,"x_min":97,"x_max":617,"o":"m 97 831 l 97 989 l 260 989 l 260 831 l 97 831 m 454 831 l 454 989 l 617 989 l 617 831 l 454 831 m 97 0 l 97 717 l 260 717 l 260 0 l 97 0 m 332 -283 l 332 -143 l 374 -143 q 437 -127 419 -143 q 454 -69 454 -111 l 454 717 l 617 717 l 617 -75 q 569 -234 617 -185 q 414 -283 521 -283 l 332 -283 z "},"Ĵ":{"ha":779,"x_min":69,"x_max":836,"o":"m 347 1079 l 513 1289 l 671 1289 l 836 1079 l 682 1079 l 592 1206 l 501 1079 l 347 1079 m 597 57 q 558 19 597 57 q 375 -19 519 -19 q 150 58 231 -19 q 69 274 69 136 l 69 354 l 232 354 l 232 276 q 374 128 232 128 q 507 276 507 128 l 507 989 l 675 989 l 675 275 q 597 57 675 133 z "},"ĵ":{"ha":357,"x_min":-68,"x_max":421,"o":"m -68 807 l 97 1017 l 256 1017 l 421 807 l 267 807 l 176 933 l 86 807 l -68 807 m -25 -283 l -25 -143 l 17 -143 q 80 -127 63 -143 q 97 -69 97 -111 l 97 717 l 260 717 l 260 -75 q 212 -234 260 -185 q 57 -283 164 -283 l -25 -283 z "},"Ķ":{"ha":976,"x_min":104,"x_max":953,"o":"m 519 592 l 953 0 l 743 0 l 400 481 l 272 354 l 272 0 l 104 0 l 104 989 l 272 989 l 272 557 l 697 989 l 915 989 l 519 592 m 400 -222 l 400 -87 l 588 -87 l 588 -251 q 456 -381 588 -381 l 400 -381 l 400 -317 l 456 -317 q 519 -257 519 -317 l 519 -219 l 400 -222 z "},"ķ":{"ha":789,"x_min":97,"x_max":756,"o":"m 460 443 l 756 0 l 564 0 l 347 343 l 260 258 l 260 0 l 97 0 l 97 989 l 260 989 l 260 431 l 539 717 l 743 717 l 460 443 m 299 -222 l 299 -87 l 486 -87 l 486 -251 q 354 -381 486 -381 l 299 -381 l 299 -317 l 354 -317 q 418 -257 418 -317 l 418 -219 l 299 -222 z "},"ĸ":{"ha":789,"x_min":97,"x_max":756,"o":"m 564 0 l 347 331 l 260 244 l 260 0 l 97 0 l 97 717 l 260 717 l 260 418 l 539 717 l 743 717 l 460 432 l 756 0 l 564 0 z "},"Ĺ":{"ha":811,"x_min":104,"x_max":771,"o":"m 408 1278 l 229 1072 l 107 1072 l 200 1278 l 408 1278 m 272 149 l 771 149 l 771 0 l 104 0 l 104 989 l 272 989 l 272 149 z "},"ĺ":{"ha":357,"x_min":82,"x_max":383,"o":"m 82 1072 l 175 1278 l 383 1278 l 204 1072 l 82 1072 m 97 0 l 97 989 l 260 989 l 260 0 l 97 0 z "},"Ļ":{"ha":811,"x_min":104,"x_max":771,"o":"m 272 149 l 771 149 l 771 0 l 104 0 l 104 989 l 272 989 l 272 149 m 347 -222 l 347 -87 l 535 -87 l 535 -251 q 403 -381 535 -381 l 347 -381 l 347 -317 l 403 -317 q 467 -257 467 -317 l 467 -219 l 347 -222 z "},"ļ":{"ha":357,"x_min":85,"x_max":272,"o":"m 260 989 l 260 0 l 97 0 l 97 989 l 260 989 m 85 -87 l 272 -87 l 272 -251 q 140 -381 272 -381 l 85 -381 l 85 -317 l 140 -317 q 204 -257 204 -317 l 204 -219 l 85 -222 l 85 -87 z "},"Ľ":{"ha":811,"x_min":104,"x_max":771,"o":"m 272 149 l 771 149 l 771 0 l 104 0 l 104 989 l 272 989 l 272 149 m 693 989 l 568 700 l 444 700 l 511 989 l 693 989 z "},"ľ":{"ha":622,"x_min":97,"x_max":622,"o":"m 97 0 l 97 989 l 260 989 l 260 0 l 97 0 m 374 700 l 440 989 l 622 989 l 497 700 l 374 700 z "},"Ŀ":{"ha":811,"x_min":104,"x_max":771,"o":"m 272 149 l 771 149 l 771 0 l 104 0 l 104 989 l 272 989 l 272 149 m 638 626 l 638 451 l 460 451 l 460 626 l 638 626 z "},"ŀ":{"ha":551,"x_min":97,"x_max":524,"o":"m 97 0 l 97 989 l 260 989 l 260 0 l 97 0 m 346 408 l 346 583 l 524 583 l 524 408 l 346 408 z "},"Ł":{"ha":949,"x_min":57,"x_max":907,"o":"m 410 149 l 907 149 l 907 0 l 242 0 l 242 371 l 57 278 l 57 424 l 242 508 l 242 989 l 410 989 l 410 590 l 758 764 l 758 618 l 410 453 l 410 149 z "},"ł":{"ha":517,"x_min":57,"x_max":461,"o":"m 461 703 l 461 547 l 340 489 l 340 0 l 178 0 l 178 400 l 57 329 l 57 483 l 178 543 l 178 989 l 340 989 l 340 632 l 461 703 z "},"Ń":{"ha":1000,"x_min":104,"x_max":896,"o":"m 704 1278 l 525 1072 l 403 1072 l 496 1278 l 704 1278 m 732 989 l 896 989 l 896 0 l 721 0 l 268 719 l 268 0 l 104 0 l 104 989 l 276 989 l 732 267 l 732 989 z "},"ń":{"ha":814,"x_min":97,"x_max":717,"o":"m 618 1006 l 439 800 l 317 800 l 410 1006 l 618 1006 m 478 735 q 653 669 590 735 q 717 489 717 604 l 717 0 l 554 0 l 554 454 q 431 590 554 590 q 308 540 357 590 q 260 390 260 489 l 260 0 l 97 0 l 97 717 l 253 717 l 256 617 q 478 735 331 735 z "},"Ņ":{"ha":1000,"x_min":104,"x_max":896,"o":"m 732 989 l 896 989 l 896 0 l 721 0 l 268 719 l 268 0 l 104 0 l 104 989 l 276 989 l 732 267 l 732 989 m 411 -222 l 411 -87 l 599 -87 l 599 -251 q 467 -381 599 -381 l 411 -381 l 411 -317 l 467 -317 q 531 -257 531 -317 l 531 -219 l 411 -222 z "},"ņ":{"ha":814,"x_min":97,"x_max":717,"o":"m 478 735 q 653 669 590 735 q 717 489 717 604 l 717 0 l 554 0 l 554 454 q 431 590 554 590 q 308 540 357 590 q 260 390 260 489 l 260 0 l 97 0 l 97 717 l 253 717 l 256 617 q 478 735 331 735 m 307 -222 l 307 -87 l 494 -87 l 494 -251 q 363 -381 494 -381 l 307 -381 l 307 -317 l 363 -317 q 426 -257 426 -317 l 426 -219 l 307 -222 z "},"Ň":{"ha":1000,"x_min":104,"x_max":896,"o":"m 579 1081 l 421 1081 l 256 1290 l 410 1290 l 500 1164 l 590 1290 l 744 1290 l 579 1081 m 732 989 l 896 989 l 896 0 l 721 0 l 268 719 l 268 0 l 104 0 l 104 989 l 276 989 l 732 267 l 732 989 z "},"ň":{"ha":814,"x_min":97,"x_max":717,"o":"m 493 800 l 335 800 l 169 1010 l 324 1010 l 414 883 l 504 1010 l 658 1010 l 493 800 m 478 735 q 653 669 590 735 q 717 489 717 604 l 717 0 l 554 0 l 554 454 q 431 590 554 590 q 308 540 357 590 q 260 390 260 489 l 260 0 l 97 0 l 97 717 l 253 717 l 256 617 q 478 735 331 735 z "},"ŉ":{"ha":1119,"x_min":49,"x_max":1024,"o":"m 49 814 l 49 989 l 239 989 l 239 771 q 69 604 239 604 l 50 604 l 50 683 l 69 683 q 149 763 149 683 l 149 818 l 49 814 m 785 735 q 960 669 896 735 q 1024 489 1024 604 l 1024 0 l 861 0 l 861 454 q 738 590 861 590 q 615 540 664 590 q 565 390 565 489 l 565 0 l 403 0 l 403 717 l 560 717 l 561 614 q 785 735 635 735 z "},"Ŋ":{"ha":1000,"x_min":104,"x_max":896,"o":"m 732 989 l 896 989 l 896 -75 q 849 -235 896 -186 q 697 -283 803 -283 l 603 -283 l 603 -143 l 651 -143 q 715 -127 697 -143 q 732 -69 732 -111 l 732 4 l 268 725 l 268 0 l 104 0 l 104 989 l 276 989 l 732 282 l 732 989 z "},"ŋ":{"ha":814,"x_min":97,"x_max":717,"o":"m 478 735 q 653 669 590 735 q 717 489 717 604 l 717 -75 q 669 -234 717 -185 q 515 -283 622 -283 l 433 -283 l 433 -143 l 474 -143 q 537 -127 519 -143 q 554 -69 554 -111 l 554 454 q 431 590 554 590 q 308 540 357 590 q 260 390 260 489 l 260 0 l 97 0 l 97 717 l 253 717 l 256 617 q 478 735 331 735 z "},"Ō":{"ha":1074,"x_min":68,"x_max":1006,"o":"m 299 1118 l 299 1240 l 774 1240 l 774 1118 l 299 1118 m 535 -28 q 199 117 331 -28 q 68 496 68 263 q 199 868 68 726 q 535 1010 331 1010 q 873 867 740 1010 q 1006 496 1006 725 q 873 117 1006 263 q 535 -28 740 -28 m 536 119 q 753 222 671 119 q 836 496 836 325 q 753 762 836 661 q 536 863 671 863 q 319 762 401 863 q 238 496 238 661 q 319 222 238 325 q 536 119 400 119 z "},"ō":{"ha":825,"x_min":57,"x_max":769,"o":"m 178 846 l 178 968 l 653 968 l 653 846 l 178 846 m 669 86 q 619 33 669 86 q 413 -21 569 -21 q 156 85 256 -21 q 57 357 57 190 q 157 630 57 525 q 415 735 257 735 q 671 631 572 735 q 769 360 769 526 q 669 86 769 193 m 413 110 q 558 178 506 110 q 611 360 611 246 q 558 539 611 474 q 413 604 506 604 q 269 538 321 604 q 217 357 217 471 q 269 177 217 244 q 413 110 322 110 z "},"Ŏ":{"ha":1074,"x_min":68,"x_max":1006,"o":"m 535 1074 q 360 1127 414 1074 q 301 1282 306 1181 l 404 1282 q 536 1181 408 1181 q 668 1282 664 1181 l 771 1282 q 535 1074 761 1074 m 535 -28 q 199 117 331 -28 q 68 496 68 263 q 199 868 68 726 q 535 1010 331 1010 q 873 867 740 1010 q 1006 496 1006 725 q 873 117 1006 263 q 535 -28 740 -28 m 536 119 q 753 222 671 119 q 836 496 836 325 q 753 762 836 661 q 536 863 671 863 q 319 762 401 863 q 238 496 238 661 q 319 222 238 325 q 536 119 400 119 z "},"ŏ":{"ha":825,"x_min":57,"x_max":769,"o":"m 414 801 q 239 855 293 801 q 181 1010 185 908 l 283 1010 q 415 907 288 907 q 547 1010 543 907 l 650 1010 q 414 801 640 801 m 669 86 q 619 33 669 86 q 413 -21 569 -21 q 156 85 256 -21 q 57 357 57 190 q 157 630 57 525 q 415 735 257 735 q 671 631 572 735 q 769 360 769 526 q 669 86 769 193 m 413 110 q 558 178 506 110 q 611 360 611 246 q 558 539 611 474 q 413 604 506 604 q 269 538 321 604 q 217 357 217 471 q 269 177 217 244 q 413 110 322 110 z "},"Ő":{"ha":1074,"x_min":68,"x_max":1006,"o":"m 311 1072 l 413 1292 l 594 1292 l 431 1072 l 311 1072 m 579 1072 l 689 1292 l 869 1292 l 700 1072 l 579 1072 m 535 -28 q 199 117 331 -28 q 68 496 68 263 q 199 868 68 726 q 535 1010 331 1010 q 873 867 740 1010 q 1006 496 1006 725 q 873 117 1006 263 q 535 -28 740 -28 m 536 119 q 753 222 671 119 q 836 496 836 325 q 753 762 836 661 q 536 863 671 863 q 319 762 401 863 q 238 496 238 661 q 319 222 238 325 q 536 119 400 119 z "},"ő":{"ha":825,"x_min":57,"x_max":769,"o":"m 190 800 l 292 1019 l 474 1019 l 310 800 l 190 800 m 458 800 l 568 1019 l 749 1019 l 579 800 l 458 800 m 669 86 q 619 33 669 86 q 413 -21 569 -21 q 156 85 256 -21 q 57 357 57 190 q 157 630 57 525 q 415 735 257 735 q 671 631 572 735 q 769 360 769 526 q 669 86 769 193 m 413 110 q 558 178 506 110 q 611 360 611 246 q 558 539 611 474 q 413 604 506 604 q 269 538 321 604 q 217 357 217 471 q 269 177 217 244 q 413 110 322 110 z "},"Œ":{"ha":1632,"x_min":68,"x_max":1558,"o":"m 1004 143 l 1558 143 l 1558 0 l 836 0 l 836 118 q 529 -24 725 -24 q 198 119 328 -24 q 68 494 68 263 q 198 865 68 724 q 531 1006 328 1006 q 836 869 728 1006 l 836 989 l 1546 989 l 1546 846 l 1004 846 l 1004 583 l 1497 583 l 1497 439 l 1004 439 l 1004 143 m 539 119 q 756 218 675 119 q 836 494 836 317 q 755 765 836 668 q 539 863 674 863 q 319 762 401 863 q 238 494 238 661 q 319 222 238 324 q 539 119 401 119 z "},"œ":{"ha":1360,"x_min":57,"x_max":1304,"o":"m 1304 354 l 1304 314 l 775 314 q 831 162 781 215 q 968 108 882 108 q 1136 225 1093 108 l 1292 211 q 1173 39 1257 99 q 968 -21 1089 -21 q 689 110 786 -21 q 413 -21 588 -21 q 156 85 256 -21 q 57 357 57 190 q 157 630 57 525 q 415 735 257 735 q 688 611 588 735 q 956 735 785 735 q 1208 633 1113 735 q 1304 354 1304 531 m 960 610 q 834 562 883 610 q 776 426 785 514 l 1142 426 q 1085 563 1132 515 q 960 610 1038 610 m 413 110 q 558 178 506 110 q 611 360 611 246 q 558 539 611 474 q 413 604 506 604 q 269 538 321 604 q 217 357 217 471 q 269 177 217 244 q 413 110 322 110 z "},"Ŕ":{"ha":967,"x_min":104,"x_max":876,"o":"m 683 1278 l 504 1072 l 382 1072 l 475 1278 l 683 1278 m 838 314 l 876 0 l 704 0 l 678 258 q 633 370 671 336 q 514 404 596 404 l 272 404 l 272 0 l 104 0 l 104 989 l 564 989 q 794 915 717 989 q 871 722 871 840 q 824 565 871 628 q 689 478 776 501 q 838 314 821 450 m 513 544 q 656 587 607 544 q 704 701 704 629 q 662 808 704 769 q 538 846 619 846 l 272 846 l 272 544 l 513 544 z "},"ŕ":{"ha":518,"x_min":97,"x_max":504,"o":"m 504 1006 l 325 800 l 203 800 l 296 1006 l 504 1006 m 250 586 q 449 739 307 739 q 494 735 472 739 l 494 581 q 451 583 464 583 q 314 528 367 583 q 260 369 261 474 l 260 0 l 97 0 l 97 717 l 253 717 l 250 586 z "},"Ŗ":{"ha":967,"x_min":104,"x_max":876,"o":"m 838 314 l 876 0 l 704 0 l 678 258 q 633 370 671 336 q 514 404 596 404 l 272 404 l 272 0 l 104 0 l 104 989 l 564 989 q 794 915 717 989 q 871 722 871 840 q 824 565 871 628 q 689 478 776 501 q 838 314 821 450 m 513 544 q 656 587 607 544 q 704 701 704 629 q 662 808 704 769 q 538 846 619 846 l 272 846 l 272 544 l 513 544 m 394 -222 l 394 -87 l 582 -87 l 582 -251 q 450 -381 582 -381 l 394 -381 l 394 -317 l 450 -317 q 514 -257 514 -317 l 514 -219 l 394 -222 z "},"ŗ":{"ha":518,"x_min":85,"x_max":494,"o":"m 449 739 q 494 735 472 739 l 494 581 q 451 583 464 583 q 314 528 367 583 q 260 369 261 474 l 260 0 l 97 0 l 97 717 l 253 717 l 250 586 q 449 739 307 739 m 85 -222 l 85 -87 l 272 -87 l 272 -251 q 140 -381 272 -381 l 85 -381 l 85 -317 l 140 -317 q 204 -257 204 -317 l 204 -219 l 85 -222 z "},"Ř":{"ha":967,"x_min":104,"x_max":876,"o":"m 558 1081 l 400 1081 l 235 1290 l 389 1290 l 479 1164 l 569 1290 l 724 1290 l 558 1081 m 838 314 l 876 0 l 704 0 l 678 258 q 633 370 671 336 q 514 404 596 404 l 272 404 l 272 0 l 104 0 l 104 989 l 564 989 q 794 915 717 989 q 871 722 871 840 q 824 565 871 628 q 689 478 776 501 q 838 314 821 450 m 513 544 q 656 587 607 544 q 704 701 704 629 q 662 808 704 769 q 538 846 619 846 l 272 846 l 272 544 l 513 544 z "},"ř":{"ha":518,"x_min":56,"x_max":544,"o":"m 379 800 l 221 800 l 56 1010 l 210 1010 l 300 883 l 390 1010 l 544 1010 l 379 800 m 250 586 q 449 739 307 739 q 494 735 472 739 l 494 581 q 451 583 464 583 q 314 528 367 583 q 260 369 261 474 l 260 0 l 97 0 l 97 717 l 253 717 l 250 586 z "},"Ś":{"ha":924,"x_min":63,"x_max":863,"o":"m 360 1072 l 453 1278 l 661 1278 l 482 1072 l 360 1072 m 474 -26 q 179 61 286 -26 q 63 314 72 149 l 226 314 q 475 111 240 111 q 636 151 581 111 q 692 263 692 190 q 649 356 692 322 q 513 411 607 390 l 351 449 q 92 715 92 508 q 185 927 92 843 q 451 1011 279 1011 q 725 928 622 1011 q 839 699 828 844 l 676 699 q 608 828 667 782 q 450 874 549 874 q 308 835 360 874 q 257 732 257 797 q 400 603 257 635 l 586 560 q 863 276 863 496 q 763 57 863 140 q 474 -26 663 -26 z "},"ś":{"ha":726,"x_min":57,"x_max":678,"o":"m 264 800 l 357 1006 l 565 1006 l 386 800 l 264 800 m 369 -22 q 149 40 228 -22 q 57 219 69 101 l 208 224 q 375 97 225 97 q 485 122 446 97 q 525 193 525 147 q 422 281 525 260 l 279 310 q 75 513 75 353 q 149 674 75 614 q 354 735 224 735 q 562 676 482 735 q 656 507 642 617 l 504 503 q 351 615 485 615 q 258 593 292 615 q 225 529 225 571 q 321 446 225 467 l 468 415 q 627 342 576 392 q 678 211 678 292 q 595 40 678 101 q 369 -22 513 -22 z "},"Ŝ":{"ha":924,"x_min":63,"x_max":863,"o":"m 213 1079 l 378 1289 l 536 1289 l 701 1079 l 547 1079 l 457 1206 l 367 1079 l 213 1079 m 474 -26 q 179 61 286 -26 q 63 314 72 149 l 226 314 q 475 111 240 111 q 636 151 581 111 q 692 263 692 190 q 649 356 692 322 q 513 411 607 390 l 351 449 q 92 715 92 508 q 185 927 92 843 q 451 1011 279 1011 q 725 928 622 1011 q 839 699 828 844 l 676 699 q 608 828 667 782 q 450 874 549 874 q 308 835 360 874 q 257 732 257 797 q 400 603 257 635 l 586 560 q 863 276 863 496 q 763 57 863 140 q 474 -26 663 -26 z "},"ŝ":{"ha":726,"x_min":57,"x_max":678,"o":"m 117 807 l 282 1017 l 440 1017 l 606 807 l 451 807 l 361 933 l 271 807 l 117 807 m 369 -22 q 149 40 228 -22 q 57 219 69 101 l 208 224 q 375 97 225 97 q 485 122 446 97 q 525 193 525 147 q 422 281 525 260 l 279 310 q 75 513 75 353 q 149 674 75 614 q 354 735 224 735 q 562 676 482 735 q 656 507 642 617 l 504 503 q 351 615 485 615 q 258 593 292 615 q 225 529 225 571 q 321 446 225 467 l 468 415 q 627 342 576 392 q 678 211 678 292 q 595 40 678 101 q 369 -22 513 -22 z "},"Ş":{"ha":924,"x_min":63,"x_max":863,"o":"m 863 276 q 773 67 863 149 q 514 -25 683 -15 l 468 -94 l 490 -94 q 592 -126 554 -94 q 629 -217 629 -158 q 577 -321 629 -283 q 435 -358 525 -358 l 379 -358 l 379 -275 l 421 -275 q 501 -228 501 -275 q 453 -187 501 -187 l 408 -187 l 364 -119 l 424 -25 q 165 73 258 -14 q 63 314 71 160 l 226 314 q 475 111 240 111 q 636 151 581 111 q 692 263 692 190 q 649 356 692 322 q 513 411 607 390 l 351 449 q 92 715 92 508 q 185 927 92 843 q 451 1011 279 1011 q 725 928 622 1011 q 839 699 828 844 l 676 699 q 608 828 667 782 q 450 874 549 874 q 308 835 360 874 q 257 732 257 797 q 400 603 257 635 l 586 560 q 863 276 863 496 z "},"ş":{"ha":726,"x_min":57,"x_max":678,"o":"m 678 211 q 607 49 678 110 q 411 -21 536 -12 l 364 -92 l 386 -92 q 488 -124 450 -92 q 525 -214 525 -156 q 473 -318 525 -281 q 331 -356 421 -356 l 275 -356 l 275 -272 l 317 -272 q 397 -225 397 -272 q 349 -185 397 -185 l 304 -185 l 260 -117 l 321 -21 q 57 219 81 0 l 208 224 q 375 97 225 97 q 485 122 446 97 q 525 193 525 147 q 422 281 525 260 l 279 310 q 75 513 75 353 q 149 674 75 614 q 354 735 224 735 q 562 676 482 735 q 656 507 642 617 l 504 503 q 351 615 485 615 q 258 593 292 615 q 225 529 225 571 q 321 446 225 467 l 468 415 q 627 342 576 392 q 678 211 678 292 z "},"Š":{"ha":924,"x_min":63,"x_max":863,"o":"m 378 1081 l 213 1290 l 367 1290 l 457 1164 l 547 1290 l 701 1290 l 536 1081 l 378 1081 m 474 -26 q 179 61 286 -26 q 63 314 72 149 l 226 314 q 475 111 240 111 q 636 151 581 111 q 692 263 692 190 q 649 356 692 322 q 513 411 607 390 l 351 449 q 92 715 92 508 q 185 927 92 843 q 451 1011 279 1011 q 725 928 622 1011 q 839 699 828 844 l 676 699 q 608 828 667 782 q 450 874 549 874 q 308 835 360 874 q 257 732 257 797 q 400 603 257 635 l 586 560 q 863 276 863 496 q 763 57 863 140 q 474 -26 663 -26 z "},"š":{"ha":726,"x_min":57,"x_max":678,"o":"m 282 800 l 117 1010 l 271 1010 l 361 883 l 451 1010 l 606 1010 l 440 800 l 282 800 m 369 -22 q 149 40 228 -22 q 57 219 69 101 l 208 224 q 375 97 225 97 q 485 122 446 97 q 525 193 525 147 q 422 281 525 260 l 279 310 q 75 513 75 353 q 149 674 75 614 q 354 735 224 735 q 562 676 482 735 q 656 507 642 617 l 504 503 q 351 615 485 615 q 258 593 292 615 q 225 529 225 571 q 321 446 225 467 l 468 415 q 627 342 576 392 q 678 211 678 292 q 595 40 678 101 q 369 -22 513 -22 z "},"Ţ":{"ha":871,"x_min":38,"x_max":832,"o":"m 519 0 l 485 0 l 431 -82 l 453 -82 q 554 -114 517 -82 q 592 -204 592 -146 q 540 -308 592 -271 q 397 -346 488 -346 l 342 -346 l 342 -262 l 383 -262 q 464 -215 464 -262 q 415 -175 464 -175 l 371 -175 l 326 -107 l 394 0 l 351 0 l 351 840 l 38 840 l 38 989 l 832 989 l 832 840 l 519 840 l 519 0 z "},"ţ":{"ha":485,"x_min":38,"x_max":450,"o":"m 303 600 l 303 201 q 318 147 303 163 q 371 132 333 132 l 450 132 l 450 0 l 321 0 l 315 0 l 269 -69 l 292 -69 q 392 -101 356 -69 q 429 -190 429 -133 q 378 -294 429 -257 q 236 -332 326 -332 l 181 -332 l 181 -250 l 222 -250 q 303 -201 303 -250 q 254 -162 303 -162 l 210 -162 l 165 -93 l 232 13 q 140 181 140 44 l 140 599 l 38 594 l 38 717 l 140 713 l 140 938 l 303 938 l 303 713 l 450 717 l 450 594 l 303 600 z "},"Ť":{"ha":871,"x_min":38,"x_max":832,"o":"m 515 1081 l 357 1081 l 192 1290 l 346 1290 l 436 1164 l 526 1290 l 681 1290 l 515 1081 m 832 989 l 832 840 l 519 840 l 519 0 l 351 0 l 351 840 l 38 840 l 38 989 l 832 989 z "},"ť":{"ha":521,"x_min":38,"x_max":628,"o":"m 446 1083 l 628 1083 l 503 793 l 379 793 l 446 1083 m 303 713 l 450 717 l 450 594 l 303 600 l 303 201 q 318 147 303 163 q 371 132 333 132 l 450 132 l 450 0 l 321 0 q 183 42 225 0 q 140 181 140 85 l 140 599 l 38 594 l 38 717 l 140 713 l 140 938 l 303 938 l 303 713 z "},"Ŧ":{"ha":871,"x_min":38,"x_max":832,"o":"m 832 840 l 519 840 l 519 556 l 804 561 l 804 413 l 519 418 l 519 0 l 351 0 l 351 418 l 68 413 l 68 561 l 351 556 l 351 840 l 38 840 l 38 989 l 832 989 l 832 840 z "},"ŧ":{"ha":482,"x_min":35,"x_max":447,"o":"m 447 594 l 290 600 l 290 432 l 447 436 l 447 314 l 294 318 l 299 261 l 299 201 q 314 147 299 163 q 368 132 329 132 l 447 132 l 447 0 l 318 0 q 178 42 221 0 q 136 181 136 85 l 136 261 l 139 318 l 35 314 l 35 436 l 142 432 l 142 600 l 35 594 l 35 717 l 139 713 l 136 771 l 136 938 l 299 938 l 299 771 l 294 713 l 447 717 l 447 594 z "},"Ũ":{"ha":974,"x_min":104,"x_max":869,"o":"m 207 1093 q 253 1267 207 1211 q 375 1324 299 1324 q 461 1300 424 1324 q 527 1253 499 1276 q 583 1229 556 1229 q 644 1324 643 1229 l 768 1324 q 723 1149 768 1204 q 600 1093 678 1093 q 515 1117 551 1093 q 449 1164 478 1140 q 392 1188 419 1188 q 331 1093 333 1188 l 207 1093 m 769 60 q 718 16 769 60 q 486 -28 668 -28 q 204 60 304 -28 q 104 308 104 147 l 104 989 l 272 989 l 272 304 q 488 119 272 119 q 701 304 701 119 l 701 989 l 869 989 l 869 308 q 769 60 869 147 z "},"ũ":{"ha":814,"x_min":97,"x_max":717,"o":"m 311 915 q 250 821 253 915 l 126 821 q 172 995 126 939 q 294 1051 218 1051 q 381 1028 343 1051 q 447 981 418 1004 q 503 957 476 957 q 564 1051 563 957 l 688 1051 q 642 876 688 932 q 519 821 597 821 q 434 844 471 821 q 368 892 397 868 q 311 915 339 915 m 554 717 l 717 717 l 717 0 l 561 0 l 558 100 q 336 -18 483 -18 q 160 47 224 -18 q 97 228 97 113 l 97 717 l 260 717 l 260 263 q 383 126 260 126 q 506 177 457 126 q 554 326 554 228 l 554 717 z "},"Ū":{"ha":974,"x_min":104,"x_max":869,"o":"m 250 1118 l 250 1240 l 725 1240 l 725 1118 l 250 1118 m 769 60 q 718 16 769 60 q 486 -28 668 -28 q 204 60 304 -28 q 104 308 104 147 l 104 989 l 272 989 l 272 304 q 488 119 272 119 q 701 304 701 119 l 701 989 l 869 989 l 869 308 q 769 60 869 147 z "},"ū":{"ha":814,"x_min":97,"x_max":717,"o":"m 644 968 l 644 846 l 169 846 l 169 968 l 644 968 m 554 717 l 717 717 l 717 0 l 561 0 l 558 100 q 336 -18 483 -18 q 160 47 224 -18 q 97 228 97 113 l 97 717 l 260 717 l 260 263 q 383 126 260 126 q 506 177 457 126 q 554 326 554 228 l 554 717 z "},"Ŭ":{"ha":974,"x_min":104,"x_max":869,"o":"m 486 1074 q 311 1127 365 1074 q 253 1282 257 1181 l 356 1282 q 488 1181 360 1181 q 619 1282 615 1181 l 722 1282 q 486 1074 713 1074 m 769 60 q 718 16 769 60 q 486 -28 668 -28 q 204 60 304 -28 q 104 308 104 147 l 104 989 l 272 989 l 272 304 q 488 119 272 119 q 701 304 701 119 l 701 989 l 869 989 l 869 308 q 769 60 869 147 z "},"ŭ":{"ha":814,"x_min":97,"x_max":717,"o":"m 406 801 q 231 855 285 801 q 172 1010 176 908 l 275 1010 q 407 907 279 907 q 539 1010 535 907 l 642 1010 q 406 801 632 801 m 554 717 l 717 717 l 717 0 l 561 0 l 558 100 q 336 -18 483 -18 q 160 47 224 -18 q 97 228 97 113 l 97 717 l 260 717 l 260 263 q 383 126 260 126 q 506 177 457 126 q 554 326 554 228 l 554 717 z "},"Ů":{"ha":974,"x_min":104,"x_max":869,"o":"m 630 1131 q 602 1103 630 1131 q 488 1075 574 1075 q 345 1131 401 1075 q 289 1272 289 1186 q 345 1415 289 1358 q 488 1472 401 1472 q 630 1415 574 1472 q 686 1272 686 1358 q 630 1131 686 1186 m 416 1200 q 430 1186 416 1200 q 488 1172 444 1172 q 559 1200 531 1172 q 588 1272 588 1228 q 559 1347 588 1319 q 488 1375 531 1375 q 416 1347 444 1375 q 388 1272 388 1319 q 416 1200 388 1228 m 769 60 q 718 16 769 60 q 486 -28 668 -28 q 204 60 304 -28 q 104 308 104 147 l 104 989 l 272 989 l 272 304 q 488 119 272 119 q 701 304 701 119 l 701 989 l 869 989 l 869 308 q 769 60 869 147 z "},"ů":{"ha":814,"x_min":97,"x_max":717,"o":"m 549 858 q 521 831 549 858 q 407 803 493 803 q 265 858 321 803 q 208 1000 208 914 q 265 1143 208 1086 q 407 1200 321 1200 q 549 1143 493 1200 q 606 1000 606 1086 q 549 858 606 914 m 478 1075 q 464 1089 478 1075 q 407 1103 450 1103 q 335 1075 364 1103 q 307 1000 307 1047 q 335 928 307 956 q 407 900 364 900 q 478 928 450 900 q 507 1000 507 956 q 478 1075 507 1047 m 554 717 l 717 717 l 717 0 l 561 0 l 558 100 q 336 -18 483 -18 q 160 47 224 -18 q 97 228 97 113 l 97 717 l 260 717 l 260 263 q 383 126 260 126 q 506 177 457 126 q 554 326 554 228 l 554 717 z "},"Ű":{"ha":974,"x_min":104,"x_max":869,"o":"m 263 1072 l 364 1292 l 546 1292 l 382 1072 l 263 1072 m 531 1072 l 640 1292 l 821 1292 l 651 1072 l 531 1072 m 769 60 q 718 16 769 60 q 486 -28 668 -28 q 204 60 304 -28 q 104 308 104 147 l 104 989 l 272 989 l 272 304 q 488 119 272 119 q 701 304 701 119 l 701 989 l 869 989 l 869 308 q 769 60 869 147 z "},"ű":{"ha":814,"x_min":97,"x_max":740,"o":"m 465 1019 l 301 800 l 182 800 l 283 1019 l 465 1019 m 571 800 l 450 800 l 560 1019 l 740 1019 l 571 800 m 554 326 l 554 717 l 717 717 l 717 0 l 561 0 l 558 100 q 336 -18 483 -18 q 160 47 224 -18 q 97 228 97 113 l 97 717 l 260 717 l 260 263 q 383 126 260 126 q 506 177 457 126 q 554 326 554 228 z "},"Ų":{"ha":974,"x_min":104,"x_max":869,"o":"m 701 989 l 869 989 l 869 308 q 800 92 869 175 q 601 -18 731 8 l 528 -72 q 478 -146 478 -110 q 554 -199 478 -199 l 601 -199 l 601 -304 l 504 -304 q 331 -179 331 -304 q 443 -26 331 -96 q 193 71 282 -15 q 104 308 104 157 l 104 989 l 272 989 l 272 304 q 488 119 272 119 q 701 304 701 119 l 701 989 z "},"ų":{"ha":814,"x_min":97,"x_max":717,"o":"m 635 -61 q 585 -135 585 -99 q 661 -187 585 -187 l 708 -187 l 708 -293 l 611 -293 q 438 -168 438 -293 q 464 -89 438 -125 q 554 -12 490 -53 l 583 4 l 563 113 q 338 -11 489 -11 q 160 56 229 -11 q 97 251 97 119 l 97 717 l 260 717 l 260 275 q 290 168 260 203 q 383 133 325 133 q 506 184 457 133 q 554 333 554 235 l 554 717 l 717 717 l 717 0 l 635 -61 z "},"Ŵ":{"ha":1338,"x_min":38,"x_max":1300,"o":"m 671 1206 l 581 1079 l 426 1079 l 592 1289 l 750 1289 l 915 1079 l 761 1079 l 671 1206 m 1128 989 l 1300 989 l 1018 0 l 857 0 l 667 772 l 478 0 l 315 0 l 38 989 l 214 989 l 351 447 l 399 238 l 446 447 l 581 989 l 756 989 l 889 447 l 935 238 l 985 447 l 1128 989 z "},"ŵ":{"ha":1076,"x_min":28,"x_max":1049,"o":"m 539 933 l 449 807 l 294 807 l 460 1017 l 618 1017 l 783 807 l 629 807 l 539 933 m 879 717 l 1049 717 l 825 0 l 668 0 l 565 413 l 539 551 l 511 413 l 406 0 l 247 0 l 28 717 l 200 717 l 296 351 l 333 171 l 369 351 l 461 717 l 618 717 l 708 353 l 744 172 l 781 351 l 879 717 z "},"Ŷ":{"ha":931,"x_min":26,"x_max":903,"o":"m 465 1206 l 375 1079 l 221 1079 l 386 1289 l 544 1289 l 710 1079 l 556 1079 l 465 1206 m 718 989 l 903 989 l 553 394 l 553 0 l 385 0 l 385 394 l 26 989 l 218 989 l 419 633 l 469 526 l 518 633 l 718 989 z "},"ŷ":{"ha":761,"x_min":28,"x_max":733,"o":"m 383 933 l 293 807 l 139 807 l 304 1017 l 463 1017 l 628 807 l 474 807 l 383 933 m 563 717 l 733 717 l 424 -133 q 348 -251 393 -219 q 224 -283 303 -283 l 100 -283 l 100 -146 l 182 -146 q 251 -129 228 -146 q 292 -68 275 -112 l 311 -15 l 28 717 l 206 717 l 364 269 l 383 172 l 563 717 z "},"Ÿ":{"ha":931,"x_min":26,"x_max":903,"o":"m 399 1256 l 399 1097 l 236 1097 l 236 1256 l 399 1256 m 694 1256 l 694 1097 l 532 1097 l 532 1256 l 694 1256 m 718 989 l 903 989 l 553 394 l 553 0 l 385 0 l 385 394 l 26 989 l 218 989 l 419 633 l 469 526 l 518 633 l 718 989 z "},"Ź":{"ha":942,"x_min":72,"x_max":868,"o":"m 676 1278 l 497 1072 l 375 1072 l 468 1278 l 676 1278 m 285 146 l 868 146 l 868 0 l 72 0 l 72 143 l 638 843 l 108 843 l 108 989 l 858 989 l 858 857 l 285 146 z "},"ź":{"ha":706,"x_min":49,"x_max":657,"o":"m 564 1006 l 385 800 l 263 800 l 356 1006 l 564 1006 m 246 132 l 657 132 l 657 0 l 49 0 l 49 124 l 440 585 l 79 585 l 79 717 l 638 717 l 638 597 l 246 132 z "},"Ż":{"ha":942,"x_min":72,"x_max":868,"o":"m 553 1256 l 553 1097 l 390 1097 l 390 1256 l 553 1256 m 285 146 l 868 146 l 868 0 l 72 0 l 72 143 l 638 843 l 108 843 l 108 989 l 858 989 l 858 857 l 285 146 z "},"ż":{"ha":706,"x_min":49,"x_max":657,"o":"m 440 989 l 440 831 l 278 831 l 278 989 l 440 989 m 246 132 l 657 132 l 657 0 l 49 0 l 49 124 l 440 585 l 79 585 l 79 717 l 638 717 l 638 597 l 246 132 z "},"Ž":{"ha":942,"x_min":72,"x_max":868,"o":"m 551 1081 l 393 1081 l 228 1290 l 382 1290 l 472 1164 l 563 1290 l 717 1290 l 551 1081 m 285 146 l 868 146 l 868 0 l 72 0 l 72 143 l 638 843 l 108 843 l 108 989 l 858 989 l 858 857 l 285 146 z "},"ž":{"ha":706,"x_min":49,"x_max":657,"o":"m 439 800 l 281 800 l 115 1010 l 269 1010 l 360 883 l 450 1010 l 604 1010 l 439 800 m 246 132 l 657 132 l 657 0 l 49 0 l 49 124 l 440 585 l 79 585 l 79 717 l 638 717 l 638 597 l 246 132 z "},"Ə":{"ha":1074,"x_min":68,"x_max":1006,"o":"m 525 1010 q 874 871 742 1010 q 1006 494 1006 732 q 876 116 1006 261 q 532 -29 747 -29 q 193 112 318 -29 q 68 481 68 253 q 69 529 68 507 l 835 529 q 744 776 826 689 q 524 863 663 863 q 283 728 349 863 l 101 728 q 259 935 147 861 q 525 1010 371 1010 m 535 119 q 730 190 654 119 q 828 386 806 260 l 246 386 q 333 191 258 263 q 535 119 408 119 z "},"ƒ":{"ha":903,"x_min":125,"x_max":807,"o":"m 719 851 q 651 830 675 851 q 618 758 628 808 l 586 592 l 722 596 l 699 474 l 564 478 l 469 -6 q 219 -218 428 -218 l 125 -218 l 151 -81 l 208 -81 q 276 -59 253 -81 q 311 11 300 -37 l 401 478 l 267 474 l 290 596 l 424 592 l 460 776 q 710 989 501 989 l 807 989 l 779 851 l 719 851 z "},"Ǵ":{"ha":1075,"x_min":68,"x_max":971,"o":"m 744 1278 l 565 1072 l 443 1072 l 536 1278 l 744 1278 m 971 532 l 971 0 l 857 0 l 825 122 q 528 -22 731 -22 q 198 119 328 -22 q 68 496 68 260 q 197 870 68 731 q 538 1010 325 1010 q 824 925 713 1010 q 958 690 935 840 l 794 679 q 711 817 778 769 q 546 864 644 864 q 318 765 399 864 q 238 494 238 665 q 318 222 238 324 q 540 119 399 119 q 727 186 653 119 q 819 372 801 253 l 819 389 l 551 389 l 551 532 l 971 532 z "},"ǵ":{"ha":833,"x_min":57,"x_max":738,"o":"m 586 1006 l 407 800 l 285 800 l 378 1006 l 586 1006 m 590 717 l 738 717 l 738 7 q 648 -223 738 -146 q 399 -300 558 -300 q 176 -242 258 -300 q 82 -74 94 -185 l 235 -74 q 397 -176 256 -176 q 535 -134 493 -176 q 576 0 576 -92 l 576 94 q 367 -7 501 -7 q 142 98 228 -7 q 57 371 57 203 q 143 635 57 536 q 365 733 229 733 q 588 615 517 733 l 590 717 m 396 132 q 528 197 476 132 q 579 369 579 261 q 528 539 579 478 q 396 600 478 600 q 265 539 314 600 q 217 371 217 478 q 265 197 217 261 q 396 132 314 132 z "},"Ǻ":{"ha":997,"x_min":38,"x_max":958,"o":"m 706 1540 l 528 1338 l 407 1338 l 499 1540 l 706 1540 m 776 0 l 690 247 l 304 247 l 217 0 l 38 0 l 382 931 q 304 1090 304 986 q 360 1233 304 1176 q 503 1290 417 1290 q 645 1233 589 1290 q 701 1090 701 1176 q 619 928 701 983 l 958 0 l 776 0 m 503 1193 q 431 1165 458 1193 q 403 1090 403 1138 q 431 1017 403 1044 q 503 990 458 990 q 574 1018 546 990 q 603 1090 603 1046 q 574 1165 603 1138 q 503 1193 546 1193 m 354 389 l 642 389 l 557 633 l 499 828 l 440 633 l 354 389 z "},"ǻ":{"ha":781,"x_min":53,"x_max":714,"o":"m 594 1461 l 415 1256 l 293 1256 l 386 1461 l 594 1461 m 533 854 q 505 826 533 854 q 390 799 476 799 q 248 854 304 799 q 192 996 192 910 q 248 1139 192 1082 q 390 1196 304 1196 q 533 1139 476 1196 q 589 996 589 1082 q 533 854 589 910 m 390 1099 q 318 1071 346 1099 q 290 996 290 1043 q 318 923 290 950 q 390 896 346 896 q 462 924 433 896 q 490 996 490 951 q 462 1071 490 1043 q 390 1099 433 1099 m 714 0 l 550 0 q 532 83 543 28 q 297 -19 451 -19 q 119 38 185 -19 q 53 194 53 96 q 283 414 53 375 l 507 451 q 526 457 521 454 l 526 519 q 385 614 526 614 q 282 588 317 614 q 240 503 247 563 l 88 504 q 389 735 108 735 q 685 488 685 735 l 685 165 q 714 0 685 86 m 338 103 q 472 149 417 103 q 526 268 526 196 l 526 343 l 328 308 q 213 203 213 288 q 246 129 213 156 q 338 103 279 103 z "},"Ǽ":{"ha":1581,"x_min":38,"x_max":1508,"o":"m 1103 1278 l 924 1072 l 801 1072 l 894 1278 l 1103 1278 m 953 143 l 1508 143 l 1508 0 l 785 0 l 785 254 l 374 254 l 221 0 l 38 0 l 633 989 l 1494 989 l 1494 846 l 953 846 l 953 583 l 1447 583 l 1447 439 l 953 439 l 953 143 m 458 394 l 785 394 l 785 846 l 729 846 l 458 394 z "},"ǽ":{"ha":1271,"x_min":53,"x_max":1215,"o":"m 840 1006 l 661 800 l 539 800 l 632 1006 l 840 1006 m 1215 354 l 1215 313 l 686 313 q 743 161 692 214 q 879 108 794 108 q 1046 224 1003 108 l 1201 206 q 1082 38 1167 96 q 879 -21 997 -21 q 597 129 683 -21 q 317 -19 511 -19 q 123 41 193 -19 q 53 201 53 101 q 118 357 53 296 q 319 418 183 418 l 526 418 l 526 494 q 381 614 526 614 q 281 588 315 614 q 240 503 247 563 l 88 504 q 382 735 108 735 q 629 628 565 735 q 881 735 718 735 q 1126 633 1038 735 q 1215 354 1215 532 m 871 610 q 744 560 793 610 q 688 418 694 511 l 1053 418 q 997 560 1043 511 q 871 610 950 610 m 339 103 q 472 152 418 103 q 526 282 526 201 l 526 313 l 340 308 q 243 278 274 307 q 213 206 213 250 q 247 131 213 158 q 339 103 281 103 z "},"Ǿ":{"ha":1074,"x_min":68,"x_max":1006,"o":"m 740 1278 l 561 1072 l 439 1072 l 532 1278 l 740 1278 m 897 840 q 1006 496 1006 701 q 873 117 1006 263 q 535 -28 740 -28 q 267 57 383 -28 l 186 -44 l 100 22 l 188 131 q 68 496 68 276 q 199 868 68 726 q 535 1010 331 1010 q 819 917 699 1010 l 901 1019 l 988 953 l 897 840 m 238 496 q 293 261 238 357 l 721 796 q 536 863 646 863 q 319 762 401 863 q 238 496 238 661 m 536 119 q 753 222 671 119 q 836 496 836 325 q 790 707 836 615 l 364 176 q 536 119 439 119 z "},"ǿ":{"ha":825,"x_min":57,"x_max":769,"o":"m 619 1014 l 440 808 l 318 808 l 411 1014 l 619 1014 m 694 603 q 769 360 769 501 q 669 86 769 193 q 413 -21 569 -21 q 207 42 293 -21 l 149 -25 l 69 40 l 133 113 q 57 357 57 215 q 157 630 57 525 q 415 735 257 735 q 619 674 532 735 l 676 739 l 756 674 l 694 603 m 217 357 q 238 233 217 288 l 528 568 q 413 604 481 604 q 269 538 321 604 q 217 357 217 471 m 413 110 q 558 178 506 110 q 611 360 611 246 q 590 483 611 431 l 299 147 q 413 110 347 110 z "},"Ș":{"ha":924,"x_min":63,"x_max":863,"o":"m 586 560 q 863 276 863 496 q 763 57 863 140 q 474 -26 663 -26 q 179 61 286 -26 q 63 314 72 149 l 226 314 q 475 111 240 111 q 636 151 581 111 q 692 263 692 190 q 649 356 692 322 q 513 411 607 390 l 351 449 q 92 715 92 508 q 185 927 92 843 q 451 1011 279 1011 q 725 928 622 1011 q 839 699 828 844 l 676 699 q 608 828 667 782 q 450 874 549 874 q 308 835 360 874 q 257 732 257 797 q 400 603 257 635 l 586 560 m 381 -235 l 381 -100 l 568 -100 l 568 -264 q 436 -393 568 -393 l 381 -393 l 381 -329 l 436 -329 q 500 -269 500 -329 l 500 -232 l 381 -235 z "},"ș":{"ha":726,"x_min":57,"x_max":678,"o":"m 468 415 q 627 342 576 392 q 678 211 678 292 q 595 40 678 101 q 369 -22 513 -22 q 149 40 228 -22 q 57 219 69 101 l 208 224 q 375 97 225 97 q 485 122 446 97 q 525 193 525 147 q 422 281 525 260 l 279 310 q 75 513 75 353 q 149 674 75 614 q 354 735 224 735 q 562 676 482 735 q 656 507 642 617 l 504 503 q 351 615 485 615 q 258 593 292 615 q 225 529 225 571 q 321 446 225 467 l 468 415 m 276 -232 l 276 -97 l 464 -97 l 464 -261 q 332 -390 464 -390 l 276 -390 l 276 -326 l 332 -326 q 396 -267 396 -326 l 396 -229 l 276 -232 z "},"Ț":{"ha":871,"x_min":38,"x_max":832,"o":"m 38 989 l 832 989 l 832 840 l 519 840 l 519 0 l 351 0 l 351 840 l 38 840 l 38 989 m 342 -222 l 342 -87 l 529 -87 l 529 -251 q 397 -381 529 -381 l 342 -381 l 342 -317 l 397 -317 q 461 -257 461 -317 l 461 -219 l 342 -222 z "},"ț":{"ha":485,"x_min":38,"x_max":450,"o":"m 303 600 l 303 201 q 318 147 303 163 q 371 132 333 132 l 450 132 l 450 0 l 321 0 q 183 42 225 0 q 140 181 140 85 l 140 599 l 38 594 l 38 717 l 140 713 l 140 938 l 303 938 l 303 713 l 450 717 l 450 594 l 303 600 m 201 -217 l 201 -82 l 389 -82 l 389 -246 q 257 -375 389 -375 l 201 -375 l 201 -311 l 257 -311 q 321 -251 321 -311 l 321 -214 l 201 -217 z "},"ȷ":{"ha":357,"x_min":-25,"x_max":260,"o":"m -25 -283 l -25 -143 l 17 -143 q 80 -127 63 -143 q 97 -69 97 -111 l 97 717 l 260 717 l 260 -75 q 212 -234 260 -185 q 57 -283 164 -283 l -25 -283 z "},"ə":{"ha":807,"x_min":56,"x_max":750,"o":"m 392 738 q 654 631 558 738 q 750 356 750 524 q 657 87 750 192 q 404 -18 564 -18 q 151 84 247 -18 q 56 363 56 186 l 56 403 l 585 403 q 528 555 579 501 q 393 608 478 608 q 225 492 268 608 l 69 506 q 188 678 104 618 q 392 738 272 738 m 275 154 q 299 131 275 154 q 400 107 322 107 q 527 155 478 107 q 583 290 576 203 l 218 290 q 275 154 228 201 z "},"ʰ":{"ha":672,"x_min":97,"x_max":576,"o":"m 393 1003 q 528 958 479 1003 q 576 828 576 913 l 576 517 l 442 517 l 442 800 q 347 893 442 893 q 263 862 296 893 q 231 772 231 831 l 231 517 l 97 517 l 97 1169 l 231 1169 l 231 925 q 393 1003 289 1003 z "},"ʳ":{"ha":450,"x_min":97,"x_max":425,"o":"m 385 1000 l 425 1000 l 425 872 l 382 872 q 268 838 306 872 q 231 729 231 804 l 231 517 l 97 517 l 97 989 l 217 989 l 225 894 q 385 1000 263 1000 z "},"ˆ":{"ha":694,"x_min":103,"x_max":592,"o":"m 103 807 l 268 1017 l 426 1017 l 592 807 l 438 807 l 347 933 l 257 807 l 103 807 z "},"ˇ":{"ha":694,"x_min":103,"x_max":592,"o":"m 268 800 l 103 1010 l 257 1010 l 347 883 l 438 1010 l 592 1010 l 426 800 l 268 800 z "},"ˉ":{"ha":694,"x_min":110,"x_max":585,"o":"m 110 846 l 110 968 l 585 968 l 585 846 l 110 846 z "},"˘":{"ha":694,"x_min":113,"x_max":582,"o":"m 346 824 q 171 877 225 824 q 113 1032 117 931 l 215 1032 q 347 929 219 929 q 479 1032 475 929 l 582 1032 q 346 824 572 824 z "},"˙":{"ha":694,"x_min":267,"x_max":429,"o":"m 267 831 l 267 989 l 429 989 l 429 831 l 267 831 z "},"˚":{"ha":694,"x_min":149,"x_max":546,"o":"m 490 858 q 461 831 490 858 q 347 803 433 803 q 205 858 261 803 q 149 1000 149 914 q 205 1143 149 1086 q 347 1200 261 1200 q 490 1143 433 1200 q 546 1000 546 1086 q 490 858 546 914 m 276 928 q 290 914 276 928 q 347 900 304 900 q 419 928 390 900 q 447 1000 447 956 q 419 1075 447 1047 q 347 1103 390 1103 q 276 1075 304 1103 q 247 1000 247 1047 q 276 928 247 956 z "},"˛":{"ha":694,"x_min":200,"x_max":479,"o":"m 374 -293 q 200 -168 200 -293 q 226 -88 200 -124 q 317 -12 253 -53 l 374 21 l 479 0 l 397 -61 q 347 -135 347 -99 q 424 -187 347 -187 l 471 -187 l 471 -293 l 374 -293 z "},"˜":{"ha":694,"x_min":65,"x_max":628,"o":"m 65 876 q 111 1051 65 994 q 233 1107 157 1107 q 305 1092 272 1107 q 356 1060 338 1078 q 397 1027 374 1042 q 443 1013 421 1013 q 503 1107 501 1013 l 628 1107 q 582 932 628 988 q 460 876 536 876 q 389 891 421 876 q 339 924 357 906 q 297 956 321 942 q 250 971 274 971 q 190 876 193 971 l 65 876 z "},"˝":{"ha":694,"x_min":68,"x_max":626,"o":"m 68 800 l 169 1019 l 351 1019 l 188 800 l 68 800 m 336 800 l 446 1019 l 626 1019 l 457 800 l 336 800 z "},"ˢ":{"ha":588,"x_min":57,"x_max":532,"o":"m 299 501 q 57 651 88 501 l 186 663 q 306 599 203 599 q 414 653 414 599 q 340 701 414 694 l 240 710 q 72 853 72 726 q 130 965 72 925 q 290 1004 188 1004 q 515 865 483 1004 l 393 856 q 286 911 376 911 q 193 861 193 911 q 251 817 193 822 l 365 804 q 532 664 532 788 q 470 544 532 588 q 299 501 408 501 z "},"̀":{"ha":0,"x_min":-208,"x_max":92,"o":"m -29 800 l -208 1006 l -1 1006 l 92 800 l -29 800 z "},"́":{"ha":0,"x_min":-97,"x_max":204,"o":"m -97 800 l -4 1006 l 204 1006 l 25 800 l -97 800 z "},"̂":{"ha":0,"x_min":-244,"x_max":244,"o":"m -244 807 l -79 1017 l 79 1017 l 244 807 l 90 807 l 0 933 l -90 807 l -244 807 z "},"̃":{"ha":0,"x_min":-281,"x_max":281,"o":"m -281 876 q -235 1051 -281 994 q -112 1107 -189 1107 q -26 1083 -64 1107 q 40 1036 11 1060 q 96 1013 69 1013 q 157 1107 156 1013 l 281 1107 q 235 932 281 988 q 113 876 190 876 q 27 900 64 876 q -39 947 -10 924 q -96 971 -68 971 q -157 876 -154 971 l -281 876 z "},"̄":{"ha":0,"x_min":-237,"x_max":238,"o":"m -237 846 l -237 968 l 238 968 l 238 846 l -237 846 z "},"̆":{"ha":0,"x_min":-235,"x_max":235,"o":"m -1 824 q -176 877 -122 824 q -235 1032 -231 931 l -132 1032 q 0 929 -128 929 q 132 1032 128 929 l 235 1032 q -1 824 225 824 z "},"̇":{"ha":0,"x_min":-82,"x_max":81,"o":"m -82 831 l -82 989 l 81 989 l 81 831 l -82 831 z "},"̈":{"ha":0,"x_min":-229,"x_max":229,"o":"m -229 831 l -229 989 l -67 989 l -67 831 l -229 831 m 67 831 l 67 989 l 229 989 l 229 831 l 67 831 z "},"̊":{"ha":0,"x_min":-199,"x_max":199,"o":"m 142 858 q 114 831 142 858 q 0 803 86 803 q -142 858 -86 803 q -199 1000 -199 914 q -142 1143 -199 1086 q 0 1200 -86 1200 q 142 1143 86 1200 q 199 1000 199 1086 q 142 858 199 914 m -72 928 q -57 914 -72 928 q 0 900 -43 900 q 72 928 43 900 q 100 1000 100 956 q 72 1075 100 1047 q 0 1103 43 1103 q -72 1075 -43 1103 q -100 1000 -100 1047 q -72 928 -100 956 z "},"̋":{"ha":0,"x_min":-225,"x_max":333,"o":"m -225 800 l -124 1019 l 58 1019 l -106 800 l -225 800 m 43 800 l 153 1019 l 333 1019 l 164 800 l 43 800 z "},"̌":{"ha":0,"x_min":-244,"x_max":244,"o":"m -79 800 l -244 1010 l -90 1010 l 0 883 l 90 1010 l 244 1010 l 79 800 l -79 800 z "},"̒":{"ha":0,"x_min":-93,"x_max":93,"o":"m 38 1035 q -24 975 -24 1035 l -24 946 l 93 956 l 93 831 l -93 831 l -93 969 q 38 1097 -93 1097 l 93 1097 l 93 1035 l 38 1035 z "},"̓":{"ha":0,"x_min":-93,"x_max":93,"o":"m -93 1097 l 93 1097 l 93 960 q -37 831 93 831 l -93 831 l -93 893 l -37 893 q 25 954 25 893 l 25 982 l -93 972 l -93 1097 z "},"̣":{"ha":0,"x_min":-82,"x_max":81,"o":"m -82 -272 l -82 -114 l 81 -114 l 81 -272 l -82 -272 z "},"̤":{"ha":0,"x_min":-229,"x_max":229,"o":"m -229 -267 l -229 -108 l -67 -108 l -67 -267 l -229 -267 m 67 -267 l 67 -108 l 229 -108 l 229 -267 l 67 -267 z "},"̥":{"ha":0,"x_min":-199,"x_max":199,"o":"m 142 -426 q 114 -455 142 -426 q 0 -483 86 -483 q -142 -426 -86 -483 q -199 -283 -199 -369 q -142 -142 -199 -197 q 0 -86 -86 -86 q 142 -142 86 -86 q 199 -283 199 -197 q 142 -426 199 -369 m -72 -358 q -57 -372 -72 -358 q 0 -386 -43 -386 q 72 -358 43 -386 q 100 -283 100 -331 q 72 -211 100 -239 q 0 -183 43 -183 q -72 -211 -43 -183 q -100 -283 -100 -239 q -72 -358 -100 -331 z "},"̦":{"ha":0,"x_min":-94,"x_max":93,"o":"m -94 -87 l 93 -87 l 93 -251 q -39 -381 93 -381 l -94 -381 l -94 -317 l -39 -317 q 25 -257 25 -317 l 25 -219 l -94 -222 l -94 -87 z "},"̧":{"ha":0,"x_min":-110,"x_max":156,"o":"m -94 -346 l -94 -262 l -53 -262 q 28 -215 28 -262 q -21 -175 28 -175 l -65 -175 l -110 -107 l -42 0 l 49 0 l -6 -82 l 17 -82 q 118 -114 81 -82 q 156 -204 156 -146 q 103 -308 156 -271 q -39 -346 51 -346 l -94 -346 z "},"̨":{"ha":0,"x_min":-279,"x_max":0,"o":"m -106 -293 q -279 -168 -279 -293 q -253 -88 -279 -124 q -162 -12 -226 -53 l -106 21 l 0 0 l -82 -61 q -132 -135 -132 -99 q -56 -187 -132 -187 l -8 -187 l -8 -293 l -106 -293 z "},"̮":{"ha":0,"x_min":-235,"x_max":235,"o":"m -1 -293 q -176 -240 -122 -293 q -235 -85 -231 -186 l -132 -85 q 0 -187 -128 -187 q 132 -85 128 -187 l 235 -85 q -1 -293 225 -293 z "},"̱":{"ha":0,"x_min":-237,"x_max":238,"o":"m -237 -251 l -237 -129 l 238 -129 l 238 -251 l -237 -251 z "},"̵":{"ha":0,"x_min":-207,"x_max":207,"o":"m -207 457 l -207 579 l 1 572 l 207 579 l 207 457 l 1 464 l -207 457 z "},"̷":{"ha":0,"x_min":-349,"x_max":349,"o":"m -262 -44 l -349 22 l 263 783 l 349 717 l -262 -44 z "},"̸":{"ha":0,"x_min":-443,"x_max":443,"o":"m -357 -44 l -443 22 l 357 1019 l 443 953 l -357 -44 z "},"Δ":{"ha":997,"x_min":38,"x_max":958,"o":"m 597 989 l 958 0 l 38 0 l 404 989 l 597 989 m 267 142 l 728 142 l 558 635 l 500 828 l 440 635 l 267 142 z "},"Ω":{"ha":1090,"x_min":68,"x_max":1022,"o":"m 68 0 l 68 139 l 279 139 l 279 142 q 128 310 182 207 q 75 540 75 413 q 204 881 75 753 q 546 1010 333 1010 q 885 882 757 1010 q 1013 540 1013 754 q 811 142 1013 279 l 811 139 l 1022 139 l 1022 0 l 608 0 l 608 129 q 843 529 843 253 q 763 778 843 694 q 546 863 682 863 q 326 778 408 863 q 244 529 244 694 q 483 129 244 256 l 483 0 l 68 0 z "},"μ":{"ha":814,"x_min":97,"x_max":717,"o":"m 97 -283 l 97 717 l 260 717 l 260 268 q 383 126 260 126 q 506 177 457 126 q 554 326 554 228 l 554 717 l 717 717 l 717 0 l 560 0 l 560 101 q 357 -17 500 -17 q 231 24 281 -17 l 228 21 l 260 -153 l 260 -283 l 97 -283 z "},"π":{"ha":938,"x_min":38,"x_max":903,"o":"m 903 567 l 742 567 l 742 226 q 761 156 742 176 q 831 136 781 136 l 865 136 l 865 0 l 800 0 q 640 55 692 0 q 588 225 588 110 l 588 567 l 350 567 l 350 0 l 196 0 l 196 567 l 38 567 l 38 717 l 903 717 l 903 567 z "},"ᵈ":{"ha":661,"x_min":57,"x_max":564,"o":"m 431 1169 l 564 1169 l 564 517 l 444 517 l 438 582 q 274 500 378 500 q 117 570 176 500 q 57 754 57 640 q 117 938 57 871 q 274 1006 176 1006 q 431 935 371 1006 l 431 1169 m 311 611 q 401 651 369 611 q 433 756 433 690 q 401 861 433 821 q 310 901 368 901 q 223 865 254 901 q 192 757 192 828 q 224 649 192 686 q 311 611 256 611 z "},"ᵗ":{"ha":413,"x_min":38,"x_max":378,"o":"m 378 886 l 268 889 l 268 675 q 322 618 268 618 l 378 618 l 378 517 l 276 517 q 169 546 203 517 q 135 657 135 575 l 135 889 l 38 886 l 38 990 l 135 988 l 135 1131 l 268 1131 l 268 988 l 378 990 l 378 886 z "},"Ẁ":{"ha":1338,"x_min":38,"x_max":1300,"o":"m 763 1072 l 642 1072 l 463 1278 l 669 1278 l 763 1072 m 1128 989 l 1300 989 l 1018 0 l 857 0 l 667 772 l 478 0 l 315 0 l 38 989 l 214 989 l 351 447 l 399 238 l 446 447 l 581 989 l 756 989 l 889 447 l 935 238 l 985 447 l 1128 989 z "},"ẁ":{"ha":1076,"x_min":28,"x_max":1049,"o":"m 629 800 l 508 800 l 329 1006 l 536 1006 l 629 800 m 879 717 l 1049 717 l 825 0 l 668 0 l 565 413 l 539 551 l 511 413 l 406 0 l 247 0 l 28 717 l 200 717 l 296 351 l 333 171 l 369 351 l 461 717 l 618 717 l 708 353 l 744 172 l 781 351 l 879 717 z "},"Ẃ":{"ha":1338,"x_min":38,"x_max":1300,"o":"m 875 1278 l 696 1072 l 574 1072 l 667 1278 l 875 1278 m 1128 989 l 1300 989 l 1018 0 l 857 0 l 667 772 l 478 0 l 315 0 l 38 989 l 214 989 l 351 447 l 399 238 l 446 447 l 581 989 l 756 989 l 889 447 l 935 238 l 985 447 l 1128 989 z "},"ẃ":{"ha":1076,"x_min":28,"x_max":1049,"o":"m 743 1006 l 564 800 l 442 800 l 535 1006 l 743 1006 m 879 717 l 1049 717 l 825 0 l 668 0 l 565 413 l 539 551 l 511 413 l 406 0 l 247 0 l 28 717 l 200 717 l 296 351 l 333 171 l 369 351 l 461 717 l 618 717 l 708 353 l 744 172 l 781 351 l 879 717 z "},"Ẅ":{"ha":1338,"x_min":38,"x_max":1300,"o":"m 604 1256 l 604 1097 l 442 1097 l 442 1256 l 604 1256 m 900 1256 l 900 1097 l 738 1097 l 738 1256 l 900 1256 m 1128 989 l 1300 989 l 1018 0 l 857 0 l 667 772 l 478 0 l 315 0 l 38 989 l 214 989 l 351 447 l 399 238 l 446 447 l 581 989 l 756 989 l 889 447 l 935 238 l 985 447 l 1128 989 z "},"ẅ":{"ha":1076,"x_min":28,"x_max":1049,"o":"m 472 989 l 472 831 l 310 831 l 310 989 l 472 989 m 768 989 l 768 831 l 606 831 l 606 989 l 768 989 m 879 717 l 1049 717 l 825 0 l 668 0 l 565 413 l 539 551 l 511 413 l 406 0 l 247 0 l 28 717 l 200 717 l 296 351 l 333 171 l 369 351 l 461 717 l 618 717 l 708 353 l 744 172 l 781 351 l 879 717 z "},"ẞ":{"ha":983,"x_min":104,"x_max":926,"o":"m 651 588 q 853 490 781 568 q 926 296 926 413 q 829 72 926 156 q 557 -11 732 -11 q 401 4 485 -11 l 401 146 q 547 131 471 131 q 701 173 649 131 q 754 294 754 215 q 700 414 754 372 q 544 456 646 456 q 463 451 500 456 l 463 574 l 690 863 q 531 871 625 871 q 330 807 388 871 q 272 622 272 743 l 272 0 l 104 0 l 104 621 q 213 914 104 813 q 529 1015 321 1015 q 881 992 701 1015 l 881 865 l 651 588 z "},"Ỳ":{"ha":931,"x_min":26,"x_max":903,"o":"m 556 1072 l 435 1072 l 256 1278 l 463 1278 l 556 1072 m 718 989 l 903 989 l 553 394 l 553 0 l 385 0 l 385 394 l 26 989 l 218 989 l 419 633 l 469 526 l 518 633 l 718 989 z "},"ỳ":{"ha":761,"x_min":28,"x_max":733,"o":"m 474 800 l 353 800 l 174 1006 l 381 1006 l 474 800 m 563 717 l 733 717 l 424 -133 q 348 -251 393 -219 q 224 -283 303 -283 l 100 -283 l 100 -146 l 182 -146 q 251 -129 228 -146 q 292 -68 275 -112 l 311 -15 l 28 717 l 206 717 l 364 269 l 383 172 l 563 717 z "}," ":{"ha":217,"x_min":0,"x_max":0,"o":""},"‑":{"ha":528,"x_min":69,"x_max":458,"o":"m 69 299 l 69 442 l 458 442 l 458 299 l 69 299 z "},"–":{"ha":743,"x_min":69,"x_max":674,"o":"m 69 299 l 69 435 l 674 435 l 674 299 l 69 299 z "},"—":{"ha":1151,"x_min":69,"x_max":1082,"o":"m 69 299 l 69 435 l 1082 435 l 1082 299 l 69 299 z "},"‘":{"ha":297,"x_min":57,"x_max":247,"o":"m 57 607 l 57 826 q 225 992 57 992 l 246 992 l 246 913 l 225 913 q 147 833 147 913 l 147 778 l 247 782 l 247 607 l 57 607 z "},"’":{"ha":297,"x_min":50,"x_max":240,"o":"m 51 604 l 51 683 l 71 683 q 150 763 150 683 l 150 818 l 50 814 l 50 989 l 240 989 l 240 771 q 71 604 240 604 l 51 604 z "},"‚":{"ha":404,"x_min":107,"x_max":297,"o":"m 108 -210 l 108 -131 l 129 -131 q 207 -51 207 -131 l 207 3 l 107 0 l 107 175 l 297 175 l 297 -44 q 129 -210 297 -210 l 108 -210 z "},"“":{"ha":568,"x_min":57,"x_max":518,"o":"m 57 608 l 57 826 q 225 992 57 992 l 246 992 l 246 913 l 225 913 q 147 835 147 913 l 147 779 l 247 782 l 247 608 l 57 608 m 328 608 l 328 826 q 496 992 328 992 l 517 992 l 517 913 l 496 913 q 417 835 417 913 l 417 779 l 518 782 l 518 608 l 328 608 z "},"”":{"ha":568,"x_min":50,"x_max":511,"o":"m 51 604 l 51 683 l 71 683 q 150 763 150 683 l 150 818 l 50 814 l 50 989 l 240 989 l 240 771 q 71 604 240 604 l 51 604 m 322 604 l 322 683 l 342 683 q 421 763 421 683 l 421 818 l 321 814 l 321 989 l 511 989 l 511 771 q 342 604 511 604 l 322 604 z "},"„":{"ha":674,"x_min":107,"x_max":567,"o":"m 108 -210 l 108 -131 l 129 -131 q 207 -51 207 -131 l 207 3 l 107 0 l 107 175 l 297 175 l 297 -43 q 129 -210 297 -210 l 108 -210 m 378 -210 l 378 -131 l 397 -131 q 476 -51 476 -131 l 476 3 l 376 0 l 376 175 l 567 175 l 567 -44 q 397 -210 567 -210 l 378 -210 z "},"†":{"ha":861,"x_min":104,"x_max":758,"o":"m 758 846 l 758 701 l 508 708 l 508 -146 l 354 -146 l 354 708 l 104 701 l 104 846 l 354 839 l 354 1181 l 508 1181 l 508 839 l 758 846 z "},"‡":{"ha":861,"x_min":104,"x_max":758,"o":"m 758 701 l 508 708 l 508 332 l 758 339 l 758 194 l 508 201 l 508 -146 l 354 -146 l 354 201 l 104 194 l 104 339 l 354 332 l 354 708 l 104 701 l 104 846 l 354 839 l 354 1181 l 508 1181 l 508 839 l 758 846 l 758 701 z "},"•":{"ha":544,"x_min":104,"x_max":440,"o":"m 104 240 l 104 544 l 440 544 l 440 240 l 104 240 z "},"…":{"ha":1176,"x_min":97,"x_max":1079,"o":"m 97 0 l 97 175 l 290 175 l 290 0 l 97 0 m 492 0 l 492 175 l 685 175 l 685 0 l 492 0 m 886 0 l 886 175 l 1079 175 l 1079 0 l 886 0 z "},"‰":{"ha":2310,"x_min":104,"x_max":2206,"o":"m 552 485 q 519 444 552 485 q 361 403 486 403 q 170 485 236 403 q 104 719 104 567 q 169 951 104 869 q 361 1032 235 1032 q 553 951 488 1032 q 618 719 618 869 q 552 485 618 567 m 440 -21 l 1063 1010 l 1199 1010 l 579 -21 l 440 -21 m 268 563 q 283 539 268 563 q 361 515 299 515 q 454 563 424 515 q 485 718 485 611 q 454 872 485 825 q 361 919 424 919 q 268 872 299 919 q 238 718 238 825 q 268 563 238 611 m 1487 60 q 1454 19 1487 60 q 1296 -22 1421 -22 q 1105 60 1171 -22 q 1039 294 1039 142 q 1104 526 1039 444 q 1296 607 1169 607 q 1488 526 1422 607 q 1553 294 1553 444 q 1487 60 1553 142 m 2140 60 q 2107 19 2140 60 q 1949 -22 2074 -22 q 1758 60 1824 -22 q 1692 294 1692 142 q 1757 526 1692 444 q 1949 607 1822 607 q 2140 526 2075 607 q 2206 294 2206 444 q 2140 60 2206 142 m 1203 138 q 1218 114 1203 138 q 1296 90 1233 90 q 1389 138 1358 90 q 1419 293 1419 186 q 1389 446 1419 399 q 1296 493 1358 493 q 1203 446 1233 493 q 1172 293 1172 399 q 1203 138 1172 186 m 1856 138 q 1871 114 1856 138 q 1949 90 1886 90 q 2042 138 2011 90 q 2072 293 2072 186 q 2042 446 2072 399 q 1949 493 2011 493 q 1856 446 1886 493 q 1825 293 1825 399 q 1856 138 1825 186 z "},"‹":{"ha":556,"x_min":97,"x_max":460,"o":"m 460 -14 l 97 282 l 97 432 l 460 728 l 460 542 l 229 357 l 460 172 l 460 -14 z "},"›":{"ha":556,"x_min":97,"x_max":458,"o":"m 97 -14 l 97 172 l 326 357 l 97 542 l 97 728 l 458 432 l 458 282 l 97 -14 z "},"‽":{"ha":853,"x_min":54,"x_max":783,"o":"m 418 1010 q 687 935 590 1010 q 783 726 783 861 q 643 493 783 574 l 579 456 q 502 389 526 424 q 471 286 478 354 l 365 286 l 333 624 l 333 732 l 501 732 l 501 624 l 494 550 q 521 567 511 561 q 619 718 619 628 q 418 871 619 871 q 265 825 313 871 q 214 683 217 779 l 54 683 q 153 924 61 839 q 418 1010 244 1010 m 329 0 l 329 175 l 507 175 l 507 0 l 329 0 z "},"⁄":{"ha":507,"x_min":-126,"x_max":633,"o":"m -126 -21 l 496 1010 l 633 1010 l 14 -21 l -126 -21 z "},"⁰":{"ha":614,"x_min":50,"x_max":564,"o":"m 498 576 q 465 535 498 576 q 307 494 432 494 q 116 576 182 494 q 50 811 50 658 q 115 1042 50 961 q 307 1124 181 1124 q 499 1042 433 1124 q 564 811 564 961 q 498 576 564 658 m 214 655 q 229 631 214 655 q 307 607 244 607 q 400 655 369 607 q 431 810 431 703 q 400 963 431 915 q 307 1010 369 1010 q 214 963 244 1010 q 183 810 183 915 q 214 655 183 703 z "},"⁴":{"ha":629,"x_min":56,"x_max":568,"o":"m 349 517 l 349 639 l 56 635 l 56 738 l 332 1110 l 468 1110 l 468 738 l 568 742 l 568 635 l 468 639 l 468 517 l 349 517 m 179 740 l 349 738 l 349 964 l 344 964 l 179 740 z "},"⁵":{"ha":618,"x_min":69,"x_max":549,"o":"m 304 494 q 151 534 213 494 q 69 644 89 574 l 194 664 q 306 597 221 597 q 393 624 363 597 q 424 699 424 651 q 393 776 424 747 q 307 804 363 804 q 206 763 243 804 l 82 783 l 139 1110 l 507 1110 l 507 1004 l 226 1004 l 203 871 l 206 869 q 336 904 263 904 q 492 849 435 904 q 549 706 549 793 q 484 553 549 613 q 304 494 419 494 z "},"⁶":{"ha":632,"x_min":69,"x_max":568,"o":"m 329 494 q 135 574 200 494 q 69 799 69 654 q 135 1039 69 956 q 329 1122 201 1122 q 472 1087 414 1122 q 549 994 529 1051 l 425 971 q 326 1024 396 1024 q 190 840 199 1024 q 353 908 246 908 q 509 853 450 908 q 568 706 568 797 q 503 552 568 610 q 329 494 439 494 m 328 596 q 413 626 382 596 q 443 706 443 657 q 412 783 443 754 q 328 811 381 811 q 240 782 274 811 q 207 707 207 753 q 241 625 207 654 q 328 596 275 596 z "},"⁷":{"ha":544,"x_min":46,"x_max":500,"o":"m 142 517 q 357 1001 160 800 l 46 1001 l 46 1110 l 500 1110 l 500 1008 q 337 792 390 906 q 272 517 283 678 l 142 517 z "},"⁸":{"ha":646,"x_min":64,"x_max":581,"o":"m 324 499 q 133 549 201 499 q 64 685 64 599 q 97 781 64 740 q 186 836 129 821 l 186 840 q 119 890 144 857 q 94 965 94 922 q 155 1081 94 1039 q 324 1122 215 1122 q 490 1081 431 1122 q 550 965 550 1039 q 526 888 550 921 q 460 840 501 854 l 460 836 q 548 781 515 821 q 581 685 581 742 q 513 549 581 599 q 324 499 444 499 m 324 876 q 402 897 374 876 q 431 953 431 917 q 324 1028 431 1028 q 215 953 215 1028 q 244 896 215 915 q 324 876 272 876 m 227 619 q 245 607 227 619 q 324 594 263 594 q 419 619 385 594 q 453 689 453 644 q 419 759 453 735 q 324 783 385 783 q 226 759 261 783 q 192 689 192 735 q 227 619 192 644 z "},"⁹":{"ha":632,"x_min":64,"x_max":563,"o":"m 303 494 q 160 530 217 494 q 83 622 103 565 l 207 646 q 306 593 233 593 q 442 776 433 593 q 278 708 385 708 q 122 763 181 708 q 64 911 64 818 q 128 1065 64 1007 q 301 1122 192 1122 q 497 1042 431 1122 q 563 818 563 963 q 497 578 563 661 q 303 494 431 494 m 219 834 q 235 820 219 834 q 304 806 250 806 q 392 835 358 806 q 425 910 425 864 q 391 992 425 963 q 304 1021 357 1021 q 219 990 250 1021 q 189 911 189 960 q 219 834 189 863 z "},"⁺":{"ha":669,"x_min":67,"x_max":603,"o":"m 603 818 l 603 722 l 385 722 l 385 517 l 283 517 l 283 722 l 67 722 l 67 818 l 283 818 l 283 1025 l 385 1025 l 385 818 l 603 818 z "},"⁻":{"ha":661,"x_min":67,"x_max":594,"o":"m 67 724 l 67 819 l 594 819 l 594 724 l 67 724 z "},"⁽":{"ha":422,"x_min":86,"x_max":358,"o":"m 225 329 q 86 765 86 524 q 225 1201 86 1010 l 358 1201 q 235 764 235 1000 q 358 329 235 529 l 225 329 z "},"⁾":{"ha":422,"x_min":65,"x_max":336,"o":"m 65 329 q 188 764 188 531 q 65 1201 188 1003 l 197 1201 q 336 765 336 1013 q 197 329 336 524 l 65 329 z "},"ⁿ":{"ha":672,"x_min":97,"x_max":576,"o":"m 393 1003 q 528 958 479 1003 q 576 828 576 913 l 576 517 l 442 517 l 442 800 q 347 893 442 893 q 263 862 296 893 q 231 772 231 831 l 231 517 l 97 517 l 97 989 l 218 989 l 221 913 q 393 1003 279 1003 z "},"₀":{"ha":614,"x_min":50,"x_max":564,"o":"m 498 -183 q 465 -224 498 -183 q 307 -265 432 -265 q 116 -183 182 -265 q 50 51 50 -101 q 115 283 50 201 q 307 364 181 364 q 499 283 433 364 q 564 51 564 201 q 498 -183 564 -101 m 214 -105 q 229 -129 214 -105 q 307 -153 244 -153 q 400 -105 369 -153 q 431 50 431 -57 q 400 203 431 156 q 307 250 369 250 q 214 203 244 250 q 183 50 183 156 q 214 -105 183 -57 z "},"₁":{"ha":414,"x_min":49,"x_max":317,"o":"m 193 -243 l 193 154 l 49 154 l 49 247 l 93 247 q 172 270 142 247 q 206 332 203 293 l 207 350 l 317 350 l 317 -243 l 193 -243 z "},"₂":{"ha":600,"x_min":71,"x_max":531,"o":"m 71 -243 q 102 -83 71 -144 q 204 17 133 -22 l 331 82 q 406 175 406 121 q 378 235 406 213 q 301 257 351 257 q 223 233 246 257 q 197 158 200 208 l 75 158 q 135 309 78 256 q 301 363 193 363 q 469 313 407 363 q 531 176 531 263 q 400 0 531 67 l 293 -56 q 238 -92 256 -75 q 217 -133 221 -108 l 529 -133 l 529 -243 l 71 -243 z "},"₃":{"ha":619,"x_min":68,"x_max":551,"o":"m 311 -265 q 135 -212 199 -265 q 68 -64 71 -160 l 192 -64 q 311 -161 196 -161 q 425 -78 425 -161 q 308 3 425 3 l 257 3 l 257 110 l 311 110 q 408 182 408 110 q 303 258 408 258 q 194 176 201 258 l 72 176 q 135 314 74 265 q 303 363 197 363 q 471 317 410 363 q 532 194 532 271 q 506 113 532 147 q 435 67 481 79 l 435 64 q 519 12 488 50 q 551 -82 551 -26 q 487 -214 551 -162 q 311 -265 422 -265 z "},"₄":{"ha":629,"x_min":56,"x_max":568,"o":"m 349 -243 l 349 -121 l 56 -125 l 56 -22 l 332 350 l 468 350 l 468 -22 l 568 -18 l 568 -125 l 468 -121 l 468 -243 l 349 -243 m 179 -19 l 349 -22 l 349 204 l 344 204 l 179 -19 z "},"₅":{"ha":618,"x_min":69,"x_max":549,"o":"m 304 -265 q 151 -226 213 -265 q 69 -115 89 -186 l 194 -96 q 306 -162 221 -162 q 393 -135 363 -162 q 424 -61 424 -108 q 393 16 424 -12 q 307 44 363 44 q 206 3 243 44 l 82 24 l 139 350 l 507 350 l 507 244 l 226 244 l 203 111 l 206 110 q 336 144 263 144 q 492 89 435 144 q 549 -54 549 33 q 484 -206 549 -147 q 304 -265 419 -265 z "},"₆":{"ha":632,"x_min":69,"x_max":568,"o":"m 329 -265 q 135 -185 200 -265 q 69 39 69 -106 q 135 279 69 196 q 329 363 201 363 q 472 327 414 363 q 549 235 529 292 l 425 211 q 326 264 396 264 q 190 81 199 264 q 353 149 246 149 q 509 93 450 149 q 568 -54 568 38 q 503 -208 568 -150 q 329 -265 439 -265 m 328 -164 q 413 -133 382 -164 q 443 -54 443 -103 q 412 23 443 -6 q 328 51 381 51 q 240 22 274 51 q 207 -53 207 -7 q 241 -135 207 -106 q 328 -164 275 -164 z "},"₇":{"ha":544,"x_min":46,"x_max":500,"o":"m 142 -243 q 357 242 160 40 l 46 242 l 46 350 l 500 350 l 500 249 q 337 32 390 146 q 272 -243 283 -82 l 142 -243 z "},"₈":{"ha":646,"x_min":64,"x_max":581,"o":"m 324 -261 q 133 -211 201 -261 q 64 -75 64 -161 q 97 21 64 -19 q 186 76 129 61 l 186 81 q 119 130 144 97 q 94 206 94 163 q 155 321 94 279 q 324 363 215 363 q 490 321 431 363 q 550 206 550 279 q 526 128 550 161 q 460 81 501 94 l 460 76 q 548 22 515 61 q 581 -75 581 -18 q 513 -211 581 -161 q 324 -261 444 -261 m 324 117 q 402 137 374 117 q 431 193 431 157 q 324 268 431 268 q 215 193 215 268 q 244 136 215 156 q 324 117 272 117 m 227 -140 q 245 -153 227 -140 q 324 -165 263 -165 q 419 -140 385 -165 q 453 -71 453 -115 q 419 -1 453 -25 q 324 24 385 24 q 226 -1 261 24 q 192 -71 192 -25 q 227 -140 192 -115 z "},"₉":{"ha":632,"x_min":64,"x_max":563,"o":"m 303 -265 q 160 -230 217 -265 q 83 -137 103 -194 l 207 -114 q 306 -167 233 -167 q 442 17 433 -167 q 278 -51 385 -51 q 122 3 181 -51 q 64 151 64 58 q 128 305 64 247 q 301 363 192 363 q 497 283 431 363 q 563 58 563 203 q 497 -182 563 -99 q 303 -265 431 -265 m 219 74 q 235 60 219 74 q 304 46 250 46 q 392 75 358 46 q 425 150 425 104 q 391 232 425 203 q 304 261 357 261 q 219 231 250 261 q 189 151 189 200 q 219 74 189 103 z "},"₊":{"ha":669,"x_min":67,"x_max":603,"o":"m 603 97 l 603 1 l 385 1 l 385 -204 l 283 -204 l 283 1 l 67 1 l 67 97 l 283 97 l 283 303 l 385 303 l 385 97 l 603 97 z "},"₋":{"ha":661,"x_min":67,"x_max":594,"o":"m 67 1 l 67 97 l 594 97 l 594 1 l 67 1 z "},"₌":{"ha":661,"x_min":67,"x_max":594,"o":"m 67 117 l 67 211 l 594 211 l 594 117 l 67 117 m 67 -117 l 67 -19 l 594 -19 l 594 -117 l 67 -117 z "},"₍":{"ha":422,"x_min":86,"x_max":358,"o":"m 225 -431 q 86 7 86 -236 q 225 442 86 251 l 358 442 q 235 4 235 242 q 358 -431 235 -231 l 225 -431 z "},"₎":{"ha":422,"x_min":65,"x_max":336,"o":"m 65 -431 q 188 4 188 -228 q 65 442 188 243 l 197 442 q 336 7 336 254 q 197 -431 336 -236 l 65 -431 z "},"ₙ":{"ha":672,"x_min":97,"x_max":576,"o":"m 393 244 q 528 199 479 244 q 576 68 576 153 l 576 -243 l 442 -243 l 442 42 q 347 133 442 133 q 263 103 296 133 q 231 13 231 72 l 231 -243 l 97 -243 l 97 229 l 218 229 l 221 154 q 393 244 279 244 z "},"€":{"ha":903,"x_min":57,"x_max":874,"o":"m 694 863 q 414 689 482 863 l 874 689 l 874 561 l 386 561 q 383 493 383 517 q 386 433 383 472 l 874 433 l 874 306 l 411 306 q 692 124 478 124 q 874 157 785 124 l 874 7 q 682 -22 782 -22 q 397 65 513 -22 q 239 306 282 153 l 57 306 l 57 433 l 217 433 q 214 493 214 472 q 217 561 214 517 l 57 561 l 57 689 l 240 689 q 400 924 286 839 q 681 1010 514 1010 q 874 978 782 1010 l 874 829 q 694 863 785 863 z "},"₸":{"ha":871,"x_min":38,"x_max":832,"o":"m 38 989 l 832 989 l 832 840 l 38 840 l 38 989 m 38 563 l 38 711 l 832 711 l 832 563 l 519 563 l 519 0 l 351 0 l 351 563 l 38 563 z "},"₹":{"ha":903,"x_min":69,"x_max":861,"o":"m 861 864 l 564 864 q 615 758 604 824 l 861 758 l 861 633 l 610 633 q 440 474 576 511 q 542 420 506 460 q 601 303 579 381 l 686 0 l 511 0 l 439 268 q 381 374 418 346 q 261 401 343 401 l 69 401 l 69 528 l 292 528 q 398 553 361 528 q 446 633 435 578 l 69 633 l 69 758 l 447 758 q 405 839 438 814 q 307 864 372 864 l 69 864 l 69 989 l 861 989 l 861 864 z "},"₺":{"ha":903,"x_min":49,"x_max":885,"o":"m 726 349 l 885 349 q 755 90 867 181 q 465 0 643 0 l 239 0 l 239 268 l 49 168 l 49 318 l 239 417 l 239 550 l 49 450 l 49 599 l 239 699 l 239 989 l 407 989 l 407 786 l 688 933 l 688 785 l 407 638 l 407 506 l 688 651 l 688 503 l 407 356 l 407 150 l 457 150 q 726 349 694 150 z "},"₼":{"ha":903,"x_min":65,"x_max":867,"o":"m 546 733 q 867 392 867 725 l 867 0 l 707 0 l 707 401 q 669 545 707 500 q 546 597 632 590 l 546 147 l 386 147 l 386 597 q 263 544 300 590 q 226 401 226 499 l 226 0 l 65 0 l 65 392 q 144 644 65 558 q 386 733 222 729 l 386 989 l 546 989 l 546 733 z "},"₿":{"ha":903,"x_min":108,"x_max":864,"o":"m 864 289 q 803 106 864 181 q 631 8 743 31 l 631 -200 l 499 -200 l 499 0 l 378 0 l 378 -200 l 246 -200 l 246 0 l 108 0 l 108 989 l 246 989 l 246 1176 l 378 1176 l 378 989 l 499 989 l 499 1176 l 631 1176 l 631 979 q 775 898 724 958 q 826 747 826 838 q 674 535 826 588 q 864 289 864 479 m 497 589 q 618 624 578 589 q 658 722 658 660 q 507 849 658 849 l 269 849 l 269 589 l 497 589 m 517 143 q 651 184 606 143 q 697 299 697 225 q 652 411 697 372 q 521 450 607 450 l 269 450 l 269 143 l 517 143 z "},"℅":{"ha":1597,"x_min":104,"x_max":1493,"o":"m 421 -21 l 1043 1010 l 1179 1010 l 560 -21 l 421 -21 m 363 503 q 175 571 246 503 q 104 754 104 639 q 173 938 104 869 q 358 1006 242 1006 q 523 958 457 1006 q 604 835 589 911 l 472 821 q 364 901 454 901 q 244 754 244 901 q 364 608 244 608 q 471 696 451 608 l 603 682 q 525 551 588 600 q 363 503 463 503 m 1422 46 q 1387 12 1422 46 q 1229 -22 1351 -22 q 1035 46 1107 -22 q 964 229 964 114 q 1035 411 964 343 q 1229 479 1107 479 q 1422 412 1351 479 q 1493 229 1493 344 q 1422 46 1493 114 m 1134 119 q 1151 101 1134 119 q 1229 82 1168 82 q 1324 119 1290 82 q 1357 229 1357 157 q 1324 338 1357 300 q 1229 375 1290 375 q 1134 338 1168 375 q 1100 229 1100 300 q 1134 119 1100 157 z "},"ℓ":{"ha":722,"x_min":38,"x_max":656,"o":"m 436 114 q 564 176 501 114 l 646 74 q 419 -24 553 -24 q 263 28 322 -24 q 204 175 204 81 l 204 264 l 92 211 l 38 338 l 204 403 l 204 799 q 260 954 204 899 q 424 1010 317 1010 q 656 746 656 1010 q 586 491 656 589 q 360 331 517 393 l 360 196 q 436 114 360 114 m 426 875 q 360 796 360 875 l 360 476 q 473 583 440 526 q 506 729 506 639 q 426 875 506 875 z "},"№":{"ha":1643,"x_min":104,"x_max":1588,"o":"m 1324 1007 q 1516 939 1444 1007 q 1588 757 1588 871 q 1516 574 1588 642 q 1324 506 1444 506 q 1130 574 1201 506 q 1058 757 1058 642 q 1130 939 1058 871 q 1324 1007 1201 1007 m 732 267 l 732 989 l 896 989 l 896 0 l 721 0 l 268 719 l 268 0 l 104 0 l 104 989 l 276 989 l 732 267 m 1324 610 q 1417 647 1383 610 q 1451 757 1451 685 q 1417 865 1451 828 q 1324 903 1383 903 q 1228 865 1263 903 q 1193 757 1193 828 q 1228 647 1193 685 q 1324 610 1263 610 z "},"℗":{"ha":1181,"x_min":68,"x_max":1113,"o":"m 215 867 q 289 940 215 867 q 590 1013 363 1013 q 965 867 818 1013 q 1113 494 1113 721 q 965 124 1113 271 q 590 -22 817 -22 q 216 124 364 -22 q 68 494 68 271 q 215 867 68 721 m 590 83 q 883 199 769 83 q 997 494 997 315 q 883 790 997 674 q 590 906 768 906 q 298 790 413 906 q 183 494 183 674 q 298 199 183 315 q 590 83 413 83 m 639 760 q 769 710 721 760 q 818 582 818 661 q 767 452 818 501 q 632 403 715 403 l 538 403 l 538 236 l 419 236 l 419 760 l 639 760 m 617 503 q 700 582 700 503 q 619 660 700 660 l 538 660 l 538 503 l 617 503 z "},"™":{"ha":1382,"x_min":57,"x_max":1285,"o":"m 222 458 l 222 882 l 57 882 l 57 989 l 513 989 l 513 882 l 347 882 l 347 458 l 222 458 m 626 458 l 626 989 l 844 989 l 949 544 l 963 544 l 1061 989 l 1285 989 l 1285 458 l 1167 458 l 1167 903 l 1151 903 l 1053 458 l 858 458 l 757 903 l 742 903 l 742 458 l 626 458 z "},"Ω":{"ha":1090,"x_min":68,"x_max":1022,"o":"m 68 0 l 68 139 l 279 139 l 279 142 q 128 310 182 207 q 75 540 75 413 q 204 881 75 753 q 546 1010 333 1010 q 885 882 757 1010 q 1013 540 1013 754 q 811 142 1013 279 l 811 139 l 1022 139 l 1022 0 l 608 0 l 608 129 q 843 529 843 253 q 763 778 843 694 q 546 863 682 863 q 326 778 408 863 q 244 529 244 694 q 483 129 244 256 l 483 0 l 68 0 z "},"℮":{"ha":1263,"x_min":69,"x_max":1192,"o":"m 222 863 q 299 935 222 863 q 632 1008 375 1008 q 1040 855 889 1008 q 1192 479 1192 701 l 297 479 q 278 461 278 479 l 278 218 q 300 153 278 174 q 632 19 436 19 q 828 63 736 19 q 981 179 921 107 l 1082 179 q 910 40 1025 99 q 632 -18 794 -18 q 224 126 379 -18 q 69 493 69 269 q 222 863 69 717 m 632 969 q 300 833 436 969 q 278 774 278 813 l 278 529 q 297 511 278 511 l 963 511 q 982 529 982 511 l 982 774 q 960 833 982 813 q 632 969 822 969 z "},"⅓":{"ha":1506,"x_min":104,"x_max":1403,"o":"m 249 425 l 249 822 l 104 822 l 104 915 l 149 915 q 228 938 197 915 q 261 1000 258 961 l 263 1018 l 372 1018 l 372 425 l 249 425 m 293 -21 l 915 1010 l 1053 1010 l 433 -21 l 293 -21 m 1338 29 q 1305 3 1338 29 q 1161 -22 1272 -22 q 985 31 1050 -22 q 919 179 921 83 l 1042 179 q 1073 106 1044 131 q 1163 82 1101 82 q 1276 165 1276 82 q 1160 246 1276 246 l 1108 246 l 1108 353 l 1163 353 q 1258 425 1258 353 q 1154 501 1258 501 q 1044 419 1053 501 l 922 419 q 986 557 925 508 q 1154 606 1047 606 q 1321 560 1260 606 q 1382 438 1382 514 q 1357 356 1382 390 q 1286 310 1332 322 l 1286 307 q 1371 255 1339 293 q 1403 161 1403 217 q 1338 29 1403 81 z "},"⅔":{"ha":1693,"x_min":106,"x_max":1589,"o":"m 106 425 q 137 586 106 525 q 239 685 168 647 l 365 750 q 440 844 440 789 q 413 903 440 882 q 336 925 386 925 q 258 901 281 925 q 232 826 235 876 l 108 826 q 169 977 111 924 q 336 1031 228 1031 q 503 981 442 1031 q 565 846 565 932 q 435 668 565 735 l 328 613 q 273 577 290 593 q 251 535 256 561 l 564 535 l 564 425 l 106 425 m 481 -21 l 1103 1010 l 1240 1010 l 621 -21 l 481 -21 m 1524 29 q 1492 3 1524 29 q 1349 -22 1460 -22 q 1173 31 1238 -22 q 1107 179 1108 83 l 1229 179 q 1260 106 1232 131 q 1349 82 1289 82 q 1464 165 1464 82 q 1347 246 1464 246 l 1296 246 l 1296 353 l 1349 353 q 1446 425 1446 353 q 1340 501 1446 501 q 1232 419 1240 501 l 1110 419 q 1173 557 1111 508 q 1340 606 1235 606 q 1508 560 1447 606 q 1569 438 1569 514 q 1544 356 1569 390 q 1472 310 1518 322 l 1472 307 q 1557 255 1525 293 q 1589 161 1589 217 q 1524 29 1589 81 z "},"⅕":{"ha":1532,"x_min":104,"x_max":1428,"o":"m 249 425 l 249 822 l 104 822 l 104 915 l 149 915 q 228 938 197 915 q 261 1000 258 961 l 263 1018 l 372 1018 l 372 425 l 249 425 m 293 -21 l 915 1010 l 1053 1010 l 433 -21 l 293 -21 m 1183 -22 q 1030 17 1092 -22 q 949 128 968 57 l 1074 147 q 1185 81 1100 81 q 1272 108 1242 81 q 1301 182 1301 135 q 1271 259 1301 231 q 1186 288 1240 288 q 1083 246 1122 288 l 961 267 l 1018 593 l 1386 593 l 1386 488 l 1104 488 l 1082 354 l 1085 353 q 1215 388 1142 388 q 1371 332 1314 388 q 1428 189 1428 276 q 1363 37 1428 96 q 1183 -22 1299 -22 z "},"⅖":{"ha":1701,"x_min":106,"x_max":1599,"o":"m 106 425 q 137 586 106 525 q 239 685 168 647 l 365 750 q 440 844 440 789 q 413 903 440 882 q 336 925 386 925 q 258 901 281 925 q 232 826 235 876 l 108 826 q 169 977 111 924 q 336 1031 228 1031 q 503 981 442 1031 q 565 846 565 932 q 435 668 565 735 l 328 613 q 273 577 290 593 q 251 535 256 561 l 564 535 l 564 425 l 106 425 m 464 -21 l 1086 1010 l 1222 1010 l 603 -21 l 464 -21 m 1354 -22 q 1200 17 1263 -22 q 1118 128 1138 57 l 1243 147 q 1356 81 1269 81 q 1442 108 1411 81 q 1472 182 1472 135 q 1442 259 1472 231 q 1356 288 1411 288 q 1254 246 1292 288 l 1132 267 l 1188 593 l 1556 593 l 1556 488 l 1275 488 l 1251 354 l 1254 353 q 1385 388 1311 388 q 1541 332 1483 388 q 1599 189 1599 276 q 1534 37 1599 96 q 1354 -22 1469 -22 z "},"⅗":{"ha":1676,"x_min":104,"x_max":1572,"o":"m 522 454 q 489 428 522 454 q 346 403 457 403 q 170 456 235 403 q 104 604 106 508 l 226 604 q 346 507 231 507 q 461 590 461 507 q 344 672 461 672 l 293 672 l 293 778 l 346 778 q 443 850 443 778 q 338 928 443 928 q 229 844 236 928 l 107 844 q 170 982 108 933 q 338 1031 232 1031 q 506 985 444 1031 q 567 864 567 940 q 541 782 567 817 q 469 735 515 747 l 469 732 q 554 680 522 718 q 586 586 586 642 q 522 454 586 506 m 438 -21 l 1060 1010 l 1197 1010 l 578 -21 l 438 -21 m 1328 -22 q 1174 17 1236 -22 q 1093 128 1113 57 l 1218 147 q 1329 81 1244 81 q 1415 108 1385 81 q 1446 182 1446 135 q 1415 259 1446 231 q 1331 288 1385 288 q 1228 246 1267 288 l 1106 267 l 1163 593 l 1531 593 l 1531 488 l 1249 488 l 1226 354 l 1229 353 q 1360 388 1286 388 q 1515 332 1458 388 q 1572 189 1572 276 q 1508 37 1572 96 q 1328 -22 1443 -22 z "},"⅘":{"ha":1733,"x_min":104,"x_max":1629,"o":"m 397 425 l 397 547 l 104 543 l 104 647 l 381 1018 l 517 1018 l 517 646 l 617 650 l 617 543 l 517 547 l 517 425 l 397 425 m 494 -21 l 1117 1010 l 1254 1010 l 635 -21 l 494 -21 m 228 649 l 397 646 l 397 872 l 393 872 l 228 649 m 1385 -22 q 1231 17 1293 -22 q 1150 128 1169 57 l 1275 147 q 1386 81 1301 81 q 1473 108 1443 81 q 1503 182 1503 135 q 1473 259 1503 231 q 1388 288 1443 288 q 1285 246 1324 288 l 1163 267 l 1219 593 l 1588 593 l 1588 488 l 1306 488 l 1283 354 l 1286 353 q 1417 388 1343 388 q 1572 332 1515 388 q 1629 189 1629 276 q 1565 37 1629 96 q 1385 -22 1500 -22 z "},"⅙":{"ha":1490,"x_min":104,"x_max":1386,"o":"m 249 425 l 249 822 l 104 822 l 104 915 l 149 915 q 228 938 197 915 q 261 1000 258 961 l 263 1018 l 372 1018 l 372 425 l 249 425 m 293 -21 l 915 1010 l 1053 1010 l 433 -21 l 293 -21 m 1149 -22 q 954 58 1019 -22 q 889 282 889 138 q 955 522 889 439 q 1149 606 1021 606 q 1290 570 1233 606 q 1367 478 1347 535 l 1244 454 q 1146 507 1215 507 q 1008 324 1017 507 q 1172 392 1065 392 q 1328 337 1269 392 q 1386 189 1386 282 q 1322 35 1386 93 q 1149 -22 1258 -22 m 1146 79 q 1232 110 1201 79 q 1263 189 1263 140 q 1231 266 1263 238 q 1146 294 1200 294 q 1058 265 1092 294 q 1025 190 1025 236 q 1059 108 1025 138 q 1146 79 1093 79 z "},"⅚":{"ha":1624,"x_min":104,"x_max":1519,"o":"m 339 403 q 185 442 247 403 q 104 553 124 482 l 229 572 q 340 506 256 506 q 428 533 397 506 q 458 607 458 560 q 428 684 458 656 q 342 713 397 713 q 239 672 279 713 l 117 692 l 174 1018 l 542 1018 l 542 913 l 260 913 l 238 779 l 240 778 q 371 813 297 813 q 526 757 469 813 q 583 614 583 701 q 519 463 583 522 q 339 403 454 403 m 425 -21 l 1047 1010 l 1185 1010 l 565 -21 l 425 -21 m 1281 -22 q 1086 58 1151 -22 q 1021 282 1021 138 q 1087 522 1021 439 q 1281 606 1153 606 q 1423 570 1365 606 q 1500 478 1481 535 l 1376 454 q 1278 507 1347 507 q 1142 324 1150 507 q 1304 392 1197 392 q 1460 336 1401 392 q 1519 189 1519 281 q 1455 35 1519 93 q 1281 -22 1390 -22 m 1279 79 q 1364 110 1333 79 q 1394 189 1394 140 q 1364 266 1394 238 q 1279 294 1333 294 q 1192 265 1225 294 q 1158 190 1158 236 q 1192 108 1158 138 q 1279 79 1226 79 z "},"⅛":{"ha":1521,"x_min":104,"x_max":1417,"o":"m 249 425 l 249 822 l 104 822 l 104 915 l 149 915 q 228 938 197 915 q 261 1000 258 961 l 263 1018 l 372 1018 l 372 425 l 249 425 m 293 -21 l 915 1010 l 1053 1010 l 433 -21 l 293 -21 m 1349 32 q 1315 7 1349 32 q 1160 -18 1281 -18 q 970 32 1039 -18 q 901 168 901 82 q 934 264 901 224 q 1022 319 967 304 l 1022 324 q 956 372 981 339 q 932 449 932 406 q 992 564 932 522 q 1160 606 1051 606 q 1326 564 1267 606 q 1386 449 1386 522 q 1362 371 1386 404 q 1296 324 1338 338 l 1296 319 q 1384 265 1351 304 q 1417 168 1417 225 q 1349 32 1417 82 m 1160 360 q 1238 380 1210 360 q 1267 436 1267 400 q 1160 511 1267 511 q 1051 436 1051 511 q 1080 379 1051 399 q 1160 360 1108 360 m 1063 103 q 1081 90 1063 103 q 1160 78 1099 78 q 1256 103 1221 78 q 1290 172 1290 128 q 1256 242 1290 218 q 1160 267 1222 267 q 1063 242 1097 267 q 1028 172 1028 218 q 1063 103 1028 128 z "},"⅜":{"ha":1665,"x_min":104,"x_max":1561,"o":"m 522 454 q 489 428 522 454 q 346 403 457 403 q 170 456 235 403 q 104 604 106 508 l 226 604 q 346 507 231 507 q 461 590 461 507 q 344 672 461 672 l 293 672 l 293 778 l 346 778 q 443 850 443 778 q 338 928 443 928 q 229 844 236 928 l 107 844 q 170 982 108 933 q 338 1031 232 1031 q 506 985 444 1031 q 567 864 567 940 q 541 782 567 817 q 469 735 515 747 l 469 732 q 554 680 522 718 q 586 586 586 642 q 522 454 586 506 m 438 -21 l 1060 1010 l 1197 1010 l 578 -21 l 438 -21 m 1493 32 q 1459 7 1493 32 q 1304 -18 1425 -18 q 1115 32 1183 -18 q 1046 168 1046 82 q 1078 264 1046 224 q 1167 319 1111 304 l 1167 324 q 1101 372 1125 339 q 1076 449 1076 406 q 1136 564 1076 522 q 1304 606 1196 606 q 1471 564 1411 606 q 1531 449 1531 522 q 1506 371 1531 404 q 1440 324 1482 338 l 1440 319 q 1528 265 1496 304 q 1561 168 1561 225 q 1493 32 1561 82 m 1304 360 q 1383 380 1354 360 q 1411 436 1411 400 q 1304 511 1411 511 q 1196 436 1196 511 q 1224 379 1196 399 q 1304 360 1253 360 m 1208 103 q 1225 90 1208 103 q 1304 78 1243 78 q 1400 103 1365 78 q 1435 172 1435 128 q 1401 242 1435 218 q 1304 267 1367 267 q 1207 242 1242 267 q 1172 172 1172 218 q 1208 103 1172 128 z "},"⅝":{"ha":1654,"x_min":104,"x_max":1550,"o":"m 339 403 q 185 442 247 403 q 104 553 124 482 l 229 572 q 340 506 256 506 q 428 533 397 506 q 458 607 458 560 q 428 684 458 656 q 342 713 397 713 q 239 672 279 713 l 117 692 l 174 1018 l 542 1018 l 542 913 l 260 913 l 238 779 l 240 778 q 371 813 297 813 q 526 757 469 813 q 583 614 583 701 q 519 463 583 522 q 339 403 454 403 m 425 -21 l 1047 1010 l 1185 1010 l 565 -21 l 425 -21 m 1481 32 q 1447 7 1481 32 q 1292 -18 1413 -18 q 1102 32 1171 -18 q 1033 168 1033 82 q 1066 264 1033 224 q 1154 319 1099 304 l 1154 324 q 1089 373 1114 340 q 1064 449 1064 406 q 1124 564 1064 522 q 1292 606 1183 606 q 1459 564 1399 606 q 1519 449 1519 522 q 1494 371 1519 404 q 1428 324 1469 338 l 1428 319 q 1517 265 1485 304 q 1550 168 1550 225 q 1481 32 1550 82 m 1292 360 q 1370 380 1342 360 q 1399 436 1399 400 q 1292 511 1399 511 q 1185 436 1185 511 q 1292 360 1185 360 m 1196 103 q 1213 90 1196 103 q 1292 78 1231 78 q 1388 103 1353 78 q 1422 172 1422 128 q 1388 242 1422 218 q 1292 267 1354 267 q 1195 242 1229 267 q 1161 172 1161 218 q 1196 103 1161 128 z "},"⅞":{"ha":1513,"x_min":104,"x_max":1410,"o":"m 200 425 q 415 910 218 707 l 104 910 l 104 1018 l 558 1018 l 558 917 q 395 700 449 814 q 331 425 342 586 l 200 425 m 285 -21 l 907 1010 l 1044 1010 l 425 -21 l 285 -21 m 1341 32 q 1307 7 1341 32 q 1151 -18 1272 -18 q 962 32 1031 -18 q 893 168 893 82 q 926 264 893 224 q 1014 319 958 304 l 1014 324 q 948 372 972 339 q 924 449 924 406 q 983 564 924 522 q 1151 606 1043 606 q 1319 564 1258 606 q 1379 449 1379 522 q 1354 371 1379 404 q 1288 324 1329 338 l 1288 319 q 1377 265 1344 304 q 1410 168 1410 225 q 1341 32 1410 82 m 1151 360 q 1230 380 1201 360 q 1258 436 1258 400 q 1151 511 1258 511 q 1044 436 1044 511 q 1151 360 1044 360 m 1056 103 q 1073 90 1056 103 q 1151 78 1090 78 q 1247 103 1213 78 q 1282 172 1282 128 q 1248 242 1282 218 q 1151 267 1214 267 q 1055 242 1089 267 q 1021 172 1021 218 q 1056 103 1021 128 z "},"←":{"ha":1149,"x_min":68,"x_max":1081,"o":"m 1081 574 l 1081 415 l 306 415 l 453 229 l 625 0 l 442 0 l 68 494 l 442 989 l 625 989 l 453 761 l 304 574 l 1081 574 z "},"↑":{"ha":1114,"x_min":63,"x_max":1051,"o":"m 557 1013 l 1051 639 l 1051 456 l 822 628 l 638 774 l 638 0 l 475 0 l 475 774 l 292 628 l 63 456 l 63 639 l 557 1013 z "},"→":{"ha":1149,"x_min":68,"x_max":1081,"o":"m 707 989 l 1081 494 l 707 0 l 524 0 l 696 229 l 843 415 l 68 415 l 68 574 l 844 574 l 696 761 l 524 989 l 707 989 z "},"↓":{"ha":1114,"x_min":63,"x_max":1051,"o":"m 822 361 l 1051 533 l 1051 350 l 557 -24 l 63 350 l 63 533 l 292 361 l 475 215 l 475 989 l 638 989 l 638 215 l 822 361 z "},"↔":{"ha":1635,"x_min":68,"x_max":1567,"o":"m 1193 989 l 1567 494 l 1193 0 l 1010 0 l 1182 229 l 1329 415 l 306 415 l 453 229 l 625 0 l 442 0 l 68 494 l 442 989 l 625 989 l 453 761 l 304 574 l 1331 574 l 1182 761 l 1010 989 l 1193 989 z "},"↕":{"ha":1114,"x_min":63,"x_max":1051,"o":"m 822 872 l 636 1018 l 636 -7 l 822 140 l 1051 313 l 1051 131 l 557 -243 l 63 131 l 63 313 l 292 140 l 478 -7 l 478 1018 l 292 872 l 63 700 l 63 882 l 557 1256 l 1051 882 l 1051 700 l 822 872 z "},"↖":{"ha":1019,"x_min":56,"x_max":992,"o":"m 992 114 l 875 0 l 206 667 l 214 411 l 214 58 l 56 58 l 56 928 l 933 928 l 933 769 l 579 769 l 319 778 l 992 114 z "},"↗":{"ha":1019,"x_min":28,"x_max":964,"o":"m 85 928 l 964 928 l 964 58 l 804 58 l 804 411 l 813 665 l 143 0 l 28 114 l 700 778 l 440 769 l 85 769 l 85 928 z "},"↘":{"ha":1019,"x_min":28,"x_max":964,"o":"m 804 869 l 964 869 l 964 0 l 85 0 l 85 158 l 440 158 l 700 150 l 28 814 l 143 928 l 813 263 l 804 517 l 804 869 z "},"↙":{"ha":1019,"x_min":56,"x_max":992,"o":"m 319 150 l 579 158 l 933 158 l 933 0 l 56 0 l 56 869 l 214 869 l 214 517 l 206 261 l 875 928 l 992 814 l 319 150 z "},"∂":{"ha":819,"x_min":68,"x_max":751,"o":"m 375 1001 q 751 497 751 1001 q 392 -17 751 -17 q 155 70 242 -17 q 68 307 68 157 q 152 544 68 458 q 378 629 236 629 q 588 557 500 629 q 522 792 578 721 q 363 863 465 863 q 182 821 283 863 l 133 951 q 375 1001 258 1001 m 397 121 q 530 183 485 121 q 586 375 575 246 q 505 460 556 429 q 394 492 454 492 q 277 444 322 492 q 232 307 232 397 q 275 170 232 219 q 397 121 318 121 z "},"∆":{"ha":997,"x_min":38,"x_max":958,"o":"m 597 989 l 958 0 l 38 0 l 404 989 l 597 989 m 267 142 l 728 142 l 558 635 l 500 828 l 440 635 l 267 142 z "},"∏":{"ha":997,"x_min":104,"x_max":893,"o":"m 893 989 l 893 -283 l 725 -283 l 725 838 l 272 838 l 272 -283 l 104 -283 l 104 989 l 893 989 z "},"∑":{"ha":929,"x_min":68,"x_max":853,"o":"m 853 989 l 853 840 l 296 840 l 679 360 l 283 -135 l 851 -135 l 851 -283 l 68 -283 l 68 -150 l 481 364 l 86 856 l 86 989 l 853 989 z "},"−":{"ha":903,"x_min":94,"x_max":838,"o":"m 94 358 l 94 499 l 838 499 l 838 358 l 94 358 z "},"∕":{"ha":507,"x_min":-126,"x_max":633,"o":"m -126 -21 l 496 1010 l 633 1010 l 14 -21 l -126 -21 z "},"∙":{"ha":531,"x_min":97,"x_max":433,"o":"m 97 240 l 97 544 l 433 544 l 433 240 l 97 240 z "},"√":{"ha":903,"x_min":72,"x_max":913,"o":"m 421 -283 l 271 129 l 122 72 l 72 208 l 365 317 l 518 -126 l 757 1038 l 913 1038 l 639 -283 l 421 -283 z "},"∞":{"ha":1093,"x_min":57,"x_max":1038,"o":"m 289 235 q 119 301 182 235 q 57 476 57 367 q 120 653 57 588 q 286 719 183 719 q 420 681 360 719 q 547 567 481 643 q 674 682 617 644 q 806 719 732 719 q 974 653 910 719 q 1038 478 1038 588 q 974 300 1038 367 q 806 233 911 233 q 547 383 678 233 q 419 271 478 307 q 289 235 361 235 m 806 363 q 881 393 853 363 q 908 476 908 424 q 880 563 908 532 q 803 593 851 593 q 632 475 728 593 q 806 363 721 363 m 290 361 q 461 475 372 361 q 289 590 367 590 q 214 559 242 590 q 186 476 186 528 q 215 392 186 424 q 290 361 243 361 z "},"∫":{"ha":903,"x_min":263,"x_max":669,"o":"m 263 -283 l 263 -151 l 299 -151 q 365 -131 344 -151 q 385 -65 385 -111 l 385 815 q 607 1038 385 1038 l 669 1038 l 669 906 l 632 906 q 567 885 586 906 q 547 819 547 865 l 547 -61 q 324 -283 547 -283 l 263 -283 z "},"≈":{"ha":903,"x_min":104,"x_max":828,"o":"m 104 485 q 158 680 104 617 q 306 743 211 743 q 425 716 367 743 q 531 662 483 689 q 615 635 579 635 q 688 743 688 635 l 828 743 q 774 549 828 613 q 625 485 721 485 q 530 502 576 485 q 453 540 483 519 q 385 577 422 560 q 317 594 349 594 q 261 569 279 594 q 243 485 243 543 l 104 485 m 104 138 q 158 333 104 269 q 306 396 211 396 q 425 369 367 396 q 531 315 483 342 q 615 288 579 288 q 688 396 688 288 l 828 396 q 774 201 828 265 q 625 138 721 138 q 530 155 576 138 q 453 192 483 172 q 385 230 422 213 q 317 247 349 247 q 261 222 279 247 q 243 138 243 196 l 104 138 z "},"≠":{"ha":903,"x_min":94,"x_max":838,"o":"m 838 519 l 569 519 l 490 340 l 838 340 l 838 201 l 428 201 l 315 -51 l 219 -6 l 311 201 l 94 201 l 94 340 l 374 340 l 454 519 l 94 519 l 94 658 l 515 658 l 631 917 l 726 871 l 632 658 l 838 658 l 838 519 z "},"≤":{"ha":903,"x_min":89,"x_max":843,"o":"m 843 833 l 843 674 l 263 525 l 843 379 l 843 218 l 89 446 l 89 604 l 843 833 m 89 0 l 89 139 l 843 139 l 843 0 l 89 0 z "},"≥":{"ha":903,"x_min":89,"x_max":843,"o":"m 89 833 l 843 604 l 843 446 l 89 218 l 89 379 l 669 525 l 89 674 l 89 833 m 89 0 l 89 139 l 843 139 l 843 0 l 89 0 z "},"①":{"ha":1536,"x_min":68,"x_max":1468,"o":"m 1269 42 q 1170 -55 1269 42 q 768 -151 1071 -151 q 267 42 465 -151 q 68 531 68 236 q 267 1019 68 826 q 768 1213 465 1213 q 1269 1019 1071 1213 q 1468 531 1468 825 q 1269 42 1468 236 m 383 149 q 460 73 383 149 q 768 -3 536 -3 q 1153 149 1000 -3 q 1306 531 1306 300 q 1153 913 1306 761 q 768 1064 1000 1064 q 383 913 536 1064 q 231 531 231 761 q 383 149 231 300 m 738 236 l 738 632 l 592 632 l 592 725 l 638 725 q 717 748 686 725 q 749 810 747 771 l 751 829 l 860 829 l 860 236 l 738 236 z "},"②":{"ha":1536,"x_min":68,"x_max":1468,"o":"m 1269 42 q 1170 -55 1269 42 q 768 -151 1071 -151 q 267 42 465 -151 q 68 531 68 236 q 267 1019 68 826 q 768 1213 465 1213 q 1269 1019 1071 1213 q 1468 531 1468 825 q 1269 42 1468 236 m 383 149 q 460 73 383 149 q 768 -3 536 -3 q 1153 149 1000 -3 q 1306 531 1306 300 q 1153 913 1306 761 q 768 1064 1000 1064 q 383 913 536 1064 q 231 531 231 761 q 383 149 231 300 m 544 247 q 576 407 544 346 q 678 506 607 468 l 804 572 q 878 665 878 610 q 851 725 878 703 q 775 747 825 747 q 696 723 719 747 q 669 649 672 699 l 547 649 q 608 799 550 746 q 775 853 667 853 q 942 803 881 853 q 1004 667 1004 753 q 872 490 1004 556 l 767 435 q 712 399 729 415 q 690 357 694 383 l 1003 357 l 1003 247 l 544 247 z "},"③":{"ha":1536,"x_min":68,"x_max":1468,"o":"m 1269 42 q 1170 -55 1269 42 q 768 -151 1071 -151 q 267 42 465 -151 q 68 531 68 236 q 267 1019 68 826 q 768 1213 465 1213 q 1269 1019 1071 1213 q 1468 531 1468 825 q 1269 42 1468 236 m 383 149 q 460 73 383 149 q 768 -3 536 -3 q 1153 149 1000 -3 q 1306 531 1306 300 q 1153 913 1306 761 q 768 1064 1000 1064 q 383 913 536 1064 q 231 531 231 761 q 383 149 231 300 m 949 269 q 917 244 949 269 q 774 218 885 218 q 598 271 663 218 q 532 419 533 324 l 654 419 q 774 322 658 322 q 888 407 888 322 q 772 488 888 488 l 721 488 l 721 593 l 774 593 q 871 665 871 593 q 765 743 871 743 q 657 660 664 743 l 535 660 q 598 797 536 749 q 765 846 660 846 q 933 801 872 846 q 994 679 994 756 q 969 597 994 632 q 897 550 943 563 l 897 547 q 982 496 950 535 q 1014 401 1014 457 q 949 269 1014 321 z "},"④":{"ha":1536,"x_min":68,"x_max":1468,"o":"m 1269 42 q 1170 -55 1269 42 q 768 -151 1071 -151 q 267 42 465 -151 q 68 531 68 236 q 267 1019 68 826 q 768 1213 465 1213 q 1269 1019 1071 1213 q 1468 531 1468 825 q 1269 42 1468 236 m 383 149 q 460 73 383 149 q 768 -3 536 -3 q 1153 149 1000 -3 q 1306 531 1306 300 q 1153 913 1306 761 q 768 1064 1000 1064 q 383 913 536 1064 q 231 531 231 761 q 383 149 231 300 m 794 244 l 794 367 l 501 363 l 501 465 l 779 838 l 914 838 l 914 465 l 1015 468 l 1015 363 l 914 367 l 914 244 l 794 244 m 794 465 l 794 692 l 790 692 l 625 468 l 794 465 z "},"⑤":{"ha":1536,"x_min":68,"x_max":1468,"o":"m 1269 42 q 1170 -55 1269 42 q 768 -151 1071 -151 q 267 42 465 -151 q 68 531 68 236 q 267 1019 68 826 q 768 1213 465 1213 q 1269 1019 1071 1213 q 1468 531 1468 825 q 1269 42 1468 236 m 383 149 q 460 73 383 149 q 768 -3 536 -3 q 1153 149 1000 -3 q 1306 531 1306 300 q 1153 913 1306 761 q 768 1064 1000 1064 q 383 913 536 1064 q 231 531 231 761 q 383 149 231 300 m 775 219 q 621 260 683 219 q 539 371 558 300 l 664 390 q 776 324 690 324 q 863 351 832 324 q 893 425 893 378 q 863 502 893 474 q 776 531 832 531 q 675 489 713 531 l 553 510 l 608 836 l 976 836 l 976 731 l 696 731 l 672 597 l 675 596 q 806 631 732 631 q 962 576 904 631 q 1019 432 1019 521 q 955 279 1019 339 q 775 219 890 219 z "},"⑥":{"ha":1536,"x_min":68,"x_max":1468,"o":"m 1269 42 q 1170 -55 1269 42 q 768 -151 1071 -151 q 267 42 465 -151 q 68 531 68 236 q 267 1019 68 826 q 768 1213 465 1213 q 1269 1019 1071 1213 q 1468 531 1468 825 q 1269 42 1468 236 m 383 149 q 460 73 383 149 q 768 -3 536 -3 q 1153 149 1000 -3 q 1306 531 1306 300 q 1153 913 1306 761 q 768 1064 1000 1064 q 383 913 536 1064 q 231 531 231 761 q 383 149 231 300 m 783 224 q 589 303 654 224 q 524 528 524 383 q 590 768 524 685 q 783 851 656 851 q 925 816 868 851 q 1001 724 982 781 l 878 700 q 781 753 851 753 q 643 569 651 753 q 807 639 701 639 q 963 583 904 639 q 1021 435 1021 528 q 957 281 1021 339 q 783 224 893 224 m 781 326 q 867 357 836 326 q 897 435 897 388 q 866 512 897 483 q 781 540 835 540 q 693 511 726 540 q 660 436 660 482 q 694 356 660 385 q 781 326 728 326 z "},"⑦":{"ha":1536,"x_min":68,"x_max":1468,"o":"m 1269 42 q 1170 -55 1269 42 q 768 -151 1071 -151 q 267 42 465 -151 q 68 531 68 236 q 267 1019 68 826 q 768 1213 465 1213 q 1269 1019 1071 1213 q 1468 531 1468 825 q 1269 42 1468 236 m 383 149 q 460 73 383 149 q 768 -3 536 -3 q 1153 149 1000 -3 q 1306 531 1306 300 q 1153 913 1306 761 q 768 1064 1000 1064 q 383 913 536 1064 q 231 531 231 761 q 383 149 231 300 m 658 218 q 872 703 676 499 l 561 703 l 561 811 l 1015 811 l 1015 710 q 852 493 906 607 q 788 218 799 379 l 658 218 z "},"⑧":{"ha":1536,"x_min":68,"x_max":1468,"o":"m 1269 42 q 1170 -55 1269 42 q 768 -151 1071 -151 q 267 42 465 -151 q 68 531 68 236 q 267 1019 68 826 q 768 1213 465 1213 q 1269 1019 1071 1213 q 1468 531 1468 825 q 1269 42 1468 236 m 383 149 q 460 73 383 149 q 768 -3 536 -3 q 1153 149 1000 -3 q 1306 531 1306 300 q 1153 913 1306 761 q 768 1064 1000 1064 q 383 913 536 1064 q 231 531 231 761 q 383 149 231 300 m 958 274 q 924 249 958 274 q 769 224 890 224 q 580 274 649 224 q 511 410 511 324 q 544 504 511 464 q 632 560 576 544 l 632 564 q 566 613 590 579 q 542 690 542 647 q 602 804 542 763 q 769 846 663 846 q 936 804 876 846 q 996 690 996 763 q 972 613 996 646 q 906 564 947 579 l 906 560 q 994 505 961 544 q 1026 410 1026 465 q 958 274 1026 324 m 769 600 q 848 620 819 600 q 876 676 876 640 q 769 751 876 751 q 661 676 661 751 q 690 619 661 639 q 769 600 718 600 m 769 318 q 865 343 831 318 q 900 414 900 368 q 769 507 900 507 q 638 414 638 507 q 672 343 638 368 q 769 318 707 318 z "},"⑨":{"ha":1536,"x_min":68,"x_max":1468,"o":"m 1269 42 q 1170 -55 1269 42 q 768 -151 1071 -151 q 267 42 465 -151 q 68 531 68 236 q 267 1019 68 826 q 768 1213 465 1213 q 1269 1019 1071 1213 q 1468 531 1468 825 q 1269 42 1468 236 m 383 149 q 460 73 383 149 q 768 -3 536 -3 q 1153 149 1000 -3 q 1306 531 1306 300 q 1153 913 1306 761 q 768 1064 1000 1064 q 383 913 536 1064 q 231 531 231 761 q 383 149 231 300 m 768 217 q 626 252 683 217 q 550 344 569 288 l 672 367 q 771 315 701 315 q 908 497 900 315 q 744 429 850 429 q 589 484 647 429 q 531 632 531 539 q 594 787 531 729 q 768 844 658 844 q 963 764 897 844 q 1028 539 1028 683 q 962 300 1028 383 q 768 217 896 217 m 685 556 q 701 542 685 556 q 771 528 717 528 q 858 557 825 528 q 892 632 892 586 q 858 713 892 683 q 771 742 824 742 q 685 711 715 742 q 654 633 654 681 q 685 556 654 585 z "},"⓪":{"ha":1536,"x_min":68,"x_max":1468,"o":"m 1269 42 q 1170 -55 1269 42 q 768 -151 1071 -151 q 267 42 465 -151 q 68 531 68 236 q 267 1019 68 826 q 768 1213 465 1213 q 1269 1019 1071 1213 q 1468 531 1468 825 q 1269 42 1468 236 m 383 149 q 460 73 383 149 q 768 -3 536 -3 q 1153 149 1000 -3 q 1306 531 1306 300 q 1153 913 1306 761 q 768 1064 1000 1064 q 383 913 536 1064 q 231 531 231 761 q 383 149 231 300 m 768 218 q 577 300 643 218 q 511 535 511 382 q 577 766 511 685 q 768 847 643 847 q 960 766 894 847 q 1026 535 1026 685 q 960 300 1026 382 q 768 218 894 218 m 675 379 q 690 356 675 379 q 768 332 706 332 q 861 379 831 332 q 892 533 892 426 q 861 688 892 640 q 768 735 831 735 q 675 688 706 735 q 644 533 644 640 q 675 379 644 426 z "},"⓿":{"ha":1536,"x_min":68,"x_max":1468,"o":"m 1269 42 q 1170 -55 1269 42 q 768 -151 1071 -151 q 267 42 465 -151 q 68 531 68 236 q 267 1019 68 826 q 768 1213 465 1213 q 1269 1019 1071 1213 q 1468 531 1468 825 q 1269 42 1468 236 m 768 218 q 960 300 894 218 q 1026 535 1026 382 q 960 766 1026 685 q 768 847 894 847 q 577 766 643 847 q 511 535 511 685 q 577 300 511 382 q 768 218 643 218 m 861 379 q 846 356 861 379 q 768 332 831 332 q 675 379 706 332 q 644 533 644 426 q 675 688 644 640 q 768 735 706 735 q 861 688 831 735 q 892 533 892 640 q 861 379 892 426 z "},"■":{"ha":1469,"x_min":104,"x_max":1365,"o":"m 104 -122 l 104 1111 l 1365 1111 l 1365 -122 l 104 -122 z "},"□":{"ha":1469,"x_min":104,"x_max":1365,"o":"m 104 -122 l 104 1111 l 1365 1111 l 1365 -122 l 104 -122 m 267 26 l 1201 26 l 1201 963 l 267 963 l 267 26 z "},"◊":{"ha":800,"x_min":53,"x_max":747,"o":"m 506 989 l 747 494 l 506 0 l 294 0 l 53 494 l 294 989 l 506 989 m 400 89 l 588 494 l 400 900 l 211 494 l 400 89 z "},"○":{"ha":1536,"x_min":68,"x_max":1468,"o":"m 1269 42 q 1170 -55 1269 42 q 768 -151 1071 -151 q 267 42 465 -151 q 68 531 68 236 q 267 1019 68 826 q 768 1213 465 1213 q 1269 1019 1071 1213 q 1468 531 1468 825 q 1269 42 1468 236 m 383 149 q 460 73 383 149 q 768 -3 536 -3 q 1153 149 1000 -3 q 1306 531 1306 300 q 1153 913 1306 761 q 768 1064 1000 1064 q 383 913 536 1064 q 231 531 231 761 q 383 149 231 300 z "},"●":{"ha":1536,"x_min":68,"x_max":1468,"o":"m 1269 42 q 1170 -55 1269 42 q 768 -151 1071 -151 q 267 42 465 -151 q 68 531 68 236 q 267 1019 68 826 q 768 1213 465 1213 q 1269 1019 1071 1213 q 1468 531 1468 825 q 1269 42 1468 236 z "},"❶":{"ha":1536,"x_min":68,"x_max":1468,"o":"m 1269 42 q 1170 -55 1269 42 q 768 -151 1071 -151 q 267 42 465 -151 q 68 531 68 236 q 267 1019 68 826 q 768 1213 465 1213 q 1269 1019 1071 1213 q 1468 531 1468 825 q 1269 42 1468 236 m 726 242 l 849 242 l 849 835 l 740 835 l 738 817 q 706 755 736 778 q 626 732 675 732 l 581 732 l 581 639 l 726 639 l 726 242 z "},"❷":{"ha":1536,"x_min":68,"x_max":1468,"o":"m 267 1019 q 366 1116 267 1019 q 768 1213 465 1213 q 1269 1019 1071 1213 q 1468 531 1468 825 q 1269 42 1468 236 q 768 -151 1071 -151 q 267 42 465 -151 q 68 531 68 236 q 267 1019 68 826 m 999 357 l 686 357 q 708 399 690 382 q 763 435 725 415 l 869 490 q 968 566 936 525 q 1000 667 1000 607 q 938 803 1000 753 q 772 853 876 853 q 605 799 663 853 q 544 649 547 746 l 667 649 q 693 723 669 699 q 771 747 717 747 q 848 725 821 747 q 875 665 875 703 q 801 572 875 610 l 674 506 q 572 407 603 468 q 540 247 540 346 l 999 247 l 999 357 z "},"❸":{"ha":1536,"x_min":68,"x_max":1468,"o":"m 1269 42 q 1170 -55 1269 42 q 768 -151 1071 -151 q 267 42 465 -151 q 68 531 68 236 q 267 1019 68 826 q 768 1213 465 1213 q 1269 1019 1071 1213 q 1468 531 1468 825 q 1269 42 1468 236 m 594 271 q 626 244 594 271 q 769 218 658 218 q 945 269 881 218 q 1010 401 1010 321 q 978 496 1010 457 q 893 547 946 535 l 893 550 q 965 597 939 563 q 990 679 990 632 q 929 801 990 756 q 761 846 868 846 q 594 797 656 846 q 531 660 532 749 l 653 660 q 761 743 660 743 q 867 665 867 743 q 769 593 867 593 l 717 593 l 717 488 l 768 488 q 885 407 885 488 q 769 322 885 322 q 650 419 654 322 l 528 419 q 594 271 529 324 z "},"❹":{"ha":1536,"x_min":68,"x_max":1468,"o":"m 1269 42 q 1170 -55 1269 42 q 768 -151 1071 -151 q 267 42 465 -151 q 68 531 68 236 q 267 1019 68 826 q 768 1213 465 1213 q 1269 1019 1071 1213 q 1468 531 1468 825 q 1269 42 1468 236 m 786 249 l 906 249 l 906 371 l 1006 368 l 1006 474 l 906 471 l 906 842 l 769 842 l 493 471 l 493 368 l 786 371 l 786 249 m 786 471 l 617 474 l 782 697 l 786 697 l 786 471 z "},"❺":{"ha":1536,"x_min":68,"x_max":1468,"o":"m 267 1019 q 366 1116 267 1019 q 768 1213 465 1213 q 1269 1019 1071 1213 q 1468 531 1468 825 q 1269 42 1468 236 q 768 -151 1071 -151 q 267 42 465 -151 q 68 531 68 236 q 267 1019 68 826 m 775 215 q 955 275 890 215 q 1019 426 1019 335 q 963 569 1019 514 q 807 625 906 625 q 676 590 733 625 l 674 592 l 696 725 l 978 725 l 978 831 l 610 831 l 553 504 l 675 485 q 778 525 715 525 q 864 497 833 525 q 894 419 894 468 q 864 346 894 372 q 776 319 833 319 q 665 385 690 319 l 540 365 q 622 255 560 294 q 775 215 683 215 z "},"❻":{"ha":1536,"x_min":68,"x_max":1468,"o":"m 1269 42 q 1170 -55 1269 42 q 768 -151 1071 -151 q 267 42 465 -151 q 68 531 68 236 q 267 1019 68 826 q 768 1213 465 1213 q 1269 1019 1071 1213 q 1468 531 1468 825 q 1269 42 1468 236 m 779 224 q 953 281 889 224 q 1018 435 1018 339 q 959 583 1018 528 q 803 639 900 639 q 640 569 696 639 q 776 753 649 753 q 875 700 849 753 l 999 724 q 922 816 979 781 q 779 851 864 851 q 585 768 651 851 q 519 528 519 685 q 585 303 519 383 q 779 224 650 224 m 778 326 q 691 356 725 326 q 657 436 657 385 q 690 511 657 482 q 778 540 724 540 q 863 512 832 540 q 893 435 893 483 q 863 357 893 388 q 778 326 832 326 z "},"❼":{"ha":1536,"x_min":68,"x_max":1468,"o":"m 1269 42 q 1170 -55 1269 42 q 768 -151 1071 -151 q 267 42 465 -151 q 68 531 68 236 q 267 1019 68 826 q 768 1213 465 1213 q 1269 1019 1071 1213 q 1468 531 1468 825 q 1269 42 1468 236 m 661 218 l 790 218 q 855 493 801 379 q 1018 710 908 607 l 1018 811 l 564 811 l 564 703 l 875 703 q 661 218 678 497 z "},"❽":{"ha":1536,"x_min":68,"x_max":1468,"o":"m 1269 42 q 1170 -55 1269 42 q 768 -151 1071 -151 q 267 42 465 -151 q 68 531 68 236 q 267 1019 68 826 q 768 1213 465 1213 q 1269 1019 1071 1213 q 1468 531 1468 825 q 1269 42 1468 236 m 580 274 q 614 249 580 274 q 769 224 649 224 q 958 274 890 224 q 1026 410 1026 324 q 994 505 1026 465 q 906 560 961 544 l 906 564 q 972 613 947 579 q 996 690 996 646 q 936 804 996 763 q 769 846 876 846 q 602 804 663 846 q 542 690 542 763 q 566 613 542 647 q 632 564 590 579 l 632 560 q 544 504 576 544 q 511 410 511 464 q 580 274 511 324 m 769 600 q 690 619 718 600 q 661 676 661 639 q 769 751 661 751 q 876 676 876 751 q 848 620 876 640 q 769 600 819 600 m 769 318 q 672 343 707 318 q 638 414 638 368 q 769 507 638 507 q 900 414 900 507 q 865 343 900 368 q 769 318 831 318 z "},"❾":{"ha":1536,"x_min":68,"x_max":1468,"o":"m 1269 42 q 1170 -55 1269 42 q 768 -151 1071 -151 q 267 42 465 -151 q 68 531 68 236 q 267 1019 68 826 q 768 1213 465 1213 q 1269 1019 1071 1213 q 1468 531 1468 825 q 1269 42 1468 236 m 768 215 q 962 299 896 215 q 1028 539 1028 382 q 963 763 1028 683 q 768 843 897 843 q 594 785 658 843 q 531 632 531 728 q 589 484 531 539 q 744 429 647 429 q 908 497 851 429 q 771 314 900 314 q 672 367 701 314 l 550 343 q 626 251 569 286 q 768 215 683 215 m 858 556 q 842 541 858 556 q 771 526 825 526 q 685 555 717 526 q 654 632 654 583 q 685 711 654 681 q 771 742 715 742 q 858 713 824 742 q 892 631 892 683 q 858 556 892 585 z "},"⸘":{"ha":853,"x_min":68,"x_max":797,"o":"m 524 717 l 524 542 l 346 542 l 346 717 l 524 717 m 639 33 l 797 33 q 699 -208 790 -122 q 433 -293 607 -293 q 165 -219 263 -293 q 68 -10 68 -144 q 208 224 68 143 l 274 261 q 350 327 326 293 q 382 431 374 361 l 486 431 l 518 93 l 518 -15 l 350 -15 l 350 93 l 357 165 q 332 150 349 161 q 232 -1 232 88 q 435 -154 232 -154 q 588 -108 540 -154 q 639 33 636 -62 z "},"":{"ha":1367,"x_min":104,"x_max":1261,"o":"m 565 919 q 517 938 549 938 q 451 911 478 938 q 425 832 425 885 l 425 624 l 339 624 l 339 1151 l 425 1151 l 425 956 q 542 1015 465 1015 q 636 979 600 1015 q 669 875 669 944 l 669 624 l 582 624 l 582 863 q 565 919 582 903 m 1233 1151 l 1233 624 l 1147 624 l 1147 1151 l 1233 1151 m 914 613 q 774 669 825 613 q 724 817 724 726 q 773 960 724 904 q 907 1015 822 1015 q 1042 961 992 1015 q 1093 813 1093 907 l 1093 790 l 811 790 q 914 682 819 682 q 1003 743 979 682 l 1086 736 q 914 613 1047 613 m 910 949 q 842 923 868 949 q 811 851 815 897 l 1006 851 q 910 949 994 949 m 1081 188 q 941 244 992 188 q 890 392 890 301 q 940 535 890 479 q 1074 590 989 590 q 1209 536 1158 590 q 1260 388 1260 482 l 1260 365 l 978 365 q 1081 257 986 257 q 1169 318 1146 257 l 1253 311 q 1190 219 1235 251 q 1081 188 1144 188 m 626 581 l 681 414 q 717 285 707 324 q 750 414 726 336 l 804 581 l 892 581 l 758 199 l 671 199 l 535 581 l 626 581 m 1076 524 q 1008 498 1035 524 q 978 426 982 472 l 1172 426 q 1076 524 1161 524 m 383 213 l 383 297 l 471 297 l 471 213 l 383 213 m 246 150 l 324 151 l 324 86 l 246 89 l 246 -124 q 254 -151 246 -143 q 282 -160 263 -160 l 324 -160 l 324 -231 l 256 -231 q 181 -208 204 -231 q 158 -135 158 -185 l 158 89 l 104 86 l 104 151 l 158 150 l 158 269 l 246 269 l 246 150 m 706 92 q 608 -40 608 92 q 634 -137 608 -103 q 706 -172 660 -172 q 792 -99 775 -172 l 875 -99 q 819 -204 864 -167 q 704 -242 775 -242 q 572 -188 621 -242 q 524 -42 524 -135 q 572 107 524 53 q 706 161 621 161 q 819 125 775 161 q 875 22 864 89 l 792 22 q 706 92 775 92 m 1261 -231 l 1174 -231 q 1164 -187 1167 -199 q 1040 -242 1121 -242 q 945 -210 981 -242 q 910 -126 910 -179 q 1032 -10 910 -31 l 1151 10 q 1161 13 1156 10 l 1161 46 q 1088 96 1161 96 q 1008 38 1015 96 l 928 38 q 1089 161 938 161 q 1246 29 1246 161 l 1246 -142 q 1261 -231 1246 -183 m 383 -231 l 383 151 l 471 151 l 471 -231 l 383 -231 m 1061 -176 q 1132 -151 1103 -176 q 1161 -87 1161 -126 l 1161 -47 l 1057 -67 q 994 -122 994 -76 q 1013 -162 994 -147 q 1061 -176 1031 -176 z "},"ﬁ":{"ha":838,"x_min":38,"x_max":742,"o":"m 146 767 q 368 989 146 989 l 457 989 l 457 857 l 394 857 q 328 837 347 857 q 308 771 308 817 l 308 713 l 457 717 l 457 594 l 308 600 l 308 0 l 146 0 l 146 599 l 38 594 l 38 717 l 146 713 l 146 767 m 579 989 l 742 989 l 742 831 l 579 831 l 579 989 m 579 0 l 579 717 l 742 717 l 742 0 l 579 0 z "},"ﬂ":{"ha":838,"x_min":38,"x_max":742,"o":"m 146 767 q 368 989 146 989 l 457 989 l 457 857 l 394 857 q 328 837 347 857 q 308 771 308 817 l 308 713 l 457 717 l 457 594 l 308 600 l 308 0 l 146 0 l 146 599 l 38 594 l 38 717 l 146 713 l 146 767 m 579 989 l 742 989 l 742 0 l 579 0 l 579 989 z "},"﻿":{"ha":0,"x_min":0,"x_max":0,"o":""}}}
